<svg version="1.2" xmlns="http://www.w3.org/2000/svg" viewBox="0 0 1551 689" width="1551" height="689">
	<title>FLWS_BIG-svg</title>
	<style>
		.s0 { fill: #000000 } 
	</style>
	<g id="Layer">
		<g id="Layer">
			<g id="Layer">
				<g id="Layer">
					<path id="Layer" fill-rule="evenodd" class="s0" d="m534.2 393.8h18.9v-114.2l-18.4 2.9v-20.8c13-3.9 23.2-10.2 33.4-19.4h17.4v151.5h18.8v25.7h-70.1zm105.4-109.9c0-26.6 16.9-44.5 39.2-44.5 24.2 0 39.7 16 39.7 39.2 0 16.9-6.8 30-21.3 43.5 16.4 16.5 24.6 33 24.6 52.8 0 30-17.4 47.4-44.5 47.4-25.6 0-43-17.4-43-44.5 0-18.4 8.2-32.4 25.6-46q-20.3-21-20.3-47.9zm52.7-2.9c0-11.1-5.3-17.9-13-17.9-5.8 0-11.6 6.3-11.6 17 0 9.1 4.8 17.3 14 27.5 6.8-9.2 10.6-17.4 10.6-26.6zm-29.5 95.9c0 13.5 4.9 20.8 14.5 20.8 9.2 0 16-7.8 16-18.9 0-11.1-6.8-20.4-19.8-32.5-6.8 9.2-10.7 20.4-10.7 30.6zm113.1-137.5c30 0 44.5 30 44.5 91 0 61-15 91.9-43.6 91.9-30 0-44-30.4-44-91.9 0-60.5 15-91 43.1-91zm-9.7 109.3c0 33 0.5 48.5 10.2 48.5 10.1 0 10.6-15.5 10.6-48.5v-37.2c0-33.4-0.5-48.4-10.6-48.4-9.7 0-10.2 15-10.2 48.4zm113.6-109.3c29.5 0 44.5 30 44.5 91 0 61-15.5 91.9-43.6 91.9-30 0-44.5-30.4-44.5-91.9 0-60.5 15.5-91 43.6-91zm-10.2 109.3c0 33 1 48.5 10.7 48.5 9.6 0 10.6-15.5 10.6-48.5v-37.2c0-33.4-1-48.4-10.6-48.4-9.7 0-10.7 15-10.7 48.4zm-255.4-2.7c-8.1 0-14.6-6.5-14.6-14.5 0-8.1 6.5-14.6 14.6-14.6 8 0 14.5 6.5 14.5 14.6 0 8-6.5 14.5-14.5 14.5z"/>
					<g id="Layer">
						<path id="Layer" fill-rule="evenodd" class="s0" d="m417.5 247.2c-15.5 38.1-39.3 71.8-79.7 87-10.2 2.7-21.4 3.8-32.3-0.4-18.8-60.1 4.2-128.6 42.3-177.6 26.8-38.2 68.9-63.2 115.1-81.6-42.5 48.5-19.4 116.9-45.4 172.6z"/>
						<path id="Layer" fill-rule="evenodd" class="s0" d="m381 93.8c-64 50.6-121.6 140.7-98.6 226.5-37.5-9.5-62-47.2-70.9-85.6-7.2-38.5 1.8-81.3 31.4-108.5 33.4-33.7 71.4-74 67.3-125.9 37.9 13.8 60.2 55.3 70.8 93.5z"/>
					</g>
					<path id="Layer" fill-rule="evenodd" class="s0" d="m358.8 493h-23.2v-39.7h23.2v-35.3c0-40.9 18.3-54.4 47.9-54.4 8.3 0 16.3 0.5 24.6 1.3v41.3c-3-0.4-6-0.4-9-0.4-12.9 0-17.6 5.1-17.6 18.1v29.4h26.6v39.7h-26.6v187.3h-45.8c0 0 0-187.3-0.1-187.3zm90.1-123.5h45.9v310.8h-45.9zm142.5 77.9c55.2-1.2 70.5 40.5 70.5 119.4 0 77.6-17.9 119.4-70.5 119.4-55.1 1.3-70.4-40.5-70.4-119.4 0-77.6 18-119.4 70.4-119.4zm0 199.1c18.7 0 24.6-23.2 24.6-79.7 0-56.5-5.9-79.7-24.6-79.7-22.5 0-24.5 33.3-24.5 79.7 0 46.4 2 79.7 24.5 79.7zm75.5-193.2h45.9l20.9 161.2h0.6l22.3-161.2h49.9l23.6 161.2h0.6l21.6-161.2h43.9l-38.6 227h-52.1l-23.6-161.2h-0.7l-22.3 161.2h-53.1zm277.8 122.3v18.2c0 26.5 5.6 52.7 22.6 52.7 15.3 0 21.6-14.8 24.2-42.6h41.2c-1.6 52.8-21.5 82.3-64.8 82.3-66.4 0-69.1-65-69.1-121.6 0-60.7 9.3-117.2 71.1-117.2 53.5 0 65.5 45.5 65.5 115.2v13zm46.8-34.5c-0.9-34.7-4.3-54.1-23.2-54.1-18.3 0-23.6 24.1-23.6 45.2v8.9zm61.2-87.8h43.8v30.4h0.7c9.3-22 22.2-36.3 41.2-36.3 2.7 0 5.6 0.4 8.3 0.8v55.7c-4.6-0.4-9.6-0.8-14.3-0.8-15.9 0-33.9 10.5-33.9 40.9v136.3h-45.8zm144.2 152.7v7.6c0 19.8 8.3 32.9 23.9 32.9 14 0 23.3-8.9 23.3-27 0-14.8-7.7-21.5-16.6-25.7l-32.3-14.8c-25.2-11.4-38.2-31.2-38.2-63.3 0-37.5 18.6-68.3 65.8-68.3 41.5 0 61.1 23.6 61.1 64.5v9.3h-41.2c0-22.8-5.3-34.2-20.2-34.2-11.7 0-21.6 8.5-21.6 24.5 0 11 4.6 20.3 19.9 26.6l27.6 11.8c28.9 12.2 39.5 30.8 39.5 65 0 47.6-27.9 71.3-66.4 71.3-51.5 0-65.8-28.7-65.8-72.2v-8zm96.8 61.5c0-4.4 1.4-7.9 4.3-10.8 2.7-2.7 6.5-4.3 10.6-4.3 4.3 0 8.1 1.6 10.8 4.3 2.9 2.9 4.3 6.4 4.3 10.8 0 4-1.4 7.8-4.3 10.5-3 2.9-6.5 4.6-10.8 4.6-4.1 0-7.6-1.7-10.6-4.6-2.9-2.7-4.3-6.5-4.3-10.5zm67.5 14c-17 0-25.9-13.8-25.9-40.8 0-29.1 10.2-44.5 26.1-44.5 14.6 0 22.7 10 22.7 29.1v2.7h-16.7v-3.4c0-9.2-1.9-13.8-5.4-13.8-4.8 0-5.4 7.5-5.4 22.6 0 21.9 1.1 31.9 6.2 31.9 4.3 0 7-5.4 7-16.2v-1.1l15.7 0.6c0 21.3-9.2 32.9-24.3 32.9zm58.9 0c-15.1 0-27.3-19.1-27.3-42.8 0-23.6 12.2-42.8 27.3-42.8 15.2 0 27.4 19.2 27.4 42.8 0 23.7-12.2 42.8-27.4 42.8zm7.5-42.8c0-15.1-3.3-27.4-7.4-27.4-4.1 0-7.5 12.3-7.5 27.4 0 15.2 3.4 27.4 7.5 27.4 4.1 0 7.4-12.2 7.4-27.4z"/>
					<g id="Layer">
						<path id="Layer" fill-rule="evenodd" class="s0" d="m1457.8 598.2h18.7v7.2c5.1-5.9 10.2-9.1 15.9-9.1 6.2 0 10.5 3.2 12.9 9.1 5.4-5.9 10.6-9.1 16.2-9.1 8.9 0 12.7 5.1 12.7 15.9v67.5h-18.6v-62.1c0-3.3-1.4-5.1-4.3-5.1-2.2 0-4.4 1.3-6 4v63.2h-18.6v-62.1c0-3.3-1.6-5.1-4.3-5.1-2.4 0-4.3 1.3-5.9 4v63.2h-18.7z"/>
						<path id="Layer" fill-rule="evenodd" class="s0" d="m286.2 339.8c-2.6-0.8-5.1 0.5-5.9 3.2-20.6 43-39.4 88.6-51.6 135.4-13.8-46.8-32.7-91.8-55.3-134.5-44.5-83.8-92.3-166.6-164.2-218.8-2.4-2.1-5.8-1.7-7.7 1-1.8 2.8-1.3 7 1.1 9.1 64.4 59.9 97.5 151.6 139.6 232 33.7 91.7 65.7 189.4 55.2 291.3 1.8 18.7 16 32.1 31.9 30 6.4-0.9 12-4.3 16.4-9.2 4.6-5.1 7.7-12 8.7-19.6-6.5-34.1-9.1-68.6-7.7-102.8 1.2-30.5 5.4-60.9 13-90.5 10.1-40 25.4-79 29.7-120.7 0.8-2.7-0.5-5.2-3.2-5.9z"/>
					</g>
					<path id="Layer" fill-rule="evenodd" class="s0" d="m1550.8 603.5c0 3.8-3 6.9-7 6.9-3.9 0-7-3.1-7-6.9 0-3.8 3.1-6.9 7-6.9 4 0 7 3.1 7 6.9zm-12.3 0c0 3 2.3 5.4 5.4 5.4 3 0 5.2-2.4 5.2-5.4 0-3-2.2-5.5-5.3-5.5-3 0-5.3 2.5-5.3 5.5zm4.2 3.5h-1.5v-6.8q0.9-0.2 2.6-0.2c1.3 0 1.9 0.2 2.4 0.5 0.3 0.3 0.6 0.8 0.6 1.5 0 0.7-0.6 1.3-1.4 1.6v0.1c0.7 0.2 1.1 0.7 1.3 1.6 0.2 1.1 0.3 1.5 0.5 1.7h-1.7c-0.3-0.2-0.4-0.8-0.6-1.6-0.1-0.8-0.5-1.1-1.4-1.1h-0.8zm0.1-3.9h0.7c0.9 0 1.6-0.3 1.6-1 0-0.6-0.4-1-1.4-1q-0.7 0-0.9 0.1z"/>
				</g>
			</g>
		</g>
	</g>
</svg>