<svg version="1.2" xmlns="http://www.w3.org/2000/svg" viewBox="0 0 1552 1774" width="1552" height="1774"><style>.a{fill:#000}</style><path fill-rule="evenodd" class="a" d="m1551.3 206.5v830.2c0 113.5-92.3 205.8-205.8 205.8h-1139c-114.2 0-206.5-92.3-206.5-205.8v-415.8c0-114.2 92.3-206.5 206.5-206.5h931.2v206.5h-864.2c-36.3 0-67 30.1-67 67v281.1c0 36.9 30.7 67 67 67h1004.3c37 0 66.4-29.4 67-66.3v-696.2c0-36.9-29.4-66.3-66.3-66.3v-0.7h-1278.5v-206.5h1345.5c113.5 0 205.8 92.3 205.8 206.5zm-1313.4 1245.3l78.7 236.6c9.5 29.4 16.4 35.6 32.8 35.6h15.7v41.7h-172.3v-41.7h13.7c14.3 0 26.6-1.4 26.6-6.9 0-4.7-0.6-10.2-2.7-17.1l-9.6-34.2h-97.1l-5.4 19.2c-4.8 16.4-6.9 23.2-6.9 30.1 0 7.5 16.5 8.9 29.4 8.9h13.7v41.7h-139.5v-41.7h16.5c16.4 0 23.2-6.2 32.8-35.6l78.6-236.6zm-99.8 172.3h68.3l-33.5-101.9h-1.3z"/><path class="a" d="m392.4 1509.9c0-13-3.4-19.8-17-19.8h-21.2v-38.3h116.9v118.3c17.7-19.8 39.6-32.8 60.8-32.8 71.1 0 97.8 55.4 97.8 117.6 0 62.9-26.7 118.3-97.8 118.3-29.4 0-56-10.2-72.5-36.9l-13.6 29.4h-53.4zm78.7 145c0 48.5 10.9 77.2 37.6 77.2 26.6 0 36.9-28.7 36.9-77.2 0-47.9-10.3-77.3-36.9-77.3-26.7 0-37.6 29.4-37.6 77.3z"/><path fill-rule="evenodd" class="a" d="m657.7 1765.7h53.3l13.7-29.4c16.4 26.7 43.1 36.9 72.5 36.9 71.1 0 97.8-55.4 97.8-118.3 0-62.2-26.7-117.6-97.8-117.6-21.2 0-43.1 13-60.9 32.8v-118.3h-116.9v38.3h21.2c13.7 0 17.1 6.8 17.1 19.8zm116.2-188c26 0 37 29.4 37 77.2 0 48.6-11 77.3-37 77.3-26.6 0-37.6-28.7-37.6-77.3 0-47.8 11-77.2 37.6-77.2zm265.3-40.4c-70.4 0-121.7 41.7-121.7 117.6 0 76 51.3 118.4 121.7 118.4 70.4 0 122.4-42.4 122.4-118.4 0-75.9-52-117.6-122.4-117.6zm0 37.6c28.7 0 38.3 24.7 38.3 80 0 56.1-9.6 80.1-38.3 80.1-28 0-38.3-24-38.3-80.1 0-55.3 10.3-80 38.3-80zm459.5 84.2v36.9c0 21.9-4.8 34.9-23.3 34.9-10.2 0-15.7-8.3-15.7-18.5v-129.9h58.1v-38.3h-58.1v-87.6h-47.2c-3.4 39-15.7 87.6-62.9 87.6h-73.8v-87.6h-46.5c-4.1 39-16.4 87.6-63.6 87.6v38.3h31.5v118.3c0 48.5 27.3 72.5 75.9 72.5 56.7 0 79.3-26 79.3-72.5v-41.7h-37.6v36.9c0 21.9-4.8 34.9-22.6 34.9-11.6 0-16.4-8.3-16.4-18.5v-129.9h105.3v118.3c0 48.5 27.3 72.5 75.9 72.5 56.7 0 79.3-26 79.3-72.5v-41.7z"/></svg>