<svg width="36" height="26" viewBox="0 0 36 26" fill="none" xmlns="http://www.w3.org/2000/svg">
<path d="M34.0116 0.898443C33.0409 0.27528 31.8237 -0.0592097 30.6182 0.0118136C30.0202 0.046177 29.4246 0.181348 28.8598 0.43336C27.3482 1.13442 26.0716 2.59611 25.654 4.34877L28.4375 11.9437L30.5873 6.11287L30.6775 5.87003V20.2396L24.8068 4.46332C23.8435 2.18602 22.3888 1.25126 21.8407 0.89616C20.882 0.350883 19.6884 0.0438803 18.4758 0.00264139C18.445 0.00264139 18.414 0.00264139 18.3832 0.00264139C18.2338 0.000359166 18.0819 -0.0019375 17.9325 0.00264139C17.2633 0.0232681 16.5988 0.126358 15.9723 0.316519C14.3421 0.898443 12.9516 1.54453 11.4946 4.0578L14.4536 11.5358L16.2144 7.03388C16.5157 6.18619 17.2134 5.79214 17.9181 5.8242C18.6205 5.85628 19.3277 6.30761 19.6598 7.15302L25.2293 21.4675C25.2293 21.4675 26.2022 23.7425 26.6815 24.2122C27.8347 25.4975 29.465 26.0221 30.7962 25.9626C31.584 25.9626 31.8877 25.9052 32.6091 25.6715C34.1254 25.0277 35.8173 23.6279 36 21.0528V5.46451C35.943 3.2399 35.5136 1.95462 34.0092 0.900739L34.0116 0.898443ZM24.5031 21.9921L21.5416 14.4546L19.8426 18.9588C19.4962 19.8477 18.7463 20.2326 18.0083 20.1571C17.3415 20.0883 16.6795 19.6462 16.333 18.8397L10.7637 4.58475C10.7637 4.58475 9.80029 2.30286 9.31146 1.83778C8.22465 0.495226 6.53036 0.0278469 5.19913 0.0278469C4.41607 0.0278469 4.10995 0.0874159 3.44789 0.318816C1.93159 0.960308 0.177971 2.36471 0 4.99256V20.5351C0.0569508 22.8147 0.476963 24.0426 1.99327 25.1515C3.06348 25.7724 4.3425 26.0978 5.60017 25.9694C6.12221 25.9168 6.63715 25.7861 7.13546 25.5639C8.64702 24.8606 9.98063 23.4012 10.3413 21.7058L7.56259 14.1086L5.52661 19.7996L5.3866 20.1891V5.75318L11.1932 21.5843C12.159 23.864 13.6089 24.7415 14.1523 25.0897C15.2628 25.7656 16.6771 26.0519 18.0771 25.9923C18.7415 25.9626 19.4035 25.8641 20.0277 25.6762C21.6602 25.0897 23.0484 24.5077 24.5007 21.9921H24.5031Z" fill="black"/>
</svg>
