<svg width="43" height="54" viewBox="0 0 43 54" fill="none" xmlns="http://www.w3.org/2000/svg">
<g clip-path="url(#clip0_155_10991)">
<path d="M41.6318 18.4086C41.3254 18.6516 35.9161 21.7674 35.9161 28.6956C35.9161 36.7092 42.7993 39.5442 43.0053 39.6144C42.9736 39.7872 41.9118 43.497 39.3762 47.277C37.1152 50.6034 34.7539 53.9244 31.1618 53.9244C27.5697 53.9244 26.6452 51.7914 22.4984 51.7914C18.4572 51.7914 17.0204 53.9946 13.7346 53.9946C10.4489 53.9946 8.15627 50.9166 5.52027 47.1366C2.46695 42.6978 0 35.802 0 29.2572C0 18.7596 6.67715 13.1922 13.2486 13.1922C16.7404 13.1922 19.6511 15.5358 21.8434 15.5358C23.93 15.5358 27.184 13.0518 31.1565 13.0518C32.662 13.0518 38.0714 13.1922 41.6318 18.4086ZM29.2706 8.6076C30.9135 6.615 32.0757 3.8502 32.0757 1.0854C32.0757 0.702 32.044 0.3132 31.9753 0C29.3023 0.1026 26.1222 1.8198 24.2047 4.0932C22.6991 5.8428 21.294 8.6076 21.294 11.4102C21.294 11.8314 21.3627 12.2526 21.3943 12.3876C21.5634 12.42 21.8381 12.4578 22.1128 12.4578C24.5111 12.4578 27.5274 10.8162 29.2706 8.6076Z" fill="black"/>
</g>
<defs>
<clipPath id="clip0_155_10991">
<rect width="43" height="54" fill="white"/>
</clipPath>
</defs>
</svg>
