<svg width="42" height="21" viewBox="0 0 42 21" fill="none" xmlns="http://www.w3.org/2000/svg">
<path fill-rule="evenodd" clip-rule="evenodd" d="M13.8591 3.65488H10.4688C6.6872 3.65488 3.6102 6.70732 3.4932 10.3927C3.41416 14.1364 6.88351 17.3225 11.116 17.3225H15.486C16.1524 17.3225 16.7206 17.4382 17.1714 16.9774C17.5635 16.5933 17.4848 16.1715 17.4848 15.6333V5.3441C17.4848 4.92153 17.4065 4.26951 17.8173 4.23052C18.1707 4.17294 18.3277 4.7104 18.563 5.07538L25.8129 16.383C26.2053 16.9583 26.7742 17.5538 27.4201 17.2844C27.8514 17.0732 28.0673 16.6514 28.0673 16.1715V6.01628C28.0673 5.05629 28.0283 4.42256 28.2625 4.32706C28.8509 4.13475 29.125 4.96079 29.4589 5.49795L35.8471 15.7108C36.3565 16.5167 37.0229 17.6687 37.8456 17.2844C38.5317 16.9201 38.5512 16.2291 38.5512 15.4805V1.46669H40.7655V16.1135C40.7655 17.726 40.1194 19.0319 38.5902 19.6076C36.7283 20.2986 35.1219 18.9163 34.0631 17.2844L30.4386 11.5065V16.5551C30.4386 18.0329 29.5369 19.1083 28.1063 19.6076C26.2053 20.2795 24.5784 18.8208 23.5009 17.1315L19.8171 11.3715V16.2482C19.8171 17.2844 19.5622 17.9947 18.8176 18.7051C17.9356 19.6076 16.9556 19.6076 15.6821 19.6076H10.8417C5.00206 19.6076 1.08262 15.4423 1.23888 10.2587C1.33744 5.2486 5.60891 1.33193 10.7431 1.33193H13.8591V3.65488ZM13.8591 6.59166H10.7832C8.54943 6.43861 6.53014 8.2045 6.53014 10.4118C6.53014 12.601 8.43136 14.3858 10.7431 14.3858H13.6436C13.8981 14.3858 14.1139 14.3858 14.271 14.252C14.4086 14.1364 14.5063 13.9632 14.5063 13.7913V5.44064C14.5063 3.80873 14.6633 2.17679 16.0539 1.50488C17.5635 0.737192 19.9926 1.524 21.0711 3.23231L25.1278 9.68231V4.74936C25.1278 3.23231 25.7934 2.02297 27.2045 1.46669C28.9094 0.794502 30.6739 1.69694 31.6136 3.23231L35.6118 9.74064V1.46669H37.8848V14.5014C37.8848 14.559 38.0224 16.5167 37.63 16.709C37.3362 16.8628 37.1986 16.5551 36.5915 15.5569L29.7917 4.94065C29.3603 4.26951 28.8509 3.40526 28.1063 3.69309C27.5774 3.92359 27.4201 4.50001 27.4201 5.07538V15.4805C27.4201 15.9604 27.5381 16.6708 27.1265 16.709C26.5779 16.7854 26.2248 15.9222 26.2248 15.9222L19.1699 4.80694C18.7786 4.17294 18.3082 3.42438 17.583 3.65488C16.9166 3.86604 16.8776 4.61463 16.8776 5.28681V15.6333C16.8776 15.9795 16.9361 16.3246 16.7401 16.5742C16.6033 16.7854 16.0539 16.709 15.6225 16.709H11.155C7.37338 16.6708 4.10034 14.0024 4.13933 10.3736C4.21839 6.84128 7.31381 4.02013 10.9392 4.19206H13.8591V6.59166Z" fill="black"/>
</svg>
