<svg version="1.2" xmlns="http://www.w3.org/2000/svg" viewBox="0 0 1552 565" width="1552" height="565">
	<title>COTY_BIG</title>
	<style>
		.s0 { fill: #000000 } 
	</style>
	<path fill-rule="evenodd" class="s0" d="m499.2 476.3v86.1h-17v-86.1z"/>
	<path class="s0" d="m749.3 524.8h30.4v-14.1h-30.4v-20.3h35.9v-14.1h-52.6v86.1h53.4v-14h-36.7z"/>
	<path class="s0" d="m413.4 498.2c0-6.8 7.3-9.6 13.7-9.6 5.6 0 11 2.1 15.3 5.7l8.9-11.8c-7.4-5.5-16.5-8.4-25.7-8.1-14.7 0-29.3 9-29.3 24.3 0 28 41 22.7 41 40.2-0.1 1.6-0.4 3.1-1.1 4.6-0.7 1.4-1.7 2.7-2.9 3.7-1.2 1.1-2.7 1.9-4.2 2.3-1.5 0.5-3.2 0.7-4.7 0.5-4-0.1-7.9-1-11.5-2.7-3.6-1.7-6.8-4-9.5-6.9l-11.1 10.8c8.6 8.3 20.1 13 32.1 13.2 3.7 0.2 7.4-0.3 11-1.4 3.5-1.2 6.8-3.1 9.6-5.6 2.8-2.4 5.1-5.4 6.7-8.7 1.6-3.4 2.5-7 2.7-10.7 0-29.6-41-25.8-41-39.9"/>
	<path class="s0" d="m678.1 550.2c8 0.2 15.8-2.7 21.7-8.1l10.8 10.6c-9 8-20.7 12.4-32.8 12.2-7.4-0.2-14.6-2.2-21-5.8-6.4-3.6-11.9-8.6-15.9-14.7-4-6.1-6.5-13.1-7.2-20.4-0.7-7.3 0.4-14.6 3.1-21.3 2.8-6.8 7.2-12.8 12.8-17.5 5.6-4.7 12.3-8 19.5-9.6 7.2-1.6 14.7-1.5 21.8 0.4 7.1 1.9 13.7 5.5 19.1 10.4l-11 11.5c-3.7-3.3-8.1-5.6-12.9-6.8-4.8-1.2-9.8-1.3-14.6-0.2-4.8 1.2-9.3 3.4-13 6.6-3.7 3.2-6.6 7.3-8.4 11.8-1.8 4.6-2.4 9.5-1.9 14.4 0.5 4.8 2.3 9.5 5 13.5 2.8 4.1 6.5 7.4 10.9 9.7 4.3 2.3 9.2 3.6 14.1 3.6"/>
	<path class="s0" d="m588.9 531.4v-55.1h16.1v86.1h-11.6l-44.1-55.3v55.3h-16.1v-86.1h11.6z"/>
	<path class="s0" d="m932.3 474.1c-8.2 0-16 3.1-21.8 8.8-5.8 5.7-9.1 13.4-9.2 21.5 0 3.9 0.8 7.8 2.3 11.4 1.6 3.6 3.8 6.9 6.7 9.7 2.8 2.8 6.2 4.9 9.8 6.4 3.7 1.4 7.7 2.2 11.7 2.1h0.5l-16.4 27.4h18.5l20.5-34.2c4.9-7.1 7.7-15.2 8.2-23.7q-0.1-6.1-2.7-11.7c-1.6-3.6-4-6.9-7-9.7-2.9-2.7-6.4-4.8-10.2-6.2-3.8-1.4-7.9-2-11.9-1.8zm9.5 43c-2.9 1.4-6.1 2.1-9.4 2.1-2 0-4-0.5-5.8-1.3-1.9-0.8-3.6-1.9-5-3.4-1.4-1.5-2.4-3.2-3.1-5.1-0.8-1.9-1.1-3.9-1-5.9-0.1-1.9 0.3-3.8 1-5.7 0.7-1.8 1.7-3.4 3.1-4.8 1.3-1.4 3-2.6 4.8-3.3q2.7-1.2 5.7-1.2c2 0 4 0.3 5.8 1 1.9 0.7 3.5 1.8 5 3.2 1.4 1.3 2.6 2.9 3.4 4.7 0.7 1.8 1.2 3.8 1.2 5.7-0.2 5-2 9.8-5.1 13.7"/>
	<path class="s0" d="m1016.4 474c-22.2 0-30.7 20.1-30.7 44.5 0 24.5 8.2 44.6 30.7 44.6 22.4 0 30.6-20.1 30.6-44.6 0-24.5-8.2-44.5-30.6-44.5zm0 74.3c-10.1 0-13.6-13.5-13.6-29.8 0-16.2 3.5-29.7 13.6-29.7 10.1 0 13.5 13.5 13.5 29.7 0 16.3-3.5 29.8-13.5 29.8z"/>
	<path class="s0" d="m1119.4 526.9h14.4v13.5h-14.4v19.8h-16.4v-19.5h-40.4v-9.8l45.4-56.9h11.8zm-35.1 0h18.3v-22.8z"/>
	<path class="s0" d="m827.2 70.3h117v300.9h74.2v-300.9h117v-61.2h-308.2z"/>
	<path class="s0" d="m338 52.9c-37.3-34.6-86.7-53.5-137.8-52.8-116.3 0-200.2 84-200.2 190 0 106.1 85 190 201.2 190 51.2 1 101-17 139.4-50.5l-1.9-2-38.5-40.6-6.3-6.7c-24.7 22.6-57.2 35-90.9 34.7-33-0.3-64.6-13.4-88-36.5-23.4-23.1-36.8-54.4-37.2-87.1-0.4-32.7 12.1-64.3 34.9-88 22.8-23.6 54.1-37.5 87.1-38.7 34.1 0.2 66.7 13.7 90.8 37.5z"/>
	<path class="s0" d="m789.7 190.1c0-105-82.9-190-198-190-115.1 0-198 85-198 190 0 105.1 82.8 190 198 190 115.2 0 198-84.9 198-190zm-74.9 0c-0.7 24-8.5 47.2-22.4 66.7-13.9 19.6-33.4 34.7-55.9 43.4-22.5 8.7-47.1 10.6-70.8 5.5-23.6-5.1-45.2-16.9-62-34.1-16.9-17.1-28.3-38.8-32.7-62.3-4.5-23.6-1.9-47.9 7.5-69.9 9.4-22.1 25.2-40.9 45.3-54.1 20.2-13.2 43.8-20.3 68-20.3 16.4 0.1 32.6 3.5 47.7 9.9 15 6.4 28.7 15.7 40.1 27.3 11.5 11.6 20.5 25.4 26.5 40.5 6 15.1 9 31.2 8.7 47.4z"/>
	<path class="s0" d="m1463.3 9.1h88.7l-150.8 220.1v142.1h-73.9v-141.1l-150.7-221.1h89.7l99.2 150.1z"/>
	<path class="s0" d="m841.4 486.4v15.6l16.2-8.8v67h16.7v-86.2h-11.8z"/>
</svg>