<svg version="1.2" xmlns="http://www.w3.org/2000/svg" viewBox="0 0 1637 351" width="1637" height="351">
	<title>Diageo-svg</title>
	<style>
		.s0 { fill: #000000 } 
	</style>
	<path id="Layer" fill-rule="evenodd" class="s0" d="m620.2 265.5c-1.7 1-3.8 2.1-10.1 4.2-12.3 4.2-33 8.4-54 8.4-21.4 0-43.1-3.9-61.3-10.9-2.4-1-4.5-1.7-5.9-2.4-0.4 1.4-0.8 2.8-1.4 4.9l-32.6 75.6h-61.3l148.5-340.3h28l144.7 340.3h-61.6l-31.2-74.2c-0.4-1.1-1.4-4.2-1.8-5.6zm-619.7 79.8v-339.2h72.5c61.3 0 108.6 13.6 140.5 40.9 37.8 32.3 56.8 75.3 56.8 128.9 0 51.4-18.6 93.4-55.4 126.3-32.2 29.1-80.2 43.1-142.6 43.1zm1459.8-344.8c48.8 0 90.4 17.1 124.8 51.8 34 34.7 51.5 75.6 51.5 123.6 0 98-78.5 174.6-176.2 174.6-97.4 0-176.2-77-176.2-174.6 0-48.3 17.1-90 51.8-124 34.3-34.3 76-51.4 124.3-51.4zm-580.1 53.5c-32.2 0-60.3 11.2-83.4 34.7-24.5 24.5-36.4 53.9-36.4 87.9 0 32.2 11.6 59.8 34.3 82.9 25.2 24.9 52.6 37.5 83.1 37.5 26.2 0 49.7-8.1 70.4-24.9 18.9-15 29.7-33.2 32.2-54.2h-93.9v-53.6h152.7l0.8 10.2c1.4 25.2-1.4 46.2-6 63.3-5.6 20.7-15.1 39.6-29.8 56-15.4 17.9-34.3 31.5-56 41.3-22.5 10.2-45.6 15.5-69.7 15.5-95.7 0-174.2-78.8-174.2-174.4 0-97.7 78.9-175.7 176.6-175.7 57.5 0 106.2 24.1 142.6 72.8l-42.4 36.4c-27-36.8-59.6-55.7-100.9-55.7zm-363.7 165.3c13.4 3.5 26 5.2 39.6 5.2 13.7 0 27-2.1 38.9-5.2l5.3-1.1c-1.1-2.4-2.5-5.2-3.2-7l-42-104.7-42.8 103.7c-0.7 1.7-2.4 5.2-3.5 7.3 1.8 0 5.3 1.1 7.7 1.8zm-457.8-159.7v232.1h15.4c48.3 0 82.7-10.5 103.7-30.4 24.2-22.4 36.4-51.1 36.4-85.8 0-36.4-12.6-65.4-37.8-87.5-21-18.5-54.7-28.4-102.3-28.4zm257.1-53.5h55.7v339.2h-55.7zm816.3 285.7h129.6v53.5h-185.3v-339.2h185v53.6h-129.3v74.2h118.8v53.2h-118.8c0 0 0 104.7 0 104.7zm328.3-237.7c-33 0-61.7 11.5-84.8 35-23.5 23.8-35.4 52.8-35.4 86.4 0 66.5 53.3 121.5 120.2 121.5 33.3 0 61.6-11.9 85.1-35.4 23.5-23.8 35.4-52.5 35.4-86.1 0-33.9-11.6-63-35.4-86.1-23.8-23.4-52.2-35.3-85.1-35.3z"/>
</svg>