<svg width="138" height="58" viewBox="0 0 138 58" fill="none" xmlns="http://www.w3.org/2000/svg">
<path d="M119.267 25.0209C116.931 25.5562 110.784 25.8643 110.784 25.8643L110.005 28.2972C110.005 28.2972 113.071 28.0377 115.309 28.2648C115.309 28.2648 116.039 28.1837 116.12 29.092C116.153 29.9354 116.055 30.8437 116.055 30.8437C116.055 30.8437 116.007 31.3951 115.228 31.5249C114.385 31.6709 108.611 31.8817 108.611 31.8817L107.67 35.0445C107.67 35.0445 107.329 35.7744 108.108 35.5635C108.838 35.3689 114.887 34.2335 115.682 34.3957C116.526 34.6066 117.466 35.7257 117.191 36.7637C116.866 38.0289 110.833 41.8891 107.151 41.6133C107.151 41.6133 105.221 41.7431 103.583 39.1318C102.058 36.6502 104.166 31.9304 104.166 31.9304C104.166 31.9304 103.209 29.7245 103.907 28.9947C103.907 28.9947 104.329 28.6216 105.529 28.5243L107.005 25.4588C107.005 25.4588 105.318 25.5724 104.312 24.3397C103.372 23.1557 103.307 22.6205 104.02 22.2961C104.783 21.923 111.806 20.6417 116.639 20.8039C116.639 20.8039 118.326 20.6417 119.769 23.5612C119.753 23.5612 120.467 24.7452 119.267 25.0209ZM101.085 36.7962C100.468 38.2559 98.8302 39.813 96.8028 38.8398C94.7916 37.8667 91.5964 31.3303 91.5964 31.3303C91.5964 31.3303 90.38 28.8974 90.1529 28.946C90.1529 28.946 89.8934 28.4756 89.7312 31.1356C89.569 33.7956 89.7636 38.9696 88.7094 39.7805C87.7038 40.5915 86.4873 40.2671 85.8548 39.3102C85.2871 38.3695 85.0438 36.1312 85.352 32.2061C85.725 28.281 86.6333 24.0964 87.8011 22.7827C88.9689 21.4851 89.9096 22.4258 90.2664 22.7664C90.2664 22.7664 91.8235 24.1775 94.4024 28.3297L94.8565 29.092C94.8565 29.092 97.1921 33.0171 97.4354 33.0009C97.4354 33.0009 97.63 33.1793 97.7922 33.0495C98.0355 32.9846 97.9382 31.7195 97.9382 31.7195C97.9382 31.7195 97.4516 27.4538 95.3269 20.22C95.3269 20.22 95.0025 19.3117 95.2295 18.4683C95.4404 17.6087 96.3 18.0142 96.3 18.0142C96.3 18.0142 99.6088 19.6685 101.198 25.0534C102.772 30.4869 101.701 35.3364 101.085 36.7962ZM84.8329 22.9611C84.5572 23.5125 84.395 24.3073 83.0002 24.5181C83.0002 24.5181 69.6516 25.4264 69.0191 26.3671C69.0191 26.3671 68.5487 26.9186 69.2786 27.0808C70.0084 27.2268 73.0252 27.6322 74.485 27.7133C76.042 27.7296 81.2971 27.7782 83.1786 30.13C83.1786 30.13 84.2977 31.2492 84.249 33.7794C84.2004 36.3745 83.7462 37.2828 82.7406 38.2235C81.6864 39.0993 72.636 43.1542 66.797 36.9259C66.797 36.9259 64.1046 33.9254 67.7215 31.6546C67.7215 31.6546 70.3328 30.0814 76.9666 31.9304C76.9666 31.9304 78.9778 32.6602 78.8804 33.3901C78.7669 34.1686 77.2261 34.9958 74.9878 34.9472C72.8144 34.8823 71.2249 33.8443 71.5331 34.0065C71.825 34.12 69.1975 32.7413 68.3865 33.6821C67.5755 34.5417 67.7702 35.0769 68.5649 35.6122C70.5923 36.7637 78.4263 36.3583 80.7619 33.7632C80.7619 33.7632 81.6864 32.7089 80.2753 31.8493C78.8642 31.0383 74.8256 30.5517 73.2523 30.4706C71.7439 30.3895 66.132 30.4869 65.3211 28.9947C65.3211 28.9947 64.5101 27.9891 65.4021 25.1345C66.3429 22.1501 72.8793 20.9985 75.7014 20.739C75.7014 20.739 83.4705 20.4633 84.8978 22.0528C84.8816 22.0528 85.0762 22.4258 84.8329 22.9611ZM62.7746 40.4618C61.8339 41.1592 59.8389 40.851 59.2712 40.0725C58.7035 39.3751 58.5089 36.6015 58.6225 32.2548C58.736 27.8593 58.8333 22.4096 59.774 21.55C60.7796 20.6741 61.396 21.4364 61.7852 22.0366C62.2069 22.6205 62.7097 23.2692 62.8233 24.6479C62.9206 26.0265 63.245 33.2604 63.245 33.2604C63.245 33.2604 63.6667 39.7805 62.7746 40.4618ZM64.802 17.1383C62.061 18.0466 60.1795 17.7384 58.59 17.0572C57.8926 18.2737 57.4871 18.6467 56.9519 18.7278C56.1733 18.8089 55.4759 17.56 55.3461 17.1545C55.2164 16.8464 54.8433 16.3273 55.2975 15.0947C53.7404 13.6998 53.6269 11.8184 53.8864 10.5533C54.2757 9.09351 56.9032 3.54649 64.8993 2.89772C64.8993 2.89772 68.8082 2.60577 69.4732 4.69807H69.5867C69.5867 4.69807 73.3821 4.71429 73.301 8.08791C73.2523 11.4778 69.0839 15.6948 64.802 17.1383ZM57.3411 9.62875C56.5302 10.9263 56.4977 11.7048 56.8708 12.2401C57.7953 10.829 59.4821 8.60693 61.9636 6.92012C60.0498 7.08231 58.444 7.9095 57.3411 9.62875ZM68.3865 7.45536C65.8725 7.8284 61.9799 11.202 60.1309 13.9593C62.9692 14.4783 67.981 14.2837 70.2031 9.75851C70.1869 9.75851 71.2573 6.95256 68.3865 7.45536ZM136.638 33.5847C135.129 36.2123 130.896 41.6944 125.252 40.4131C123.386 44.9383 121.829 49.4959 120.937 56.3405C120.937 56.3405 120.743 57.6705 119.64 57.2001C118.553 56.8109 116.736 54.9943 116.38 52.4803C115.99 49.1716 117.466 43.5759 120.467 37.1692C119.591 35.7419 118.991 33.6983 119.51 30.795C119.51 30.795 120.272 25.4102 125.673 20.5444C125.673 20.5444 126.322 19.9767 126.695 20.1551C127.117 20.3335 126.922 22.0852 126.582 22.9286C126.241 23.772 123.824 27.9566 123.824 27.9566C123.824 27.9566 122.316 30.7788 122.738 33.0009C125.576 28.6378 132.031 19.8307 136.037 22.6042C137.384 23.5612 138 25.6535 138 27.908C137.984 29.903 137.513 32.0115 136.638 33.5847ZM135.47 26.6753C135.47 26.6753 135.243 24.9398 133.556 26.8537C132.096 28.4594 129.469 31.4925 127.344 35.5959C129.566 35.3527 131.707 34.1362 132.356 33.5199C133.41 32.5792 135.859 30.0489 135.47 26.6753ZM56.7248 28.8811C56.4166 32.8062 54.9082 39.4075 44.2197 42.6676C37.1642 44.7923 30.4981 43.7705 26.8649 42.846C26.7838 44.2895 26.6217 44.9059 26.3946 45.1492C26.0864 45.4573 23.7833 46.7873 22.5182 44.9059C21.9505 44.0138 21.6585 42.3919 21.4963 40.9483C13.3218 37.1854 9.55889 31.7682 9.41291 31.5249C9.2345 31.3465 7.36927 29.4002 9.2345 27.0159C10.9862 24.8587 16.7116 22.7016 21.8694 21.8257C22.0478 17.414 22.5668 14.0891 23.1831 12.5645C23.9292 10.7965 24.87 12.386 25.6809 13.5863C26.3621 14.4783 26.7676 18.3223 26.8001 21.3878C30.1737 21.2256 32.1687 21.4689 35.9316 22.1501C40.8298 23.0422 44.1061 25.5399 43.8142 28.3783C43.6033 31.1681 41.0407 32.3196 40.0675 32.4007C39.0457 32.4818 37.4562 31.752 37.4562 31.752C36.3695 31.2329 37.3751 30.7788 38.6889 30.2111C40.1162 29.5137 39.7918 28.8 39.7918 28.8C39.2565 27.243 32.8985 26.1563 26.573 26.1563C26.5406 29.6434 26.719 35.4338 26.8001 38.8074C31.228 39.6508 34.5367 39.4886 34.5367 39.4886C34.5367 39.4886 50.6912 39.0345 51.1778 28.7189C51.6806 18.3872 35.0719 8.47718 22.7939 5.33062C10.532 2.11919 3.59016 4.35746 2.99004 4.66563C2.34127 4.99002 2.94139 5.08733 2.94139 5.08733C2.94139 5.08733 3.60638 5.18465 4.75796 5.57391C5.97441 5.96318 5.03368 6.59573 5.03368 6.59573C2.94139 7.26073 0.589579 6.83902 0.135437 5.88208C-0.318705 4.92514 0.443605 4.06551 1.31945 2.83284C2.1953 1.53529 3.15224 1.58395 3.15224 1.58395C18.3173 -3.67112 36.7912 5.83342 36.7912 5.83342C54.0973 14.6081 57.0492 24.8912 56.7248 28.8811ZM10.9538 28.3459C9.2345 29.1893 10.4185 30.4058 10.4185 30.4058C13.6462 33.8767 17.6199 36.0501 21.399 37.3963C21.8369 31.4114 21.7721 29.3028 21.8207 26.286C15.9169 26.6915 12.5108 27.6322 10.9538 28.3459Z" fill="black"/>
</svg>
