<?xml version="1.0" encoding="UTF-8" standalone="no"?>
<!-- Created with Inkscape (http://www.inkscape.org/) -->
<svg
   xmlns:svg="http://www.w3.org/2000/svg"
   xmlns="http://www.w3.org/2000/svg"
   version="1.0"
   width="220.6875"
   height="56.004116"
   id="svg2"
   xml:space="preserve"><defs
     id="defs5"><clipPath
       id="clipPath19"><path
         d="M 0,0 L 201,0 L 201,202 L 0,202 L 0,0 z"
         id="path21" /></clipPath><clipPath
       id="clipPath61"><path
         d="M 0.06,0 L 201,0 L 201,201 L 0.06,201 L 0.06,0 z"
         id="path63" /></clipPath></defs><g
     transform="matrix(1.25,0,0,-1.25,-35.999121,202.00989)"
     id="g11"><g
       id="g13" /><g
       id="g3243"><path
         d="M 28.799297,126.54091 L 45.259297,161.60791 L 64.870297,161.60591 L 61.575297,154.59991 L 50.562297,154.59991 L 47.533297,148.15091 L 57.944297,148.15091 L 54.656297,141.13491 L 44.237297,141.13291 L 40.686297,133.55491 L 51.735297,133.55591 L 48.447297,126.54191 L 28.799297,126.54091"
         id="path35"
         style="fill:#000000;fill-opacity:1;fill-rule:nonzero;stroke:none" /><path
         d="M 112.41231,149.99691 C 114.5743,152.80191 116.8733,153.14991 119.3833,153.13591 L 115.7913,145.58991 C 115.0393,145.60691 114.9063,145.58391 114.1373,145.58391 C 112.5793,145.58091 110.4643,144.33891 109.3163,142.18491 L 101.9483,126.54391 L 94.420297,126.54391 L 106.71231,152.73091 L 113.7253,152.73091 L 112.41231,149.99691"
         id="path37"
         style="fill:#000000;fill-opacity:1;fill-rule:nonzero;stroke:none" /><path
         d="M 143.9343,155.64491 L 146.0853,160.22991 L 153.6303,160.23391 L 151.4583,155.63891 L 143.9343,155.64491 z M 130.2703,126.54191 L 142.5693,152.72991 L 150.0873,152.72891 L 137.7973,126.54091 L 130.2703,126.54191"
         id="path39"
         style="fill:#000000;fill-opacity:1;fill-rule:nonzero;stroke:none" /><path
         d="M 152.2753,152.73991 L 169.4833,152.74191 L 166.7333,146.91791 L 152.0253,132.43291 L 160.6843,132.43291 L 157.8953,126.50692 L 140.0533,126.51591 L 142.9043,132.60392 L 157.4583,146.88291 L 149.5253,146.87791 L 152.2753,152.73991"
         id="path41"
         style="fill:#000000;fill-opacity:1;fill-rule:nonzero;stroke:none" /><path
         d="M 92.459297,143.16091 L 93.540297,145.46691 C 94.129297,146.62291 94.555297,148.59991 92.713307,148.62891 C 90.592307,148.65691 89.509307,146.53391 88.832297,145.05991 L 87.947297,143.16591 L 92.459297,143.16091 z M 85.717307,138.41591 L 83.566297,133.83491 C 82.883307,132.38691 82.933297,130.96191 84.558297,130.95991 C 86.935297,130.95591 87.508307,132.70492 89.019307,135.61091 L 96.412307,135.61091 C 92.488297,127.66691 89.553297,125.69591 82.055297,125.64392 C 75.779297,125.60091 73.989297,128.75091 76.930297,135.58391 L 81.037307,144.27891 C 84.205297,151.00991 88.864297,153.12591 94.709297,153.14691 C 100.32731,153.15691 102.14631,148.67591 100.0013,143.99391 L 97.496297,138.41791 L 85.717307,138.41591"
         id="path43"
         style="fill:#000000;fill-opacity:1;fill-rule:nonzero;stroke:none" /><path
         d="M 178.7973,143.16091 L 179.8713,145.46691 C 180.4643,146.62291 180.8883,148.59991 179.0523,148.62891 C 176.9303,148.65691 175.8533,146.53391 175.1763,145.05991 L 174.2923,143.16591 L 178.7973,143.16091 z M 172.0643,138.41591 L 169.9183,133.83491 C 169.2333,132.38691 169.2803,130.96191 170.9123,130.95991 C 173.2783,130.95591 173.8503,132.70492 175.3633,135.61091 L 182.7643,135.61091 C 178.8283,127.66691 175.8913,125.69591 168.4073,125.64392 C 162.1203,125.60091 160.3323,128.75091 163.2683,135.58391 L 167.3913,144.27891 C 170.5553,151.00991 175.2113,153.12591 181.0453,153.14691 C 186.6743,153.15691 188.4883,148.67591 186.3483,143.99391 L 183.8433,138.41791 L 172.0643,138.41591"
         id="path45"
         style="fill:#000000;fill-opacity:1;fill-rule:nonzero;stroke:none" /><path
         d="M 120.8143,137.14791 C 119.7913,134.79491 118.7383,132.76591 121.0023,132.83291 C 122.3873,132.88092 123.5233,134.33191 124.8683,137.02091 L 127.8243,143.36691 C 129.1303,146.26191 129.2063,147.51291 127.6493,147.50491 C 126.1623,147.48391 124.9933,146.03291 123.6303,143.31291 L 120.8143,137.14791 z M 115.3133,127.29291 C 111.8453,127.33491 110.38131,130.33691 113.8503,138.07191 L 117.2543,145.29891 C 120.9213,152.20491 124.9263,153.22291 128.0313,153.20691 C 129.9873,153.20091 131.6583,152.61491 131.7083,149.99691 L 132.9733,152.73391 L 139.9863,152.73091 L 127.4483,126.02791 C 124.5803,119.90091 122.2013,116.86491 113.9353,116.80491 C 108.2613,116.76791 105.6803,120.23991 107.9713,125.09591 L 114.9373,125.09591 C 114.0963,122.67492 114.2733,121.97591 115.9643,121.94491 C 117.8613,121.91292 118.9043,123.08191 119.7363,124.76191 L 122.1713,129.80591 C 120.0223,128.13192 117.5893,127.04892 115.3133,127.29291"
         id="path47"
         style="fill:#000000;fill-opacity:1;fill-rule:nonzero;stroke:none" /><path
         d="M 69.124297,150.16491 C 70.778297,152.16891 73.360297,153.26291 75.726297,153.24991 C 80.028297,153.22491 81.064297,149.58691 79.402297,146.02891 L 70.383297,126.54391 L 62.942297,126.54191 L 71.451297,144.94791 C 71.922297,146.16191 72.516297,147.90791 70.620297,147.88891 C 69.280297,147.87991 67.775297,146.27991 67.141297,144.92291 L 58.512297,126.54091 L 50.982297,126.54091 L 63.270297,152.73091 L 70.287297,152.73091 L 69.124297,150.16491"
         id="path49"
         style="fill:#000000;fill-opacity:1;fill-rule:nonzero;stroke:none" /><path
         d="M 198.3873,149.99591 C 200.5533,152.79591 202.1913,152.78791 205.3493,153.13291 L 201.7603,145.58491 C 201.0093,145.60591 200.8743,145.58091 200.1263,145.58091 C 198.5533,145.57491 196.4473,144.33191 195.2743,142.18191 L 187.9233,126.54091 L 180.3903,126.54091 L 192.6833,152.72591 L 199.7033,152.72591 L 198.3873,149.99591"
         id="path51"
         style="fill:#000000;fill-opacity:1;fill-rule:nonzero;stroke:none" /></g></g></svg>