<svg xmlns="http://www.w3.org/2000/svg" fill="none" viewBox="0 0 308.1953125 307.128" style="max-height: 500px" width="308.1953125" height="307.128">
<g filter="url(#filter0_dddd_184_15252)">
<rect fill="url(#paint0_linear_184_15252)" rx="6" height="236.6" width="182" y="13" x="83"/>
<rect style="mix-blend-mode:multiply" stroke-opacity="0.06" stroke="black" rx="6.5" height="237.6" width="183" y="12.5" x="82.5"/>
</g>
<rect fill="#EBEBEB" rx="2" height="4.85333" width="66.7333" y="31.2002" x="101.2"/>
<rect fill="#EBEBEB" rx="2" height="4.85333" width="43.68" y="39.6934" x="101.2"/>
<rect fill="#EBEBEB" rx="2" height="4.85333" width="43.68" y="80.3401" x="101.2"/>
<rect fill="#EBEBEB" rx="2" height="4.85333" width="43.68" y="183.473" x="101.2"/>
<rect fill="#EBEBEB" rx="2" height="4.85333" width="112.84" y="191.967" x="101.2"/>
<rect fill="#EBEBEB" rx="2" height="4.85333" width="75.8333" y="200.46" x="101.2"/>
<rect fill="#EBEBEB" rx="2" height="4.85333" width="134.073" y="208.953" x="101.2"/>
<rect fill="#EBEBEB" rx="2" height="4.85333" width="51.5667" y="217.447" x="101.2"/>
<rect fill="#EBEBEB" rx="1.21333" height="2.42667" width="11.5267" y="149.5" x="101.2"/>
<rect fill="#EBEBEB" rx="2" height="4.85333" width="35.7933" y="80.3401" x="187.953"/>
<rect fill="#EBEBEB" rx="2" height="44.8933" width="18.2" y="100.967" x="101.2"/>
<rect fill="#EBEBEB" rx="2" height="28.5133" width="18.2" y="117.347" x="123.04"/>
<rect fill="#EBEBEB" rx="2" height="14.56" width="18.2" y="131.3" x="144.88"/>
<path fill="#EBEBEB" d="M211.613 98.5401C207.488 98.5401 203.435 99.6186 199.855 101.669C196.276 103.719 193.294 106.669 191.207 110.227C189.119 113.785 187.998 117.826 187.955 121.951C187.911 126.076 188.947 130.141 190.959 133.742C192.971 137.343 195.89 140.355 199.426 142.48C202.962 144.605 206.991 145.768 211.116 145.855C215.24 145.942 219.315 144.949 222.937 142.974C226.559 141 229.602 138.113 231.764 134.6L211.613 122.2L211.613 98.5401Z"/>
<g filter="url(#filter1_dddd_184_15252)">
<rect fill="white" rx="6" height="27" width="110.833" y="57" x="6"/>
<path fill="#878787" d="M102.468 71.5547C103.175 71.4212 103.526 71.3545 103.523 71.3545C103.624 71.9404 104 72.2334 104.651 72.2334C104.687 72.2334 104.726 72.2318 104.768 72.2285C104.81 72.222 104.856 72.2155 104.905 72.209C105.002 72.196 105.12 72.1667 105.256 72.1211C105.393 72.0788 105.505 72.0055 105.593 71.9014C105.681 71.8005 105.725 71.6751 105.725 71.5254C105.725 71.3984 105.691 71.2926 105.623 71.208C105.554 71.1234 105.46 71.0599 105.339 71.0176C105.216 70.972 105.077 70.9378 104.924 70.915C104.846 70.902 104.766 70.8906 104.685 70.8809C104.604 70.8678 104.521 70.8564 104.436 70.8467C104.264 70.8271 104.093 70.8027 103.923 70.7734C103.748 70.7441 103.585 70.6986 103.435 70.6367C103.285 70.5749 103.147 70.4935 103.02 70.3926C102.903 70.2982 102.808 70.1631 102.737 69.9873C102.668 69.818 102.634 69.6178 102.634 69.3867C102.634 68.9603 102.821 68.6038 103.196 68.3174C103.573 68.0277 104.032 67.8828 104.573 67.8828C104.849 67.8828 105.108 67.9121 105.349 67.9707C105.58 68.026 105.797 68.1172 105.999 68.2441C106.191 68.3646 106.352 68.529 106.482 68.7373C106.612 68.9456 106.694 69.1849 106.726 69.4551C106.664 69.4648 106.545 69.4876 106.37 69.5234C106.197 69.556 105.963 69.5999 105.667 69.6553C105.601 69.0824 105.248 68.7959 104.607 68.7959C104.35 68.7959 104.138 68.8545 103.972 68.9717C103.806 69.0889 103.723 69.2272 103.723 69.3867C103.723 69.5755 103.805 69.7122 103.967 69.7969C104.127 69.8783 104.374 69.9368 104.709 69.9727C104.963 69.9954 105.185 70.0247 105.374 70.0605C105.559 70.0964 105.75 70.1501 105.945 70.2217C106.14 70.2965 106.298 70.3861 106.418 70.4902C106.539 70.5944 106.638 70.736 106.716 70.915C106.794 71.0908 106.833 71.2926 106.833 71.5205C106.833 72.0316 106.633 72.4287 106.233 72.7119C105.833 72.9951 105.318 73.1367 104.69 73.1367C104.058 73.1367 103.556 72.9902 103.181 72.6973C102.807 72.4043 102.582 72.0202 102.507 71.5449L102.468 71.5547Z"/>
<path fill="#878787" d="M97.2241 67.9756H98.2007L98.3032 68.5225C98.3976 68.3532 98.5685 68.2035 98.8159 68.0732C99.0666 67.9398 99.34 67.873 99.6362 67.873C100.349 67.8796 100.862 68.0765 101.174 68.4639C101.487 68.8545 101.643 69.4616 101.643 70.2852V73.0342H100.574V70.2852C100.574 69.7708 100.483 69.3932 100.3 69.1523C100.121 68.9147 99.8332 68.7959 99.436 68.7959C98.6841 68.7959 98.3081 69.2923 98.3081 70.2852V73.0342H97.229L97.2241 67.9756Z"/>
<path fill="#878787" d="M91.5696 70.5049C91.5696 69.7171 91.7795 69.0807 92.1995 68.5957C92.6194 68.1139 93.1923 67.873 93.9182 67.873C94.6344 67.873 95.2056 68.1156 95.6321 68.6006C96.0553 69.0824 96.2668 69.7171 96.2668 70.5049C96.2668 71.2926 96.0569 71.9274 95.637 72.4092C95.217 72.891 94.6474 73.1318 93.928 73.1318C93.2021 73.1318 92.6292 72.891 92.2092 72.4092C91.7893 71.9274 91.5793 71.2926 91.5793 70.5049H91.5696ZM92.634 70.5098C92.634 71.0599 92.748 71.4831 92.9758 71.7793C93.2069 72.0788 93.5194 72.2285 93.9133 72.2285C94.3072 72.2285 94.6197 72.0788 94.8508 71.7793C95.0819 71.4798 95.1975 71.0566 95.1975 70.5098C95.1975 69.9694 95.0819 69.5495 94.8508 69.25C94.6197 68.9505 94.3088 68.8008 93.9182 68.8008C93.5211 68.8008 93.2086 68.9489 92.9807 69.2451C92.7528 69.5413 92.6389 69.9613 92.6389 70.5049L92.634 70.5098Z"/>
<path fill="#878787" d="M89.4062 65.9932H90.6221V67.2041H89.4062V65.9932ZM89.4746 67.9756H90.5537V73.0342H89.4746V67.9756Z"/>
<path fill="#878787" d="M85.4314 67.9707H86.3005V66.5107H87.3796V67.9707H88.4294V68.791H87.3796V71.6572C87.3796 71.859 87.4138 71.9958 87.4822 72.0674C87.5505 72.1423 87.6726 72.1797 87.8484 72.1797C87.8744 72.1797 87.9054 72.1797 87.9412 72.1797C87.9802 72.1764 88.0274 72.1732 88.0828 72.1699C88.1381 72.1667 88.1853 72.165 88.2244 72.165C88.2667 72.1618 88.3025 72.1602 88.3318 72.1602V73.0293L87.6873 73.0684H87.5603C87.1046 73.0684 86.7807 72.9479 86.5886 72.707C86.3998 72.4694 86.3054 72.0983 86.3054 71.5938V68.7959H85.4363L85.4314 67.9707Z"/>
<path fill="#878787" d="M80.5288 71.5547C81.2352 71.4212 81.5868 71.3545 81.5835 71.3545C81.6844 71.9404 82.0604 72.2334 82.7114 72.2334C82.7472 72.2334 82.7863 72.2318 82.8286 72.2285C82.8709 72.222 82.9165 72.2155 82.9653 72.209C83.063 72.196 83.1802 72.1667 83.3169 72.1211C83.4536 72.0788 83.5659 72.0055 83.6538 71.9014C83.7417 71.8005 83.7856 71.6751 83.7856 71.5254C83.7856 71.3984 83.7515 71.2926 83.6831 71.208C83.6147 71.1234 83.5203 71.0599 83.3999 71.0176C83.2762 70.972 83.1379 70.9378 82.9849 70.915C82.9067 70.902 82.827 70.8906 82.7456 70.8809C82.6642 70.8678 82.5812 70.8564 82.4966 70.8467C82.3241 70.8271 82.1532 70.8027 81.9839 70.7734C81.8081 70.7441 81.6453 70.6986 81.4956 70.6367C81.3459 70.5749 81.2075 70.4935 81.0806 70.3926C80.9634 70.2982 80.869 70.1631 80.7974 69.9873C80.729 69.818 80.6948 69.6178 80.6948 69.3867C80.6948 68.9603 80.882 68.6038 81.2563 68.3174C81.634 68.0277 82.0929 67.8828 82.6333 67.8828C82.91 67.8828 83.1688 67.9121 83.4097 67.9707C83.6408 68.026 83.8573 68.1172 84.0591 68.2441C84.2511 68.3646 84.4123 68.529 84.5425 68.7373C84.6727 68.9456 84.7541 69.1849 84.7866 69.4551C84.7248 69.4648 84.606 69.4876 84.4302 69.5234C84.2576 69.556 84.0233 69.5999 83.7271 69.6553C83.6619 69.0824 83.3088 68.7959 82.6675 68.7959C82.4103 68.7959 82.1987 68.8545 82.0327 68.9717C81.8667 69.0889 81.7837 69.2272 81.7837 69.3867C81.7837 69.5755 81.8651 69.7122 82.0278 69.7969C82.1873 69.8783 82.4347 69.9368 82.77 69.9727C83.0239 69.9954 83.2453 70.0247 83.4341 70.0605C83.6196 70.0964 83.8101 70.1501 84.0054 70.2217C84.2007 70.2965 84.3586 70.3861 84.479 70.4902C84.5994 70.5944 84.6987 70.736 84.7769 70.915C84.855 71.0908 84.894 71.2926 84.894 71.5205C84.894 72.0316 84.6938 72.4287 84.2935 72.7119C83.8931 72.9951 83.3787 73.1367 82.7505 73.1367C82.119 73.1367 81.616 72.9902 81.2417 72.6973C80.8674 72.4043 80.6427 72.0202 80.5679 71.5449L80.5288 71.5547Z"/>
<path fill="#878787" d="M75.314 70.5195C75.314 69.735 75.5272 69.1003 75.9536 68.6152C76.38 68.1302 76.9448 67.8877 77.6479 67.8877C78.3511 67.8877 78.9077 68.109 79.3179 68.5518C79.728 68.9977 79.9331 69.5999 79.9331 70.3584C79.9331 70.4626 79.9315 70.5553 79.9282 70.6367C79.925 70.7148 79.9201 70.7816 79.9136 70.8369H76.4419C76.4517 71.221 76.5737 71.5498 76.8081 71.8232C77.0425 72.0967 77.3387 72.2334 77.6968 72.2334C77.9832 72.2334 78.2453 72.1569 78.4829 72.0039C78.714 71.8542 78.8914 71.6149 79.0151 71.2861C79.0542 71.2959 79.1551 71.3252 79.3179 71.374C79.4839 71.4229 79.7134 71.4896 80.0063 71.5742C79.9412 71.7728 79.8517 71.9583 79.7378 72.1309C79.6174 72.3099 79.4692 72.4759 79.2935 72.6289C79.1177 72.7819 78.8898 72.9056 78.6099 73C78.3397 73.0911 78.0386 73.1367 77.7065 73.1367C77.0067 73.1367 76.4354 72.8926 75.9927 72.4043C75.55 71.9193 75.3286 71.2861 75.3286 70.5049L75.314 70.5195ZM78.771 70.0215C78.7547 69.6341 78.6522 69.333 78.4634 69.1182C78.2713 68.9033 77.9963 68.7959 77.6382 68.7959C77.2964 68.7959 77.0229 68.918 76.8179 69.1621C76.6095 69.4095 76.4989 69.6992 76.4858 70.0312L78.771 70.0215Z"/>
<path fill="#878787" d="M69.9426 67.9805H71.0217V70.7393C71.0217 71.2536 71.1129 71.6296 71.2952 71.8672C71.4775 72.1048 71.7655 72.2253 72.1594 72.2285C72.5403 72.2285 72.8235 72.1064 73.009 71.8623C73.1946 71.6182 73.2874 71.2438 73.2874 70.7393V67.9805H74.3665V73.0391H73.3948L73.2874 72.4971C73.1897 72.6598 73.0139 72.8063 72.76 72.9365C72.5094 73.0667 72.2245 73.1318 71.9055 73.1318C71.2154 73.1318 70.7157 72.9382 70.4065 72.5508C70.1005 72.1667 69.9475 71.5612 69.9475 70.7344L69.9426 67.9805Z"/>
<path fill="#878787" d="M63.0186 69.5088C63.0186 68.8024 63.1292 68.179 63.3506 67.6387C63.5687 67.1016 63.9056 66.6768 64.3613 66.3643C64.8138 66.0518 65.3558 65.8955 65.9873 65.8955C66.6253 65.8955 67.1722 66.0518 67.6279 66.3643C68.0804 66.6768 68.4173 67.1016 68.6387 67.6387C68.86 68.179 68.9707 68.804 68.9707 69.5137C68.9707 70.5977 68.7201 71.4652 68.2188 72.1162L69.0293 72.9023L68.4385 73.4834L67.6279 72.6729C67.1852 72.9788 66.6432 73.1318 66.002 73.1318C65.3704 73.1318 64.8285 72.9756 64.376 72.6631C63.9202 72.3506 63.5833 71.9258 63.3652 71.3887C63.1439 70.8483 63.0332 70.2233 63.0332 69.5137L63.0186 69.5088ZM64.1855 69.5186C64.1855 70.3779 64.3369 71.0387 64.6396 71.501C64.9424 71.9632 65.3916 72.1943 65.9873 72.1943C66.3258 72.1943 66.6204 72.1113 66.8711 71.9453C66.7865 71.8737 66.5179 71.61 66.0654 71.1543L66.6562 70.5732L67.4229 71.3447C67.6768 70.8955 67.8037 70.2852 67.8037 69.5137C67.8037 68.6576 67.6507 67.9984 67.3447 67.5361C67.0355 67.0706 66.5814 66.8379 65.9824 66.8379C65.3867 66.8379 64.9375 67.069 64.6348 67.5312C64.332 67.9967 64.1807 68.6559 64.1807 69.5088L64.1855 69.5186Z"/>
<path fill="#878787" d="M55.1616 70.5098C55.1616 69.735 55.37 69.1019 55.7866 68.6104C56.2 68.1221 56.7371 67.8779 57.3979 67.8779C57.7137 67.8779 58.0067 67.9561 58.2769 68.1123C58.5438 68.2686 58.7261 68.4411 58.8237 68.6299L58.9214 67.9805H59.9126V72.8291C59.9126 73.5583 59.6978 74.1198 59.2681 74.5137C58.8416 74.9076 58.2785 75.1045 57.5786 75.1045C57.0057 75.1045 56.5239 74.9873 56.1333 74.7529C55.7427 74.5186 55.492 74.1947 55.3813 73.7812L56.4409 73.4883C56.493 73.6901 56.6281 73.8577 56.8462 73.9912C57.0578 74.1214 57.3035 74.1865 57.5835 74.1865C57.9904 74.1865 58.3013 74.0612 58.5161 73.8105C58.731 73.5632 58.8384 73.2311 58.8384 72.8145V72.4336C58.7375 72.6224 58.547 72.7852 58.2671 72.9219C57.9871 73.0586 57.7023 73.127 57.4126 73.127C56.7713 73.127 56.2391 72.8828 55.8159 72.3945C55.3927 71.9095 55.1812 71.2796 55.1812 70.5049L55.1616 70.5098ZM56.2407 70.5146C56.2407 71.0648 56.3579 71.488 56.5923 71.7842C56.8267 72.0837 57.1473 72.2334 57.5542 72.2334C57.9481 72.2334 58.2557 72.0837 58.4771 71.7842C58.6984 71.4847 58.8091 71.0599 58.8091 70.5098C58.8091 69.9629 58.7 69.5413 58.4819 69.2451C58.2638 68.9489 57.9562 68.8008 57.5591 68.8008C57.1554 68.8008 56.8364 68.9505 56.6021 69.25C56.3677 69.5495 56.2505 69.9694 56.2505 70.5098L56.2407 70.5146Z"/>
<path fill="#878787" d="M49.8979 67.9756H50.8745L50.9771 68.5225C51.0715 68.3532 51.2424 68.2035 51.4897 68.0732C51.7404 67.9398 52.0138 67.873 52.3101 67.873C53.0229 67.8796 53.5356 68.0765 53.8481 68.4639C54.1606 68.8545 54.3169 69.4616 54.3169 70.2852V73.0342H53.2476V70.2852C53.2476 69.7708 53.1564 69.3932 52.9741 69.1523C52.7951 68.9147 52.507 68.7959 52.1099 68.7959C51.3579 68.7959 50.9819 69.2923 50.9819 70.2852V73.0342H49.9028L49.8979 67.9756Z"/>
<path fill="#878787" d="M47.427 65.9932H48.6428V67.2041H47.427V65.9932ZM47.4954 67.9756H48.5745V73.0342H47.4954V67.9756Z"/>
<path fill="#878787" d="M41.8311 67.9756H42.8076L42.9102 68.5225C43.0046 68.3532 43.1755 68.2035 43.4229 68.0732C43.6735 67.9398 43.9469 67.873 44.2432 67.873C44.9561 67.8796 45.4688 68.0765 45.7812 68.4639C46.0938 68.8545 46.25 69.4616 46.25 70.2852V73.0342H45.1807V70.2852C45.1807 69.7708 45.0895 69.3932 44.9072 69.1523C44.7282 68.9147 44.4401 68.7959 44.043 68.7959C43.291 68.7959 42.915 69.2923 42.915 70.2852V73.0342H41.8359L41.8311 67.9756Z"/>
<path fill="#878787" d="M36.1228 70.5195C36.1228 69.735 36.336 69.1003 36.7625 68.6152C37.1889 68.1302 37.7537 67.8877 38.4568 67.8877C39.1599 67.8877 39.7166 68.109 40.1267 68.5518C40.5369 68.9977 40.7419 69.5999 40.7419 70.3584C40.7419 70.4626 40.7403 70.5553 40.7371 70.6367C40.7338 70.7148 40.7289 70.7816 40.7224 70.8369H37.2507C37.2605 71.221 37.3826 71.5498 37.6169 71.8232C37.8513 72.0967 38.1475 72.2334 38.5056 72.2334C38.7921 72.2334 39.0541 72.1569 39.2917 72.0039C39.5229 71.8542 39.7003 71.6149 39.824 71.2861C39.863 71.2959 39.9639 71.3252 40.1267 71.374C40.2927 71.4229 40.5222 71.4896 40.8152 71.5742C40.7501 71.7728 40.6606 71.9583 40.5466 72.1309C40.4262 72.3099 40.2781 72.4759 40.1023 72.6289C39.9265 72.7819 39.6986 72.9056 39.4187 73C39.1485 73.0911 38.8474 73.1367 38.5154 73.1367C37.8155 73.1367 37.2442 72.8926 36.8015 72.4043C36.3588 71.9193 36.1375 71.2861 36.1375 70.5049L36.1228 70.5195ZM39.5798 70.0215C39.5636 69.6341 39.461 69.333 39.2722 69.1182C39.0802 68.9033 38.8051 68.7959 38.447 68.7959C38.1052 68.7959 37.8318 68.918 37.6267 69.1621C37.4184 69.4095 37.3077 69.6992 37.2947 70.0312L39.5798 70.0215Z"/>
<path fill="#878787" d="M30.7271 70.5195C30.7271 69.735 30.9403 69.1003 31.3667 68.6152C31.7931 68.1302 32.3579 67.8877 33.061 67.8877C33.7642 67.8877 34.3208 68.109 34.731 68.5518C35.1411 68.9977 35.3462 69.5999 35.3462 70.3584C35.3462 70.4626 35.3446 70.5553 35.3413 70.6367C35.3381 70.7148 35.3332 70.7816 35.3267 70.8369H31.855C31.8647 71.221 31.9868 71.5498 32.2212 71.8232C32.4556 72.0967 32.7518 72.2334 33.1099 72.2334C33.3963 72.2334 33.6584 72.1569 33.896 72.0039C34.1271 71.8542 34.3045 71.6149 34.4282 71.2861C34.4673 71.2959 34.5682 71.3252 34.731 71.374C34.897 71.4229 35.1265 71.4896 35.4194 71.5742C35.3543 71.7728 35.2648 71.9583 35.1509 72.1309C35.0304 72.3099 34.8823 72.4759 34.7065 72.6289C34.5308 72.7819 34.3029 72.9056 34.0229 73C33.7528 73.0911 33.4517 73.1367 33.1196 73.1367C32.4198 73.1367 31.8485 72.8926 31.4058 72.4043C30.9631 71.9193 30.7417 71.2861 30.7417 70.5049L30.7271 70.5195ZM34.1841 70.0215C34.1678 69.6341 34.0653 69.333 33.8765 69.1182C33.6844 68.9033 33.4093 68.7959 33.0513 68.7959C32.7095 68.7959 32.436 68.918 32.231 69.1621C32.0226 69.4095 31.9119 69.6992 31.8989 70.0312L34.1841 70.0215Z"/>
<path fill="#878787" d="M27.5972 67.9756H28.5737L28.6763 68.5225C28.9627 68.0895 29.3534 67.873 29.8481 67.873C30.0272 67.873 30.1883 67.8828 30.3315 67.9023V68.835H29.7603C29.3924 68.835 29.1206 68.957 28.9448 69.2012C28.769 69.4453 28.6812 69.8197 28.6812 70.3242V73.0342H27.6021L27.5972 67.9756Z"/>
<path fill="#878787" d="M22.1135 70.5C22.1135 69.7155 22.3316 69.0807 22.7678 68.5957C23.204 68.1107 23.7851 67.8682 24.511 67.8682C24.7747 67.8682 25.0139 67.8991 25.2288 67.9609C25.4469 68.026 25.6373 68.109 25.8 68.21C25.9596 68.3109 26.1012 68.4362 26.2249 68.5859C26.3486 68.7357 26.4462 68.8887 26.5178 69.0449C26.5894 69.2077 26.648 69.3786 26.6936 69.5576C26.3681 69.6195 26.1158 69.6667 25.9368 69.6992C25.761 69.7318 25.6568 69.7513 25.6243 69.7578C25.5429 69.4421 25.4045 69.2012 25.2092 69.0352C25.0139 68.8691 24.7828 68.7861 24.5159 68.7861C24.0992 68.7861 23.7786 68.9408 23.554 69.25C23.3293 69.5592 23.217 69.9743 23.217 70.4951C23.217 71.016 23.3293 71.4326 23.554 71.7451C23.7786 72.0576 24.0992 72.2139 24.5159 72.2139C24.7991 72.2139 25.0383 72.1309 25.2336 71.9648C25.4257 71.8021 25.564 71.5628 25.6487 71.2471C25.7301 71.2601 25.8586 71.2829 26.0344 71.3154C26.2135 71.348 26.4413 71.3919 26.718 71.4473C26.6724 71.6621 26.5943 71.8672 26.4836 72.0625C26.373 72.2578 26.2297 72.4352 26.054 72.5947C25.8814 72.7542 25.6617 72.8828 25.3948 72.9805C25.1311 73.0781 24.8398 73.127 24.5208 73.127C23.7916 73.127 23.2105 72.8877 22.7776 72.4092C22.3446 71.9339 22.1282 71.2992 22.1282 70.5049L22.1135 70.5Z"/>
<path fill="#878787" d="M17.084 70.6367C17.084 70.8092 17.1165 70.985 17.1816 71.1641C17.2435 71.3333 17.3395 71.501 17.4697 71.667C17.5967 71.8298 17.7725 71.9616 17.9971 72.0625C18.2184 72.1634 18.4756 72.2139 18.7686 72.2139C19.2145 72.2139 19.5856 72.1097 19.8818 71.9014C20.1813 71.6898 20.3311 71.4017 20.3311 71.0371C20.3311 70.8971 20.3115 70.7702 20.2725 70.6562C20.2334 70.5423 20.1748 70.4463 20.0967 70.3682C20.0576 70.3291 20.0169 70.2933 19.9746 70.2607C19.9323 70.2249 19.8883 70.194 19.8428 70.168C19.7484 70.1126 19.6393 70.0687 19.5156 70.0361C19.4505 70.0199 19.3887 70.0052 19.3301 69.9922C19.2715 69.9792 19.2145 69.9678 19.1592 69.958C19.0452 69.9385 18.9183 69.9238 18.7783 69.9141C17.0433 69.7415 16.1758 69.0872 16.1758 67.9512C16.1758 67.668 16.2262 67.4141 16.3271 67.1895C16.4313 66.9583 16.5664 66.7646 16.7324 66.6084C16.8952 66.4554 17.0889 66.3236 17.3135 66.2129C17.5316 66.1055 17.7594 66.0273 17.9971 65.9785C18.2314 65.9297 18.4707 65.9053 18.7148 65.9053C19.0273 65.9053 19.3382 65.9525 19.6475 66.0469C19.9469 66.138 20.2171 66.2699 20.458 66.4424C20.7021 66.6149 20.8958 66.8314 21.0391 67.0918C21.1888 67.3587 21.2702 67.6468 21.2832 67.9561L20.2188 68.1318C20.1992 67.9072 20.1439 67.7119 20.0527 67.5459C19.9616 67.3766 19.8444 67.2432 19.7012 67.1455C19.5579 67.0479 19.4049 66.9746 19.2422 66.9258C19.0762 66.877 18.9036 66.8525 18.7246 66.8525C18.5456 66.8525 18.373 66.8721 18.207 66.9111C18.0475 66.9469 17.8945 67.0088 17.748 67.0967C17.6048 67.1813 17.4925 67.2952 17.4111 67.4385C17.3265 67.5882 17.2842 67.7559 17.2842 67.9414C17.2842 68.5013 17.805 68.8398 18.8467 68.957C19.0452 68.9831 19.2145 69.0075 19.3545 69.0303C19.4294 69.0433 19.5091 69.0579 19.5938 69.0742C19.6784 69.0905 19.7679 69.1117 19.8623 69.1377C19.9567 69.1637 20.0446 69.1914 20.126 69.2207C20.2106 69.2467 20.2887 69.276 20.3604 69.3086C20.4971 69.3704 20.6403 69.4535 20.79 69.5576C20.9333 69.6585 21.0521 69.7757 21.1465 69.9092C21.2409 70.0459 21.3174 70.207 21.376 70.3926C21.4346 70.5846 21.4639 70.7946 21.4639 71.0225C21.4639 71.6507 21.2181 72.1602 20.7266 72.5508C20.2318 72.9414 19.5905 73.1367 18.8027 73.1367C18.4284 73.1367 18.0801 73.0895 17.7578 72.9951C17.4388 72.904 17.1751 72.7819 16.9668 72.6289C16.7617 72.4824 16.5843 72.3034 16.4346 72.0918C16.2881 71.8867 16.1807 71.6784 16.1123 71.4668C16.0407 71.252 16.0033 71.0371 16 70.8223L17.084 70.6367Z"/>
</g>
<g filter="url(#filter2_dddd_184_15252)">
<rect fill="white" rx="6" height="27" width="94.9985" y="173" x="28"/>
<path fill="#878787" d="M108.58 184.911H109.556L109.659 185.458C109.753 185.288 109.924 185.139 110.171 185.008C110.422 184.875 110.695 184.808 110.992 184.808C111.705 184.815 112.217 185.012 112.53 185.399C112.842 185.79 112.999 186.397 112.999 187.22V189.969H111.929V187.22C111.929 186.706 111.838 186.328 111.656 186.087C111.477 185.85 111.189 185.731 110.792 185.731C110.04 185.731 109.664 186.227 109.664 187.22V189.969H108.584L108.58 184.911Z"/>
<path fill="#878787" d="M102.925 187.44C102.925 186.652 103.135 186.016 103.555 185.531C103.975 185.049 104.548 184.808 105.274 184.808C105.99 184.808 106.561 185.051 106.988 185.536C107.411 186.017 107.622 186.652 107.622 187.44C107.622 188.228 107.412 188.862 106.992 189.344C106.573 189.826 106.003 190.067 105.283 190.067C104.558 190.067 103.985 189.826 103.565 189.344C103.145 188.862 102.935 188.228 102.935 187.44H102.925ZM103.99 187.445C103.99 187.995 104.103 188.418 104.331 188.714C104.562 189.014 104.875 189.164 105.269 189.164C105.663 189.164 105.975 189.014 106.206 188.714C106.437 188.415 106.553 187.992 106.553 187.445C106.553 186.904 106.437 186.485 106.206 186.185C105.975 185.886 105.664 185.736 105.274 185.736C104.877 185.736 104.564 185.884 104.336 186.18C104.108 186.476 103.994 186.896 103.994 187.44L103.99 187.445Z"/>
<path fill="#878787" d="M100.762 182.928H101.978V184.139H100.762V182.928ZM100.83 184.911H101.909V189.969H100.83V184.911Z"/>
<path fill="#878787" d="M96.7869 184.906H97.656V183.446H98.7351V184.906H99.7849V185.726H98.7351V188.592C98.7351 188.794 98.7693 188.931 98.8376 189.002C98.906 189.077 99.0281 189.115 99.2039 189.115C99.2299 189.115 99.2608 189.115 99.2966 189.115C99.3357 189.111 99.3829 189.108 99.4382 189.105C99.4936 189.102 99.5408 189.1 99.5798 189.1C99.6222 189.097 99.658 189.095 99.6873 189.095V189.964L99.0427 190.003H98.9158C98.46 190.003 98.1361 189.883 97.9441 189.642C97.7553 189.404 97.6609 189.033 97.6609 188.529V185.731H96.7917L96.7869 184.906Z"/>
<path fill="#878787" d="M91.8306 188.475C91.8306 188.058 92.0161 187.704 92.3872 187.411C92.7583 187.118 93.2612 186.971 93.896 186.971H95.1948V186.668C95.1948 186.623 95.1932 186.581 95.1899 186.542C95.1867 186.499 95.1818 186.458 95.1753 186.419C95.159 186.338 95.1281 186.255 95.0825 186.17C95.0337 186.083 94.9702 186.009 94.8921 185.951C94.814 185.892 94.7098 185.843 94.5796 185.804C94.4461 185.765 94.2899 185.746 94.1108 185.746C93.7951 185.746 93.5493 185.824 93.3735 185.98C93.1978 186.136 93.105 186.364 93.0952 186.664C92.9813 186.644 92.8055 186.61 92.5679 186.561C92.327 186.512 92.1463 186.478 92.0259 186.458C92.0617 186.094 92.1789 185.788 92.3774 185.541C92.5793 185.29 92.8267 185.106 93.1196 184.989C93.4126 184.872 93.743 184.813 94.1108 184.813C94.827 184.813 95.369 184.987 95.7368 185.335C96.1014 185.681 96.2837 186.198 96.2837 186.888V188.651C96.2837 188.807 96.3032 188.924 96.3423 189.002C96.3813 189.081 96.453 189.12 96.5571 189.12C96.6613 189.12 96.7476 189.107 96.8159 189.081V189.959C96.6174 190.012 96.4041 190.038 96.1763 190.038C95.9256 190.038 95.7287 189.972 95.5854 189.842C95.4422 189.712 95.3478 189.536 95.3022 189.315C95.1623 189.494 94.9572 189.662 94.687 189.818C94.4168 189.974 94.0946 190.057 93.7202 190.067C93.1408 190.067 92.6851 189.92 92.353 189.627C92.021 189.334 91.855 188.945 91.855 188.46L91.8306 188.475ZM92.9292 188.47C92.9292 188.666 93.0024 188.832 93.1489 188.968C93.2954 189.105 93.5216 189.173 93.8276 189.173C94.241 189.173 94.5731 189.056 94.8237 188.822C95.0711 188.587 95.1948 188.32 95.1948 188.021V187.767H94.0034C93.7918 187.767 93.6112 187.792 93.4614 187.84C93.3084 187.889 93.1961 187.953 93.1245 188.031C93.0529 188.106 93.0024 188.181 92.9731 188.255C92.9438 188.33 92.9292 188.403 92.9292 188.475V188.47Z"/>
<path fill="#878787" d="M86.5815 187.435C86.5815 186.651 86.7996 186.016 87.2358 185.531C87.672 185.046 88.2531 184.803 88.979 184.803C89.2427 184.803 89.4819 184.834 89.6968 184.896C89.9149 184.961 90.1053 185.044 90.2681 185.145C90.4276 185.246 90.5692 185.371 90.6929 185.521C90.8166 185.671 90.9142 185.824 90.9858 185.98C91.0575 186.143 91.116 186.314 91.1616 186.493C90.8361 186.555 90.5838 186.602 90.4048 186.634C90.229 186.667 90.1248 186.686 90.0923 186.693C90.0109 186.377 89.8726 186.136 89.6772 185.97C89.4819 185.804 89.2508 185.721 88.9839 185.721C88.5672 185.721 88.2466 185.876 88.022 186.185C87.7974 186.494 87.6851 186.909 87.6851 187.43C87.6851 187.951 87.7974 188.368 88.022 188.68C88.2466 188.993 88.5672 189.149 88.9839 189.149C89.2671 189.149 89.5063 189.066 89.7017 188.9C89.8937 188.737 90.0321 188.498 90.1167 188.182C90.1981 188.195 90.3267 188.218 90.5024 188.25C90.6815 188.283 90.9093 188.327 91.186 188.382C91.1405 188.597 91.0623 188.802 90.9517 188.998C90.841 189.193 90.6978 189.37 90.522 189.53C90.3494 189.689 90.1297 189.818 89.8628 189.916C89.5991 190.013 89.3078 190.062 88.9888 190.062C88.2596 190.062 87.6785 189.823 87.2456 189.344C86.8127 188.869 86.5962 188.234 86.5962 187.44L86.5815 187.435Z"/>
<path fill="#878787" d="M84.4231 182.928H85.6389V184.139H84.4231V182.928ZM84.4915 184.911H85.5706V189.969H84.4915V184.911Z"/>
<path fill="#878787" d="M80.6143 184.911H81.4834V184.291C81.4834 183.382 81.9473 182.928 82.875 182.928H83.6172V183.851H83.0068C82.7106 183.851 82.5625 184.02 82.5625 184.359V184.911H83.5146V185.731H82.5625V189.969H81.4834V185.731H80.6143V184.911Z"/>
<path fill="#878787" d="M78.6414 182.928H79.8572V184.139H78.6414V182.928ZM78.7097 184.911H79.7888V189.969H78.7097V184.911Z"/>
<path fill="#878787" d="M75.0864 184.911H76.063L76.1655 185.458C76.452 185.025 76.8426 184.808 77.3374 184.808C77.5164 184.808 77.6776 184.818 77.8208 184.837V185.77H77.2495C76.8817 185.77 76.6099 185.892 76.4341 186.136C76.2583 186.38 76.1704 186.755 76.1704 187.259V189.969H75.0913L75.0864 184.911Z"/>
<path fill="#878787" d="M69.3784 187.455C69.3784 186.67 69.5916 186.035 70.0181 185.55C70.4445 185.065 71.0093 184.823 71.7124 184.823C72.4155 184.823 72.9722 185.044 73.3823 185.487C73.7925 185.933 73.9976 186.535 73.9976 187.293C73.9976 187.398 73.9959 187.49 73.9927 187.572C73.9894 187.65 73.9845 187.717 73.978 187.772H70.5063C70.5161 188.156 70.6382 188.485 70.8726 188.758C71.1069 189.032 71.4032 189.168 71.7612 189.168C72.0477 189.168 72.3097 189.092 72.5474 188.939C72.7785 188.789 72.9559 188.55 73.0796 188.221C73.1187 188.231 73.2196 188.26 73.3823 188.309C73.5483 188.358 73.7778 188.425 74.0708 188.509C74.0057 188.708 73.9162 188.893 73.8022 189.066C73.6818 189.245 73.5337 189.411 73.3579 189.564C73.1821 189.717 72.9543 189.841 72.6743 189.935C72.4041 190.026 72.103 190.072 71.771 190.072C71.0711 190.072 70.4998 189.828 70.0571 189.339C69.6144 188.854 69.3931 188.221 69.3931 187.44L69.3784 187.455ZM72.8354 186.957C72.8192 186.569 72.7166 186.268 72.5278 186.053C72.3358 185.838 72.0607 185.731 71.7026 185.731C71.3608 185.731 71.0874 185.853 70.8823 186.097C70.674 186.345 70.5633 186.634 70.5503 186.966L72.8354 186.957Z"/>
<path fill="#878787" d="M64.7834 182.928L66.6829 188.348L68.5823 182.928H69.7639L67.22 189.969H66.1409L63.6213 182.928H64.7834Z"/>
<path fill="#878787" d="M60.0417 182.928H61.1208V189.969H60.0417V182.928Z"/>
<path fill="#878787" d="M54.3286 187.455C54.3286 186.67 54.5418 186.035 54.9683 185.55C55.3947 185.065 55.9595 184.823 56.6626 184.823C57.3657 184.823 57.9224 185.044 58.3325 185.487C58.7427 185.933 58.9478 186.535 58.9478 187.293C58.9478 187.398 58.9461 187.49 58.9429 187.572C58.9396 187.65 58.9347 187.717 58.9282 187.772H55.4565C55.4663 188.156 55.5884 188.485 55.8228 188.758C56.0571 189.032 56.3534 189.168 56.7114 189.168C56.9979 189.168 57.2599 189.092 57.4976 188.939C57.7287 188.789 57.9061 188.55 58.0298 188.221C58.0688 188.231 58.1698 188.26 58.3325 188.309C58.4985 188.358 58.728 188.425 59.021 188.509C58.9559 188.708 58.8664 188.893 58.7524 189.066C58.632 189.245 58.4839 189.411 58.3081 189.564C58.1323 189.717 57.9045 189.841 57.6245 189.935C57.3543 190.026 57.0532 190.072 56.7212 190.072C56.0213 190.072 55.45 189.828 55.0073 189.339C54.5646 188.854 54.3433 188.221 54.3433 187.44L54.3286 187.455ZM57.7856 186.957C57.7694 186.569 57.6668 186.268 57.478 186.053C57.286 185.838 57.0109 185.731 56.6528 185.731C56.311 185.731 56.0376 185.853 55.8325 186.097C55.6242 186.345 55.5135 186.634 55.5005 186.966L57.7856 186.957Z"/>
<path fill="#878787" d="M49.0601 184.911H50.0366L50.1392 185.458C50.2336 185.288 50.4045 185.139 50.6519 185.008C50.9025 184.875 51.1759 184.808 51.4722 184.808C52.1851 184.815 52.6978 185.012 53.0103 185.399C53.3228 185.79 53.479 186.397 53.479 187.22V189.969H52.4097V187.22C52.4097 186.706 52.3185 186.328 52.1362 186.087C51.9572 185.85 51.6691 185.731 51.272 185.731C50.52 185.731 50.144 186.227 50.144 187.22V189.969H49.0649L49.0601 184.911Z"/>
<path fill="#878787" d="M43.303 188.475C43.303 188.058 43.4885 187.704 43.8596 187.411C44.2307 187.118 44.7336 186.971 45.3684 186.971H46.6672V186.668C46.6672 186.623 46.6656 186.581 46.6624 186.542C46.6591 186.499 46.6542 186.458 46.6477 186.419C46.6314 186.338 46.6005 186.255 46.5549 186.17C46.5061 186.083 46.4426 186.009 46.3645 185.951C46.2864 185.892 46.1822 185.843 46.052 185.804C45.9185 185.765 45.7623 185.746 45.5833 185.746C45.2675 185.746 45.0217 185.824 44.8459 185.98C44.6702 186.136 44.5774 186.364 44.5676 186.664C44.4537 186.644 44.2779 186.61 44.0403 186.561C43.7994 186.512 43.6187 186.478 43.4983 186.458C43.5341 186.094 43.6513 185.788 43.8499 185.541C44.0517 185.29 44.2991 185.106 44.592 184.989C44.885 184.872 45.2154 184.813 45.5833 184.813C46.2994 184.813 46.8414 184.987 47.2092 185.335C47.5738 185.681 47.7561 186.198 47.7561 186.888V188.651C47.7561 188.807 47.7756 188.924 47.8147 189.002C47.8538 189.081 47.9254 189.12 48.0295 189.12C48.1337 189.12 48.22 189.107 48.2883 189.081V189.959C48.0898 190.012 47.8765 190.038 47.6487 190.038C47.398 190.038 47.2011 189.972 47.0579 189.842C46.9146 189.712 46.8202 189.536 46.7747 189.315C46.6347 189.494 46.4296 189.662 46.1594 189.818C45.8892 189.974 45.567 190.057 45.1926 190.067C44.6132 190.067 44.1575 189.92 43.8254 189.627C43.4934 189.334 43.3274 188.945 43.3274 188.46L43.303 188.475ZM44.4016 188.47C44.4016 188.666 44.4749 188.832 44.6213 188.968C44.7678 189.105 44.9941 189.173 45.3 189.173C45.7135 189.173 46.0455 189.056 46.2961 188.822C46.5435 188.587 46.6672 188.32 46.6672 188.021V187.767H45.4758C45.2642 187.767 45.0836 187.792 44.9338 187.84C44.7808 187.889 44.6685 187.953 44.5969 188.031C44.5253 188.106 44.4749 188.181 44.4456 188.255C44.4163 188.33 44.4016 188.403 44.4016 188.475V188.47Z"/>
<path fill="#878787" d="M38 182.933H40.9297C41.5514 182.933 42.0527 183.135 42.4336 183.539C42.8145 183.945 43.0049 184.455 43.0049 185.067C43.0049 185.689 42.8145 186.201 42.4336 186.605C42.0527 187.009 41.5514 187.21 40.9297 187.21H39.1182V189.969H38V182.933ZM40.876 186.263C41.1527 186.263 41.3919 186.143 41.5938 185.902C41.7923 185.664 41.8916 185.386 41.8916 185.067C41.8916 184.745 41.7923 184.468 41.5938 184.237C41.3919 184.002 41.1527 183.885 40.876 183.885H39.1182V186.273L40.876 186.263Z"/>
</g>
<g filter="url(#filter3_dddd_184_15252)">
<rect fill="white" rx="6" height="27" width="39.4246" y="1" x="180"/>
<path fill="#878787" d="M205.059 16.4897C205.766 16.3563 206.117 16.2896 206.114 16.2896C206.215 16.8755 206.591 17.1685 207.242 17.1685C207.278 17.1685 207.317 17.1668 207.359 17.1636C207.401 17.1571 207.447 17.1506 207.496 17.144C207.594 17.131 207.711 17.1017 207.847 17.0562C207.984 17.0138 208.096 16.9406 208.184 16.8364C208.272 16.7355 208.316 16.6102 208.316 16.4604C208.316 16.3335 208.282 16.2277 208.214 16.1431C208.145 16.0584 208.051 15.995 207.93 15.9526C207.807 15.9071 207.668 15.8729 207.515 15.8501C207.437 15.8371 207.358 15.8257 207.276 15.8159C207.195 15.8029 207.112 15.7915 207.027 15.7817C206.855 15.7622 206.684 15.7378 206.514 15.7085C206.339 15.6792 206.176 15.6336 206.026 15.5718C205.876 15.5099 205.738 15.4285 205.611 15.3276C205.494 15.2332 205.399 15.0981 205.328 14.9224C205.26 14.7531 205.225 14.5529 205.225 14.3218C205.225 13.8953 205.413 13.5389 205.787 13.2524C206.164 12.9627 206.623 12.8179 207.164 12.8179C207.441 12.8179 207.699 12.8472 207.94 12.9058C208.171 12.9611 208.388 13.0522 208.59 13.1792C208.782 13.2996 208.943 13.464 209.073 13.6724C209.203 13.8807 209.285 14.12 209.317 14.3901C209.255 14.3999 209.136 14.4227 208.961 14.4585C208.788 14.491 208.554 14.535 208.258 14.5903C208.192 14.0174 207.839 13.731 207.198 13.731C206.941 13.731 206.729 13.7896 206.563 13.9067C206.397 14.0239 206.314 14.1623 206.314 14.3218C206.314 14.5106 206.396 14.6473 206.558 14.7319C206.718 14.8133 206.965 14.8719 207.301 14.9077C207.554 14.9305 207.776 14.9598 207.965 14.9956C208.15 15.0314 208.341 15.0851 208.536 15.1567C208.731 15.2316 208.889 15.3211 209.01 15.4253C209.13 15.5295 209.229 15.6711 209.307 15.8501C209.385 16.0259 209.425 16.2277 209.425 16.4556C209.425 16.9666 209.224 17.3638 208.824 17.647C208.424 17.9302 207.909 18.0718 207.281 18.0718C206.649 18.0718 206.147 17.9253 205.772 17.6323C205.398 17.3394 205.173 16.9552 205.098 16.48L205.059 16.4897Z"/>
<path fill="#878787" d="M203.062 10.9282H204.141V17.9692H203.062V10.9282Z"/>
<path fill="#878787" d="M200.586 10.9282H201.802V12.1392H200.586V10.9282ZM200.655 12.9106H201.734V17.9692H200.655V12.9106Z"/>
<path fill="#878787" d="M195.005 15.4399C195.005 14.6522 195.215 14.0158 195.635 13.5308C196.055 13.049 196.628 12.8081 197.354 12.8081C198.07 12.8081 198.641 13.0506 199.068 13.5356C199.491 14.0174 199.702 14.6522 199.702 15.4399C199.702 16.2277 199.492 16.8625 199.073 17.3442C198.653 17.826 198.083 18.0669 197.364 18.0669C196.638 18.0669 196.065 17.826 195.645 17.3442C195.225 16.8625 195.015 16.2277 195.015 15.4399H195.005ZM196.07 15.4448C196.07 15.995 196.184 16.4181 196.411 16.7144C196.642 17.0138 196.955 17.1636 197.349 17.1636C197.743 17.1636 198.055 17.0138 198.286 16.7144C198.517 16.4149 198.633 15.9917 198.633 15.4448C198.633 14.9045 198.517 14.4845 198.286 14.1851C198.055 13.8856 197.744 13.7358 197.354 13.7358C196.957 13.7358 196.644 13.884 196.416 14.1802C196.188 14.4764 196.074 14.8963 196.074 15.4399L196.07 15.4448Z"/>
<path fill="#878787" d="M190 10.9282H194.658V11.8804H191.108V13.8774H194.199V14.8296H191.108V17.9692H190V10.9282Z"/>
</g>
<g filter="url(#filter4_dddd_184_15252)">
<rect fill="white" rx="6" height="27" width="72.4678" y="130" x="226"/>
<path fill="#878787" d="M285.47 145.922H286.339V144.462H287.418V145.922H288.468V146.742H287.418V149.608C287.418 149.81 287.452 149.947 287.521 150.019C287.589 150.093 287.711 150.131 287.887 150.131C287.913 150.131 287.944 150.131 287.979 150.131C288.019 150.128 288.066 150.124 288.121 150.121C288.176 150.118 288.224 150.116 288.263 150.116C288.305 150.113 288.341 150.111 288.37 150.111V150.98L287.726 151.02H287.599C287.143 151.02 286.819 150.899 286.627 150.658C286.438 150.421 286.344 150.049 286.344 149.545V146.747H285.475L285.47 145.922Z"/>
<path fill="#878787" d="M280.289 145.927H281.265L281.368 146.474C281.462 146.304 281.633 146.155 281.881 146.024C282.131 145.891 282.405 145.824 282.701 145.824C283.414 145.831 283.927 146.028 284.239 146.415C284.552 146.806 284.708 147.413 284.708 148.236V150.985H283.638V148.236C283.638 147.722 283.547 147.344 283.365 147.104C283.186 146.866 282.898 146.747 282.501 146.747C281.749 146.747 281.373 147.243 281.373 148.236V150.985H280.294L280.289 145.927Z"/>
<path fill="#878787" d="M274.581 148.471C274.581 147.686 274.794 147.051 275.22 146.566C275.647 146.081 276.211 145.839 276.915 145.839C277.618 145.839 278.174 146.06 278.584 146.503C278.995 146.949 279.2 147.551 279.2 148.31C279.2 148.414 279.198 148.507 279.195 148.588C279.192 148.666 279.187 148.733 279.18 148.788H275.708C275.718 149.172 275.84 149.501 276.075 149.774C276.309 150.048 276.605 150.185 276.963 150.185C277.25 150.185 277.512 150.108 277.75 149.955C277.981 149.805 278.158 149.566 278.282 149.237C278.321 149.247 278.422 149.276 278.584 149.325C278.75 149.374 278.98 149.441 279.273 149.525C279.208 149.724 279.118 149.91 279.004 150.082C278.884 150.261 278.736 150.427 278.56 150.58C278.384 150.733 278.156 150.857 277.876 150.951C277.606 151.042 277.305 151.088 276.973 151.088C276.273 151.088 275.702 150.844 275.259 150.355C274.817 149.87 274.595 149.237 274.595 148.456L274.581 148.471ZM278.038 147.973C278.021 147.585 277.919 147.284 277.73 147.069C277.538 146.854 277.263 146.747 276.905 146.747C276.563 146.747 276.29 146.869 276.084 147.113C275.876 147.361 275.765 147.65 275.752 147.982L278.038 147.973Z"/>
<path fill="#878787" d="M266.587 145.927H267.564L267.666 146.474C267.748 146.324 267.923 146.177 268.194 146.034C268.461 145.894 268.734 145.824 269.014 145.824C269.212 145.824 269.395 145.849 269.561 145.897C269.727 145.946 269.865 146.011 269.976 146.093C270.031 146.135 270.082 146.176 270.127 146.215C270.173 146.254 270.213 146.293 270.249 146.332C270.318 146.41 270.376 146.493 270.425 146.581C270.555 146.363 270.765 146.182 271.055 146.039C271.348 145.896 271.641 145.824 271.934 145.824C272.601 145.824 273.068 146.016 273.335 146.4C273.605 146.788 273.74 147.374 273.74 148.158V150.98H272.671V148.158C272.671 147.208 272.344 146.732 271.69 146.732C271.533 146.732 271.397 146.757 271.28 146.806C271.166 146.851 271.071 146.918 270.996 147.006C270.921 147.09 270.863 147.195 270.821 147.318C270.775 147.445 270.746 147.574 270.733 147.704C270.726 147.769 270.72 147.841 270.713 147.919C270.71 147.994 270.708 148.074 270.708 148.158V150.98H269.629V148.158C269.629 148.074 269.626 147.994 269.619 147.919C269.616 147.844 269.611 147.774 269.605 147.709C269.588 147.579 269.559 147.452 269.517 147.328C269.471 147.208 269.413 147.105 269.341 147.021C269.266 146.933 269.172 146.866 269.058 146.82C268.941 146.771 268.804 146.747 268.648 146.747C267.997 146.747 267.671 147.219 267.671 148.163V150.985H266.592L266.587 145.927Z"/>
<path fill="#878787" d="M261.006 145.927H261.982L262.085 146.474C262.179 146.304 262.35 146.155 262.598 146.024C262.848 145.891 263.122 145.824 263.418 145.824C264.131 145.831 264.644 146.028 264.956 146.415C265.269 146.806 265.425 147.413 265.425 148.236V150.985H264.355V148.236C264.355 147.722 264.264 147.344 264.082 147.104C263.903 146.866 263.615 146.747 263.218 146.747C262.466 146.747 262.09 147.243 262.09 148.236V150.985H261.011L261.006 145.927Z"/>
<path fill="#878787" d="M255 148.461C255 147.686 255.208 147.053 255.625 146.562C256.038 146.073 256.576 145.829 257.236 145.829C257.552 145.829 257.845 145.907 258.115 146.063C258.382 146.22 258.564 146.392 258.662 146.581L258.76 145.932H259.751V150.78C259.751 151.509 259.536 152.071 259.106 152.465C258.68 152.859 258.117 153.056 257.417 153.056C256.844 153.056 256.362 152.938 255.972 152.704C255.581 152.47 255.33 152.146 255.22 151.732L256.279 151.439C256.331 151.641 256.466 151.809 256.685 151.942C256.896 152.073 257.142 152.138 257.422 152.138C257.829 152.138 258.14 152.012 258.354 151.762C258.569 151.514 258.677 151.182 258.677 150.766V150.385C258.576 150.574 258.385 150.736 258.105 150.873C257.826 151.01 257.541 151.078 257.251 151.078C256.61 151.078 256.077 150.834 255.654 150.346C255.231 149.861 255.02 149.231 255.02 148.456L255 148.461ZM256.079 148.466C256.079 149.016 256.196 149.439 256.431 149.735C256.665 150.035 256.986 150.185 257.393 150.185C257.786 150.185 258.094 150.035 258.315 149.735C258.537 149.436 258.647 149.011 258.647 148.461C258.647 147.914 258.538 147.493 258.32 147.196C258.102 146.9 257.795 146.752 257.397 146.752C256.994 146.752 256.675 146.902 256.44 147.201C256.206 147.501 256.089 147.921 256.089 148.461L256.079 148.466Z"/>
<path fill="#878787" d="M252.846 143.944H254.062V145.155H252.846V143.944ZM252.915 145.927H253.994V150.985H252.915V145.927Z"/>
<path fill="#878787" d="M247.529 149.506C248.235 149.372 248.587 149.306 248.583 149.306C248.684 149.892 249.06 150.185 249.711 150.185C249.747 150.185 249.786 150.183 249.829 150.18C249.871 150.173 249.917 150.167 249.965 150.16C250.063 150.147 250.18 150.118 250.317 150.072C250.454 150.03 250.566 149.957 250.654 149.853C250.742 149.752 250.786 149.626 250.786 149.477C250.786 149.35 250.751 149.244 250.683 149.159C250.615 149.075 250.52 149.011 250.4 148.969C250.276 148.923 250.138 148.889 249.985 148.866C249.907 148.853 249.827 148.842 249.746 148.832C249.664 148.819 249.581 148.808 249.497 148.798C249.324 148.778 249.153 148.754 248.984 148.725C248.808 148.695 248.645 148.65 248.496 148.588C248.346 148.526 248.208 148.445 248.081 148.344C247.963 148.249 247.869 148.114 247.797 147.938C247.729 147.769 247.695 147.569 247.695 147.338C247.695 146.911 247.882 146.555 248.256 146.269C248.634 145.979 249.093 145.834 249.633 145.834C249.91 145.834 250.169 145.863 250.41 145.922C250.641 145.977 250.857 146.068 251.059 146.195C251.251 146.316 251.412 146.48 251.542 146.688C251.673 146.897 251.754 147.136 251.787 147.406C251.725 147.416 251.606 147.439 251.43 147.475C251.258 147.507 251.023 147.551 250.727 147.606C250.662 147.034 250.309 146.747 249.667 146.747C249.41 146.747 249.199 146.806 249.033 146.923C248.867 147.04 248.784 147.178 248.784 147.338C248.784 147.527 248.865 147.663 249.028 147.748C249.187 147.829 249.435 147.888 249.77 147.924C250.024 147.947 250.245 147.976 250.434 148.012C250.62 148.048 250.81 148.101 251.005 148.173C251.201 148.248 251.359 148.337 251.479 148.441C251.599 148.546 251.699 148.687 251.777 148.866C251.855 149.042 251.894 149.244 251.894 149.472C251.894 149.983 251.694 150.38 251.293 150.663C250.893 150.946 250.379 151.088 249.75 151.088C249.119 151.088 248.616 150.941 248.242 150.648C247.867 150.355 247.643 149.971 247.568 149.496L247.529 149.506Z"/>
<path fill="#878787" d="M242.563 149.506C243.269 149.372 243.621 149.306 243.617 149.306C243.718 149.892 244.094 150.185 244.745 150.185C244.781 150.185 244.82 150.183 244.863 150.18C244.905 150.173 244.95 150.167 244.999 150.16C245.097 150.147 245.214 150.118 245.351 150.072C245.488 150.03 245.6 149.957 245.688 149.853C245.776 149.752 245.82 149.626 245.82 149.477C245.82 149.35 245.785 149.244 245.717 149.159C245.649 149.075 245.554 149.011 245.434 148.969C245.31 148.923 245.172 148.889 245.019 148.866C244.941 148.853 244.861 148.842 244.78 148.832C244.698 148.819 244.615 148.808 244.531 148.798C244.358 148.778 244.187 148.754 244.018 148.725C243.842 148.695 243.679 148.65 243.53 148.588C243.38 148.526 243.241 148.445 243.115 148.344C242.997 148.249 242.903 148.114 242.831 147.938C242.763 147.769 242.729 147.569 242.729 147.338C242.729 146.911 242.916 146.555 243.29 146.269C243.668 145.979 244.127 145.834 244.667 145.834C244.944 145.834 245.203 145.863 245.444 145.922C245.675 145.977 245.891 146.068 246.093 146.195C246.285 146.316 246.446 146.48 246.576 146.688C246.707 146.897 246.788 147.136 246.821 147.406C246.759 147.416 246.64 147.439 246.464 147.475C246.292 147.507 246.057 147.551 245.761 147.606C245.696 147.034 245.343 146.747 244.701 146.747C244.444 146.747 244.233 146.806 244.067 146.923C243.901 147.04 243.818 147.178 243.818 147.338C243.818 147.527 243.899 147.663 244.062 147.748C244.221 147.829 244.469 147.888 244.804 147.924C245.058 147.947 245.279 147.976 245.468 148.012C245.654 148.048 245.844 148.101 246.039 148.173C246.235 148.248 246.392 148.337 246.513 148.441C246.633 148.546 246.733 148.687 246.811 148.866C246.889 149.042 246.928 149.244 246.928 149.472C246.928 149.983 246.728 150.38 246.327 150.663C245.927 150.946 245.413 151.088 244.784 151.088C244.153 151.088 243.65 150.941 243.276 150.648C242.901 150.355 242.677 149.971 242.602 149.496L242.563 149.506Z"/>
<path fill="#878787" d="M238.549 143.944H239.618L242.172 150.985H241.01L240.512 149.555H237.66L237.162 150.985H236L238.549 143.944ZM240.189 148.607L239.091 145.434L237.978 148.607H240.189Z"/>
<path fill="#878787" d="M272.92 135.927H273.897L274 136.474C274.081 136.324 274.257 136.177 274.527 136.034C274.794 135.894 275.067 135.824 275.347 135.824C275.546 135.824 275.728 135.849 275.894 135.897C276.06 135.946 276.198 136.011 276.309 136.093C276.364 136.135 276.415 136.176 276.46 136.215C276.506 136.254 276.547 136.293 276.583 136.332C276.651 136.41 276.709 136.493 276.758 136.581C276.889 136.363 277.098 136.182 277.388 136.039C277.681 135.896 277.974 135.824 278.267 135.824C278.934 135.824 279.402 136.016 279.668 136.4C279.939 136.788 280.074 137.374 280.074 138.158V140.98H279.004V138.158C279.004 137.208 278.677 136.732 278.023 136.732C277.867 136.732 277.73 136.757 277.613 136.806C277.499 136.851 277.404 136.918 277.33 137.006C277.255 137.09 277.196 137.195 277.154 137.318C277.108 137.445 277.079 137.574 277.066 137.704C277.059 137.769 277.053 137.841 277.046 137.919C277.043 137.994 277.042 138.074 277.042 138.158V140.98H275.962V138.158C275.962 138.074 275.959 137.994 275.953 137.919C275.949 137.844 275.944 137.774 275.938 137.709C275.922 137.579 275.892 137.452 275.85 137.328C275.805 137.208 275.746 137.105 275.674 137.021C275.599 136.933 275.505 136.866 275.391 136.82C275.274 136.771 275.137 136.747 274.981 136.747C274.33 136.747 274.004 137.219 274.004 138.163V140.985H272.925L272.92 135.927Z"/>
<path fill="#878787" d="M267.266 138.456C267.266 137.668 267.476 137.032 267.896 136.547C268.316 136.065 268.889 135.824 269.615 135.824C270.331 135.824 270.902 136.067 271.328 136.552C271.752 137.034 271.963 137.668 271.963 138.456C271.963 139.244 271.753 139.879 271.333 140.36C270.913 140.842 270.344 141.083 269.624 141.083C268.898 141.083 268.325 140.842 267.906 140.36C267.486 139.879 267.276 139.244 267.276 138.456H267.266ZM268.33 138.461C268.33 139.011 268.444 139.434 268.672 139.73C268.903 140.03 269.216 140.18 269.61 140.18C270.003 140.18 270.316 140.03 270.547 139.73C270.778 139.431 270.894 139.008 270.894 138.461C270.894 137.921 270.778 137.501 270.547 137.201C270.316 136.902 270.005 136.752 269.615 136.752C269.217 136.752 268.905 136.9 268.677 137.196C268.449 137.493 268.335 137.912 268.335 138.456L268.33 138.461Z"/>
<path fill="#878787" d="M261.577 138.461C261.577 137.673 261.772 137.037 262.163 136.552C262.554 136.07 263.089 135.829 263.77 135.829C264.082 135.829 264.373 135.904 264.644 136.054C264.914 136.203 265.111 136.365 265.234 136.537V133.944H266.323V140.985H265.332L265.234 140.355C265.12 140.528 264.93 140.692 264.663 140.849C264.393 141.005 264.097 141.083 263.774 141.083C263.136 141.083 262.612 140.839 262.202 140.351C261.792 139.862 261.587 139.231 261.587 138.456L261.577 138.461ZM262.671 138.466C262.671 139.006 262.788 139.428 263.022 139.73C263.257 140.033 263.573 140.185 263.97 140.185C264.364 140.185 264.671 140.035 264.893 139.735C265.114 139.436 265.225 139.011 265.225 138.461C265.225 137.914 265.116 137.493 264.897 137.196C264.679 136.9 264.372 136.752 263.975 136.752C263.577 136.752 263.262 136.902 263.027 137.201C262.793 137.501 262.676 137.921 262.676 138.461L262.671 138.466Z"/>
<path fill="#878787" d="M256.304 135.927H257.28L257.383 136.474C257.477 136.304 257.648 136.155 257.896 136.024C258.146 135.891 258.42 135.824 258.716 135.824C259.429 135.831 259.941 136.028 260.254 136.415C260.566 136.806 260.723 137.413 260.723 138.236V140.985H259.653V138.236C259.653 137.722 259.562 137.344 259.38 137.104C259.201 136.866 258.913 136.747 258.516 136.747C257.764 136.747 257.388 137.243 257.388 138.236V140.985H256.309L256.304 135.927Z"/>
<path fill="#878787" d="M250.547 139.491C250.547 139.075 250.732 138.72 251.103 138.427C251.474 138.134 251.977 137.987 252.612 137.987H253.911V137.685C253.911 137.639 253.909 137.597 253.906 137.558C253.903 137.515 253.898 137.475 253.891 137.436C253.875 137.354 253.844 137.271 253.799 137.187C253.75 137.099 253.686 137.025 253.608 136.967C253.53 136.908 253.426 136.859 253.296 136.82C253.162 136.781 253.006 136.762 252.827 136.762C252.511 136.762 252.265 136.84 252.09 136.996C251.914 137.152 251.821 137.38 251.811 137.68C251.697 137.66 251.522 137.626 251.284 137.577C251.043 137.528 250.862 137.494 250.742 137.475C250.778 137.11 250.895 136.804 251.094 136.557C251.295 136.306 251.543 136.122 251.836 136.005C252.129 135.888 252.459 135.829 252.827 135.829C253.543 135.829 254.085 136.003 254.453 136.352C254.817 136.697 255 137.214 255 137.904V139.667C255 139.823 255.019 139.94 255.058 140.019C255.097 140.097 255.169 140.136 255.273 140.136C255.377 140.136 255.464 140.123 255.532 140.097V140.976C255.333 141.028 255.12 141.054 254.892 141.054C254.642 141.054 254.445 140.989 254.302 140.858C254.158 140.728 254.064 140.552 254.018 140.331C253.878 140.51 253.673 140.678 253.403 140.834C253.133 140.99 252.811 141.073 252.436 141.083C251.857 141.083 251.401 140.937 251.069 140.644C250.737 140.351 250.571 139.962 250.571 139.477L250.547 139.491ZM251.645 139.486C251.645 139.682 251.719 139.848 251.865 139.984C252.011 140.121 252.238 140.189 252.544 140.189C252.957 140.189 253.289 140.072 253.54 139.838C253.787 139.604 253.911 139.337 253.911 139.037V138.783H252.719C252.508 138.783 252.327 138.808 252.177 138.856C252.024 138.905 251.912 138.969 251.841 139.047C251.769 139.122 251.719 139.197 251.689 139.271C251.66 139.346 251.645 139.42 251.645 139.491V139.486Z"/>
<path fill="#878787" d="M244.75 133.954H247.68C248.302 133.954 248.803 134.156 249.184 134.56C249.565 134.966 249.755 135.476 249.755 136.088C249.755 136.651 249.597 137.126 249.282 137.514C248.966 137.901 248.541 138.127 248.007 138.192H247.919L250.18 140.99H248.886C248.74 140.811 248.562 140.593 248.354 140.336C248.149 140.079 247.91 139.781 247.636 139.442C247.093 138.769 246.765 138.363 246.655 138.227H245.854V140.985H244.736L244.75 133.954ZM247.636 137.284C247.913 137.284 248.152 137.164 248.354 136.923C248.553 136.685 248.652 136.407 248.652 136.088C248.652 135.766 248.553 135.489 248.354 135.258C248.152 135.023 247.913 134.906 247.636 134.906H245.869V137.294L247.636 137.284Z"/>
</g>
<defs>
<filter color-interpolation-filters="sRGB" filterUnits="userSpaceOnUse" height="397.6" width="270" y="4" x="39" id="filter0_dddd_184_15252">
<feFlood result="BackgroundImageFix" flood-opacity="0"/>
<feColorMatrix result="hardAlpha" values="0 0 0 0 0 0 0 0 0 0 0 0 0 0 0 0 0 0 127 0" type="matrix" in="SourceAlpha"/>
<feOffset dy="7"/>
<feGaussianBlur stdDeviation="7.5"/>
<feColorMatrix values="0 0 0 0 0.701961 0 0 0 0 0.701961 0 0 0 0 0.701961 0 0 0 0.1 0" type="matrix"/>
<feBlend result="effect1_dropShadow_184_15252" in2="BackgroundImageFix" mode="normal"/>
<feColorMatrix result="hardAlpha" values="0 0 0 0 0 0 0 0 0 0 0 0 0 0 0 0 0 0 127 0" type="matrix" in="SourceAlpha"/>
<feOffset dy="27"/>
<feGaussianBlur stdDeviation="13.5"/>
<feColorMatrix values="0 0 0 0 0.701961 0 0 0 0 0.701961 0 0 0 0 0.701961 0 0 0 0.09 0" type="matrix"/>
<feBlend result="effect2_dropShadow_184_15252" in2="effect1_dropShadow_184_15252" mode="normal"/>
<feColorMatrix result="hardAlpha" values="0 0 0 0 0 0 0 0 0 0 0 0 0 0 0 0 0 0 127 0" type="matrix" in="SourceAlpha"/>
<feOffset dy="60"/>
<feGaussianBlur stdDeviation="18"/>
<feColorMatrix values="0 0 0 0 0.701961 0 0 0 0 0.701961 0 0 0 0 0.701961 0 0 0 0.05 0" type="matrix"/>
<feBlend result="effect3_dropShadow_184_15252" in2="effect2_dropShadow_184_15252" mode="normal"/>
<feColorMatrix result="hardAlpha" values="0 0 0 0 0 0 0 0 0 0 0 0 0 0 0 0 0 0 127 0" type="matrix" in="SourceAlpha"/>
<feOffset dy="108"/>
<feGaussianBlur stdDeviation="21.5"/>
<feColorMatrix values="0 0 0 0 0.701961 0 0 0 0 0.701961 0 0 0 0 0.701961 0 0 0 0.01 0" type="matrix"/>
<feBlend result="effect4_dropShadow_184_15252" in2="effect3_dropShadow_184_15252" mode="normal"/>
<feBlend result="shape" in2="effect4_dropShadow_184_15252" in="SourceGraphic" mode="normal"/>
</filter>
<filter color-interpolation-filters="sRGB" filterUnits="userSpaceOnUse" height="48" width="122.833" y="56" x="0" id="filter1_dddd_184_15252">
<feFlood result="BackgroundImageFix" flood-opacity="0"/>
<feColorMatrix result="hardAlpha" values="0 0 0 0 0 0 0 0 0 0 0 0 0 0 0 0 0 0 127 0" type="matrix" in="SourceAlpha"/>
<feOffset dy="1"/>
<feGaussianBlur stdDeviation="1"/>
<feColorMatrix values="0 0 0 0 0 0 0 0 0 0 0 0 0 0 0 0 0 0 0.04 0" type="matrix"/>
<feBlend result="effect1_dropShadow_184_15252" in2="BackgroundImageFix" mode="normal"/>
<feColorMatrix result="hardAlpha" values="0 0 0 0 0 0 0 0 0 0 0 0 0 0 0 0 0 0 127 0" type="matrix" in="SourceAlpha"/>
<feOffset dy="3"/>
<feGaussianBlur stdDeviation="1.5"/>
<feColorMatrix values="0 0 0 0 0 0 0 0 0 0 0 0 0 0 0 0 0 0 0.03 0" type="matrix"/>
<feBlend result="effect2_dropShadow_184_15252" in2="effect1_dropShadow_184_15252" mode="normal"/>
<feColorMatrix result="hardAlpha" values="0 0 0 0 0 0 0 0 0 0 0 0 0 0 0 0 0 0 127 0" type="matrix" in="SourceAlpha"/>
<feOffset dy="8"/>
<feGaussianBlur stdDeviation="2.5"/>
<feColorMatrix values="0 0 0 0 0 0 0 0 0 0 0 0 0 0 0 0 0 0 0.02 0" type="matrix"/>
<feBlend result="effect3_dropShadow_184_15252" in2="effect2_dropShadow_184_15252" mode="normal"/>
<feColorMatrix result="hardAlpha" values="0 0 0 0 0 0 0 0 0 0 0 0 0 0 0 0 0 0 127 0" type="matrix" in="SourceAlpha"/>
<feOffset dy="14"/>
<feGaussianBlur stdDeviation="3"/>
<feColorMatrix values="0 0 0 0 0 0 0 0 0 0 0 0 0 0 0 0 0 0 0.01 0" type="matrix"/>
<feBlend result="effect4_dropShadow_184_15252" in2="effect3_dropShadow_184_15252" mode="normal"/>
<feBlend result="shape" in2="effect4_dropShadow_184_15252" in="SourceGraphic" mode="normal"/>
</filter>
<filter color-interpolation-filters="sRGB" filterUnits="userSpaceOnUse" height="48" width="106.999" y="172" x="22" id="filter2_dddd_184_15252">
<feFlood result="BackgroundImageFix" flood-opacity="0"/>
<feColorMatrix result="hardAlpha" values="0 0 0 0 0 0 0 0 0 0 0 0 0 0 0 0 0 0 127 0" type="matrix" in="SourceAlpha"/>
<feOffset dy="1"/>
<feGaussianBlur stdDeviation="1"/>
<feColorMatrix values="0 0 0 0 0 0 0 0 0 0 0 0 0 0 0 0 0 0 0.04 0" type="matrix"/>
<feBlend result="effect1_dropShadow_184_15252" in2="BackgroundImageFix" mode="normal"/>
<feColorMatrix result="hardAlpha" values="0 0 0 0 0 0 0 0 0 0 0 0 0 0 0 0 0 0 127 0" type="matrix" in="SourceAlpha"/>
<feOffset dy="3"/>
<feGaussianBlur stdDeviation="1.5"/>
<feColorMatrix values="0 0 0 0 0 0 0 0 0 0 0 0 0 0 0 0 0 0 0.03 0" type="matrix"/>
<feBlend result="effect2_dropShadow_184_15252" in2="effect1_dropShadow_184_15252" mode="normal"/>
<feColorMatrix result="hardAlpha" values="0 0 0 0 0 0 0 0 0 0 0 0 0 0 0 0 0 0 127 0" type="matrix" in="SourceAlpha"/>
<feOffset dy="8"/>
<feGaussianBlur stdDeviation="2.5"/>
<feColorMatrix values="0 0 0 0 0 0 0 0 0 0 0 0 0 0 0 0 0 0 0.02 0" type="matrix"/>
<feBlend result="effect3_dropShadow_184_15252" in2="effect2_dropShadow_184_15252" mode="normal"/>
<feColorMatrix result="hardAlpha" values="0 0 0 0 0 0 0 0 0 0 0 0 0 0 0 0 0 0 127 0" type="matrix" in="SourceAlpha"/>
<feOffset dy="14"/>
<feGaussianBlur stdDeviation="3"/>
<feColorMatrix values="0 0 0 0 0 0 0 0 0 0 0 0 0 0 0 0 0 0 0.01 0" type="matrix"/>
<feBlend result="effect4_dropShadow_184_15252" in2="effect3_dropShadow_184_15252" mode="normal"/>
<feBlend result="shape" in2="effect4_dropShadow_184_15252" in="SourceGraphic" mode="normal"/>
</filter>
<filter color-interpolation-filters="sRGB" filterUnits="userSpaceOnUse" height="48" width="51.4246" y="0" x="174" id="filter3_dddd_184_15252">
<feFlood result="BackgroundImageFix" flood-opacity="0"/>
<feColorMatrix result="hardAlpha" values="0 0 0 0 0 0 0 0 0 0 0 0 0 0 0 0 0 0 127 0" type="matrix" in="SourceAlpha"/>
<feOffset dy="1"/>
<feGaussianBlur stdDeviation="1"/>
<feColorMatrix values="0 0 0 0 0 0 0 0 0 0 0 0 0 0 0 0 0 0 0.04 0" type="matrix"/>
<feBlend result="effect1_dropShadow_184_15252" in2="BackgroundImageFix" mode="normal"/>
<feColorMatrix result="hardAlpha" values="0 0 0 0 0 0 0 0 0 0 0 0 0 0 0 0 0 0 127 0" type="matrix" in="SourceAlpha"/>
<feOffset dy="3"/>
<feGaussianBlur stdDeviation="1.5"/>
<feColorMatrix values="0 0 0 0 0 0 0 0 0 0 0 0 0 0 0 0 0 0 0.03 0" type="matrix"/>
<feBlend result="effect2_dropShadow_184_15252" in2="effect1_dropShadow_184_15252" mode="normal"/>
<feColorMatrix result="hardAlpha" values="0 0 0 0 0 0 0 0 0 0 0 0 0 0 0 0 0 0 127 0" type="matrix" in="SourceAlpha"/>
<feOffset dy="8"/>
<feGaussianBlur stdDeviation="2.5"/>
<feColorMatrix values="0 0 0 0 0 0 0 0 0 0 0 0 0 0 0 0 0 0 0.02 0" type="matrix"/>
<feBlend result="effect3_dropShadow_184_15252" in2="effect2_dropShadow_184_15252" mode="normal"/>
<feColorMatrix result="hardAlpha" values="0 0 0 0 0 0 0 0 0 0 0 0 0 0 0 0 0 0 127 0" type="matrix" in="SourceAlpha"/>
<feOffset dy="14"/>
<feGaussianBlur stdDeviation="3"/>
<feColorMatrix values="0 0 0 0 0 0 0 0 0 0 0 0 0 0 0 0 0 0 0.01 0" type="matrix"/>
<feBlend result="effect4_dropShadow_184_15252" in2="effect3_dropShadow_184_15252" mode="normal"/>
<feBlend result="shape" in2="effect4_dropShadow_184_15252" in="SourceGraphic" mode="normal"/>
</filter>
<filter color-interpolation-filters="sRGB" filterUnits="userSpaceOnUse" height="48" width="84.4678" y="129" x="220" id="filter4_dddd_184_15252">
<feFlood result="BackgroundImageFix" flood-opacity="0"/>
<feColorMatrix result="hardAlpha" values="0 0 0 0 0 0 0 0 0 0 0 0 0 0 0 0 0 0 127 0" type="matrix" in="SourceAlpha"/>
<feOffset dy="1"/>
<feGaussianBlur stdDeviation="1"/>
<feColorMatrix values="0 0 0 0 0 0 0 0 0 0 0 0 0 0 0 0 0 0 0.04 0" type="matrix"/>
<feBlend result="effect1_dropShadow_184_15252" in2="BackgroundImageFix" mode="normal"/>
<feColorMatrix result="hardAlpha" values="0 0 0 0 0 0 0 0 0 0 0 0 0 0 0 0 0 0 127 0" type="matrix" in="SourceAlpha"/>
<feOffset dy="3"/>
<feGaussianBlur stdDeviation="1.5"/>
<feColorMatrix values="0 0 0 0 0 0 0 0 0 0 0 0 0 0 0 0 0 0 0.03 0" type="matrix"/>
<feBlend result="effect2_dropShadow_184_15252" in2="effect1_dropShadow_184_15252" mode="normal"/>
<feColorMatrix result="hardAlpha" values="0 0 0 0 0 0 0 0 0 0 0 0 0 0 0 0 0 0 127 0" type="matrix" in="SourceAlpha"/>
<feOffset dy="8"/>
<feGaussianBlur stdDeviation="2.5"/>
<feColorMatrix values="0 0 0 0 0 0 0 0 0 0 0 0 0 0 0 0 0 0 0.02 0" type="matrix"/>
<feBlend result="effect3_dropShadow_184_15252" in2="effect2_dropShadow_184_15252" mode="normal"/>
<feColorMatrix result="hardAlpha" values="0 0 0 0 0 0 0 0 0 0 0 0 0 0 0 0 0 0 127 0" type="matrix" in="SourceAlpha"/>
<feOffset dy="14"/>
<feGaussianBlur stdDeviation="3"/>
<feColorMatrix values="0 0 0 0 0 0 0 0 0 0 0 0 0 0 0 0 0 0 0.01 0" type="matrix"/>
<feBlend result="effect4_dropShadow_184_15252" in2="effect3_dropShadow_184_15252" mode="normal"/>
<feBlend result="shape" in2="effect4_dropShadow_184_15252" in="SourceGraphic" mode="normal"/>
</filter>
<linearGradient gradientUnits="userSpaceOnUse" y2="249.6" x2="174" y1="13" x1="174" id="paint0_linear_184_15252">
<stop stop-color="white"/>
<stop stop-color="#FAFAFA" offset="1"/>
</linearGradient>
</defs>
</svg>