<svg width="92" height="36" viewBox="0 0 92 36" fill="none" xmlns="http://www.w3.org/2000/svg">
<path d="M7.63182 1.20068H1.09363V7.68946H7.63182V1.20068Z" fill="black"/>
<path d="M7.46891 35.007V11.6151H1.25647V34.9839H7.46891V35.007ZM48.606 35.2379V29.5112C47.6986 29.5112 46.9307 29.465 46.3723 29.3727C45.7208 29.2803 45.2322 29.0494 44.9064 28.7261C44.5807 28.4028 44.3713 27.941 44.255 27.3175C44.1619 26.7402 44.1153 25.9782 44.1153 25.0545V16.9031H48.606V11.6151H44.1153V2.51697H37.9029V25.1238C37.9029 27.0404 38.0658 28.6568 38.3915 29.9499C38.7173 31.22 39.2757 32.2591 40.0435 33.0442C40.8114 33.8294 41.8351 34.3836 43.0683 34.7299C44.3248 35.0763 45.9069 35.2379 47.7916 35.2379H48.606ZM84.1588 35.007V0.71582H77.9464V35.007H84.1588ZM31.9231 13.9243C30.2013 12.077 27.7815 11.1533 24.7102 11.1533C23.2211 11.1533 21.8483 11.4535 20.6384 12.0539C19.4052 12.6542 18.3814 13.4855 17.5438 14.5478L17.218 14.9865V14.5939V11.6151H11.0987V34.9839H17.2646V22.5375V23.3919C17.2646 23.2533 17.2646 23.1148 17.2646 22.9762C17.3344 20.7825 17.8695 19.1661 18.8933 18.127C19.9869 17.0186 21.3131 16.4644 22.8255 16.4644C24.6171 16.4644 25.9899 17.0186 26.8973 18.0808C27.7815 19.143 28.2469 20.644 28.2469 22.5606V22.6299V34.9839H34.5058V21.7293C34.5291 18.4041 33.6449 15.7716 31.9231 13.9243ZM74.7355 23.2764C74.7355 21.5907 74.433 20.0205 73.8513 18.5426C73.2464 17.0879 72.4087 15.7947 71.3617 14.6863C70.2914 13.5779 69.0117 12.7235 67.5225 12.1C66.0334 11.4766 64.3814 11.1764 62.5898 11.1764C60.8913 11.1764 59.2858 11.4997 57.7967 12.1231C56.3076 12.7697 55.0046 13.6241 53.911 14.7094C52.8174 15.7947 51.9333 17.0879 51.305 18.5657C50.6535 20.0436 50.3511 21.6369 50.3511 23.3226C50.3511 25.0083 50.6535 26.6016 51.2585 28.0795C51.8634 29.5574 52.7243 30.8505 53.7947 31.9358C54.865 33.0211 56.1912 33.8986 57.7269 34.5221C59.2625 35.1687 60.9611 35.492 62.7759 35.492C68.0344 35.492 71.2919 33.1135 73.2463 30.8967L68.779 27.5253C67.8483 28.6337 65.6146 30.1347 62.8225 30.1347C61.0774 30.1347 59.6348 29.7421 58.5412 28.9339C57.4477 28.1488 56.7031 27.0404 56.3076 25.678L56.2378 25.4702H74.7355V23.2764ZM56.2843 21.1289C56.2843 19.4201 58.262 16.4413 62.52 16.4182C66.778 16.4182 68.779 19.397 68.779 21.1058L56.2843 21.1289ZM91.2322 32.0513C91.1159 31.7742 90.953 31.5433 90.7436 31.3354C90.5342 31.1276 90.3015 30.966 90.0223 30.8505C89.7431 30.7351 89.4406 30.6658 89.1381 30.6658C88.8124 30.6658 88.5331 30.7351 88.2539 30.8505C87.9747 30.966 87.7421 31.1276 87.5326 31.3354C87.3232 31.5433 87.1604 31.7742 87.044 32.0513C86.9277 32.3284 86.8579 32.6286 86.8579 32.9288C86.8579 33.2521 86.9277 33.5292 87.044 33.8063C87.1604 34.0834 87.3232 34.3143 87.5326 34.5221C87.7421 34.7299 87.9747 34.8916 88.2539 35.007C88.5331 35.1225 88.8356 35.1918 89.1381 35.1918C89.4639 35.1918 89.7431 35.1225 90.0223 35.007C90.3015 34.8916 90.5342 34.7299 90.7436 34.5221C90.953 34.3143 91.1159 34.0834 91.2322 33.8063C91.3485 33.5292 91.4183 33.229 91.4183 32.9288C91.4183 32.6286 91.3485 32.3284 91.2322 32.0513ZM90.8599 33.6677C90.7668 33.8986 90.6272 34.1065 90.4644 34.2681C90.3015 34.4297 90.0921 34.5683 89.8594 34.6607C89.6267 34.753 89.3941 34.7992 89.1148 34.7992C88.8589 34.7992 88.603 34.753 88.3703 34.6607C88.1376 34.5683 87.9282 34.4297 87.7653 34.2681C87.6024 34.1065 87.4628 33.8986 87.3698 33.6677C87.2767 33.4368 87.2302 33.2059 87.2302 32.9288C87.2302 32.6748 87.2767 32.4208 87.3698 32.1898C87.4628 31.9589 87.6024 31.7511 87.7653 31.5895C87.9282 31.4278 88.1376 31.2893 88.3703 31.1969C88.603 31.1045 88.8356 31.0583 89.1148 31.0583C89.3708 31.0583 89.6267 31.1045 89.8594 31.1969C90.0921 31.2893 90.3015 31.4278 90.4644 31.5895C90.6272 31.7511 90.7668 31.9589 90.8599 32.1898C90.953 32.4208 90.9995 32.6517 90.9995 32.9288C90.9995 33.2059 90.953 33.4368 90.8599 33.6677ZM89.5569 33.1366C89.7431 33.1135 89.8827 33.0442 89.999 32.9288C90.1153 32.8133 90.1852 32.6517 90.1852 32.4208C90.1852 32.1667 90.1153 31.982 89.9525 31.8435C89.8129 31.7049 89.5569 31.6356 89.2544 31.6356H88.2307V34.245H88.7193V33.1828H89.0683L89.7198 34.245H90.2317L89.5569 33.1366ZM89.301 32.744C89.2312 32.744 89.1614 32.744 89.0683 32.744H88.7193V32.0051H89.0683C89.1381 32.0051 89.2079 32.0051 89.301 32.0051C89.3708 32.0051 89.4406 32.0282 89.5104 32.0513C89.5802 32.0744 89.6267 32.1206 89.65 32.1667C89.6965 32.2129 89.6965 32.2822 89.6965 32.3746C89.6965 32.4669 89.6733 32.5362 89.65 32.5824C89.6035 32.6286 89.5569 32.6748 89.5104 32.6979C89.4406 32.721 89.3708 32.744 89.301 32.744Z" fill="black"/>
</svg>
