<svg id="Layer_1" data-name="Layer 1" xmlns="http://www.w3.org/2000/svg" xmlns:xlink="http://www.w3.org/1999/xlink" viewBox="0 0 500 220.95"><defs><style>.cls-1{fill:none;}.cls-2,.cls-3{fill:#000;}.cls-3{fill-rule:evenodd;}.cls-4{clip-path:url(#clip-path);}</style><clipPath id="clip-path" transform="translate(-250 -389.53)"><rect id="SVGID" class="cls-1" x="250" y="513.16" width="500" height="68.28"/></clipPath></defs><path class="cls-2" d="M341.63,595.84c0-2.13-.07-6.1-.65-7.12a2.15,2.15,0,0,0-1.73-.73l-.86-.07a.63.63,0,0,1,.07-.83c1.31.07,2.58.1,3.92.1s2.38,0,3.62-.1a.61.61,0,0,1,.07.83l-.83.07a2,2,0,0,0-1.72.83c-.48,1.13-.48,5.09-.48,7v3.89c0,3-.48,6.16-2.41,8.22a9,9,0,0,1-6.58,2.52,9.79,9.79,0,0,1-6.43-1.89c-1.83-1.52-2.69-4-2.69-8.12v-8.13c0-3.58-.07-4.17-2.07-4.34l-.85-.07c-.21-.14-.14-.73.06-.83,1.72.07,2.9.1,4.27.1s2.55,0,4.23-.1a.64.64,0,0,1,.08.83l-.83.07c-2,.17-2.06.76-2.06,4.34v7.44c0,5.54,1.71,9.18,7,9.18,5,0,6.89-3.92,6.89-9.15Z" transform="translate(-250 -389.53)"/><path class="cls-2" d="M386.61,604.07c0,1,0,5.13.1,6-.06.21-.27.38-.65.38-.41-.58-1.41-1.79-4.41-5.19l-8-9.09c-.93-1.07-3.27-3.89-4-4.65h-.06a8.53,8.53,0,0,0-.18,2.23v7.5c0,1.63,0,6.1.62,7.13.21.39.9.59,1.76.65l1.07.11a.64.64,0,0,1-.07.86c-1.55-.07-2.76-.1-4-.1-1.44,0-2.37,0-3.58.1a.63.63,0,0,1-.07-.86l.93-.11c.79-.1,1.34-.3,1.51-.69.49-1.23.45-5.43.45-7.09v-9.94a3.14,3.14,0,0,0-.76-2.48,3.72,3.72,0,0,0-2.13-.82l-.58-.07a.61.61,0,0,1,.06-.87c1.45.11,3.28.11,3.89.11a10.92,10.92,0,0,0,1.59-.11c.69,1.76,4.75,6.31,5.88,7.58l3.34,3.75c2.38,2.65,4.07,4.58,5.69,6.23h.06a3.39,3.39,0,0,0,.14-1.44v-7.37c0-1.62,0-6.09-.69-7.12-.2-.32-.76-.53-2.13-.69l-.59-.07c-.24-.21-.21-.76.07-.87,1.58.07,2.76.11,4.06.11,1.48,0,2.38,0,3.55-.11a.63.63,0,0,1,.07.87l-.48.07c-1.11.16-1.79.44-1.93.72-.59,1.24-.52,5.5-.52,7.09Z" transform="translate(-250 -389.53)"/><path class="cls-2" d="M412.25,592.43c0-3.65-.07-4.24-2.1-4.4l-.86-.07c-.21-.14-.14-.77.07-.87,1.72.07,2.89.1,4.34.1s2.54,0,4.26-.1a.69.69,0,0,1,.07.87l-.86.07c-2,.16-2.1.75-2.1,4.4v12.26c0,3.64.07,4.13,2.1,4.36l.86.11a.68.68,0,0,1-.07.86c-1.72-.07-2.89-.1-4.26-.1s-2.62,0-4.34.1a.66.66,0,0,1-.07-.86l.86-.11c2-.23,2.1-.72,2.1-4.36Z" transform="translate(-250 -389.53)"/><path class="cls-2" d="M440.13,590.85c-.79-1.93-1.31-2.66-2.79-2.82l-.62-.07a.59.59,0,0,1,.07-.87c1,.07,2.1.11,3.58.11s2.72,0,4.16-.11a.61.61,0,0,1,.07.87l-.51.07c-1.31.16-1.59.37-1.62.65a42.43,42.43,0,0,0,1.72,4.82c1.58,4,3.17,8,4.89,11.88,1.06-2.28,2.51-5.82,3.3-7.65,1-2.34,2.62-6.22,3.2-7.71a3.64,3.64,0,0,0,.32-1.34c0-.24-.35-.52-1.55-.65l-.63-.07a.62.62,0,0,1,.07-.87c1,.07,2.28.11,3.58.11,1.14,0,2.21,0,3.34-.11a.69.69,0,0,1,.07.87l-1,.07a2.19,2.19,0,0,0-1.79,1.2,82.11,82.11,0,0,0-3.86,7.92l-1.86,4.23c-1.37,3.17-3,7.16-3.58,9a.76.76,0,0,1-.37.1,1.6,1.6,0,0,1-.52-.1,41.42,41.42,0,0,0-1.58-4.58Z" transform="translate(-250 -389.53)"/><path class="cls-2" d="M481.57,592.37c0-3.59-.07-4.1-2.1-4.34l-.55-.07c-.21-.14-.14-.76.07-.87,1.48.07,2.64.11,4.06.11h6.47a43.45,43.45,0,0,0,4.65-.11,41,41,0,0,1,.55,4.58.66.66,0,0,1-.86.07c-.52-1.61-.83-2.82-2.62-3.27a16.66,16.66,0,0,0-3.34-.2h-2.48c-1,0-1,.06-1,1.37v6.89c0,1,.1,1,1.13,1h2a12.52,12.52,0,0,0,2.92-.21c.42-.13.66-.34.83-1.2l.28-1.41a.67.67,0,0,1,.89,0c0,.83-.14,2.17-.14,3.48s.14,2.55.14,3.3a.66.66,0,0,1-.89,0l-.32-1.34a1.46,1.46,0,0,0-1.06-1.31,11.47,11.47,0,0,0-2.65-.17h-2c-1,0-1.13,0-1.13.93v4.85c0,1.82.1,3,.64,3.58.42.41,1.14.79,4.17.79,2.65,0,3.65-.14,4.41-.52a8.48,8.48,0,0,0,2.44-3.34.64.64,0,0,1,.86.25,29.77,29.77,0,0,1-1.55,4.78c-3.1-.07-6.16-.1-9.22-.1h-3.1c-1.48,0-2.65,0-4.68.1a.66.66,0,0,1-.07-.86l1.13-.11c2-.16,2.14-.69,2.14-4.29Z" transform="translate(-250 -389.53)"/><path class="cls-2" d="M518.87,592.4c0-3.27-.1-3.86-1.51-4l-1.11-.14a.59.59,0,0,1,0-.86c1.93-.17,4.31-.28,7.68-.28a12.2,12.2,0,0,1,5.75,1,5.13,5.13,0,0,1,2.85,4.82c0,3.27-2.58,5.06-4.3,5.75-.17.2,0,.55.17.83,2.75,4.44,4.58,7.19,6.92,9.15a4.06,4.06,0,0,0,2.38,1,.3.3,0,0,1,0,.49,5.91,5.91,0,0,1-1.51.17c-2.93,0-4.68-.86-7.12-4.34-.9-1.27-2.31-3.65-3.38-5.19a2.47,2.47,0,0,0-2.45-1.11c-1.55,0-1.61,0-1.61.76v4.34c0,3.6.06,4,2.06,4.29l.72.11a.66.66,0,0,1-.06.86c-1.55-.07-2.72-.1-4.1-.1s-2.69,0-4.3.1a.65.65,0,0,1-.07-.86l.86-.11c2-.23,2.06-.69,2.06-4.29Zm2.83,4.92a2.82,2.82,0,0,0,.1,1.14c.1.1.62.17,2.38.17a5.74,5.74,0,0,0,3.54-.9c.93-.72,1.72-1.92,1.72-4.26,0-2.73-1.68-5.31-5.51-5.31-2.13,0-2.23.14-2.23,1.1Z" transform="translate(-250 -389.53)"/><path class="cls-2" d="M560.48,610.47a10.82,10.82,0,0,1-5.38-1.27,16.14,16.14,0,0,1-.92-4.82c.17-.25.68-.31.83-.1.51,1.75,1.92,5.12,5.92,5.12,2.88,0,4.3-1.88,4.3-4,0-1.51-.31-3.2-2.82-4.81l-3.27-2.14c-1.73-1.14-3.72-3.1-3.72-5.92,0-3.27,2.55-5.92,7-5.92a13.37,13.37,0,0,1,3.2.44,4.58,4.58,0,0,0,1.21.21,15.55,15.55,0,0,1,.61,4.21c-.13.2-.68.3-.85.1-.45-1.66-1.38-3.9-4.69-3.9s-4.09,2.24-4.09,3.83c0,2,1.65,3.44,2.92,4.23l2.76,1.72c2.17,1.34,4.3,3.34,4.3,6.61,0,3.79-2.86,6.37-7.33,6.37" transform="translate(-250 -389.53)"/><path class="cls-2" d="M591.21,592.43c0-3.65-.06-4.24-2.1-4.4l-.86-.07c-.21-.14-.13-.77.07-.87,1.72.07,2.89.1,4.33.1s2.55,0,4.28-.1a.69.69,0,0,1,.07.87l-.87.07c-2,.16-2.09.75-2.09,4.4v12.26c0,3.64.07,4.13,2.09,4.36l.87.11a.68.68,0,0,1-.07.86c-1.73-.07-2.89-.1-4.28-.1s-2.61,0-4.33.1a.67.67,0,0,1-.07-.86l.86-.11c2-.23,2.1-.72,2.1-4.36Z" transform="translate(-250 -389.53)"/><path class="cls-2" d="M629.43,604.76c0,3.6.06,4.13,2.06,4.29l1.11.11c.2.14.13.76-.08.86-2-.07-3.13-.1-4.51-.1s-2.58,0-4.78.1a.6.6,0,0,1,0-.86l1.24-.11c2-.16,2.13-.69,2.13-4.29v-15.4c0-1.06,0-1.09-1-1.09h-1.89c-1.49,0-3.37.06-4.24.86a6.34,6.34,0,0,0-1.55,2.38.68.68,0,0,1-.9-.25,35.2,35.2,0,0,0,1.31-5.13c.11-.06.56-.1.66,0,.21,1.1,1.35,1.07,2.93,1.07h13.94c1.86,0,2.17-.07,2.68-1,.18-.07.56,0,.62.1a20.43,20.43,0,0,0-.51,5.23.64.64,0,0,1-.9.07,4.46,4.46,0,0,0-.85-2.51,6.87,6.87,0,0,0-4-.86h-2.44c-1,0-1,0-1,1.17Z" transform="translate(-250 -389.53)"/><path class="cls-2" d="M668.66,604.69c0,3.67.2,4.23,2.07,4.36l1.31.11a.68.68,0,0,1-.07.86c-2.14-.07-3.31-.1-4.68-.1s-2.69,0-4.51.1a.66.66,0,0,1-.08-.86l1.07-.11c2-.2,2.06-.69,2.06-4.36v-1.76a7,7,0,0,0-1.09-4.27l-4.06-7.92c-1.18-2.27-1.69-2.44-2.73-2.61l-1-.17a.64.64,0,0,1,.07-.87c1.1.07,2.34.11,4,.11s2.81,0,3.68-.11c.3.11.3.66.1.87l-.44.07c-1.21.17-1.46.34-1.46.61A17.4,17.4,0,0,0,664,591.3c1.28,2.54,2.55,5.26,3.9,7.64,1.06-1.83,2.2-3.82,3.23-5.82a30.06,30.06,0,0,0,2.23-4.55c0-.2-.61-.44-1.44-.54l-.62-.07a.59.59,0,0,1,.07-.87c1.24.07,2.24.11,3.31.11s2,0,3.2-.11a.59.59,0,0,1,.07.87l-1,.17c-1.79.31-2.82,2.48-4.54,5.44l-2.17,3.75c-1.52,2.62-1.62,2.93-1.62,5.58Z" transform="translate(-250 -389.53)"/><path class="cls-3" d="M497.88,420.33a226.74,226.74,0,0,0-45,4.89c6.5,41.14,32.2,61.17,45,68.22Zm-19.25,8.28A16.42,16.42,0,1,0,495.05,445a16.44,16.44,0,0,0-16.42-16.42m.71,15.71h6.37a18.44,18.44,0,0,0-.49-3.62,37.18,37.18,0,0,1-5.88.57Zm5.49-5a19.14,19.14,0,0,0-1.59-3.63,31.75,31.75,0,0,1-3.9.35v3.81a37.25,37.25,0,0,0,5.49-.53m-2.41-4.94a20.6,20.6,0,0,0-3.08-3.61v3.84a26.43,26.43,0,0,0,3.08-.23m1.54-.25a29.37,29.37,0,0,0,3.79-1,14.85,14.85,0,0,0-7-2.94,22.06,22.06,0,0,1,3.18,3.94m-9.14.24a27,27,0,0,0,3.1.24v-3.87a20.78,20.78,0,0,0-3.1,3.63m1.63-4.18a15,15,0,0,0-6.94,2.94,27.9,27.9,0,0,0,3.77,1,22.66,22.66,0,0,1,3.17-3.93M474,435.7a18.86,18.86,0,0,0-1.59,3.63,37.39,37.39,0,0,0,5.51.53v-3.81a31.89,31.89,0,0,1-3.92-.35m-2,5a18.45,18.45,0,0,0-.5,3.62h6.4v-3.05a37.43,37.43,0,0,1-5.9-.57m-1.39-.27a37.24,37.24,0,0,1-5.6-1.71,14.88,14.88,0,0,0-1.37,5.6h6.45a20.33,20.33,0,0,1,.52-3.89m-7,5.31a14.74,14.74,0,0,0,1.37,5.6,38.39,38.39,0,0,1,5.6-1.7,20.33,20.33,0,0,1-.52-3.9Zm8.36,3.63a37.44,37.44,0,0,1,5.9-.58v-3.05h-6.4a18.45,18.45,0,0,0,.5,3.63m.39,1.36a19.35,19.35,0,0,0,1.6,3.65,28.4,28.4,0,0,1,3.91-.35v-3.82a36.07,36.07,0,0,0-5.51.52m2.41,4.95a20.48,20.48,0,0,0,3.1,3.64v-3.89c-1,0-2.07.12-3.1.25m-1.54.25a28,28,0,0,0-3.77,1,14.83,14.83,0,0,0,6.94,2.93,21.93,21.93,0,0,1-3.17-3.93m9.14-.26c-1-.13-2.05-.2-3.08-.24v3.86a20.3,20.3,0,0,0,3.08-3.62m-1.64,4.2a15.06,15.06,0,0,0,7-2.94,27.87,27.87,0,0,0-3.79-1,22.12,22.12,0,0,1-3.18,3.95m2.46-5.5a19.89,19.89,0,0,0,1.59-3.64,35.93,35.93,0,0,0-5.49-.52V454a30.2,30.2,0,0,1,3.9.34m2-5a18.44,18.44,0,0,0,.49-3.63h-6.37v3.05a37.19,37.19,0,0,1,5.88.58m1.38.27a38.76,38.76,0,0,1,5.63,1.7,14.79,14.79,0,0,0,1.37-5.6h-6.47a19.58,19.58,0,0,1-.53,3.9m7-5.32a14.88,14.88,0,0,0-1.37-5.6,37.6,37.6,0,0,1-5.63,1.71,19.58,19.58,0,0,1,.53,3.89ZM489,434.2a29.51,29.51,0,0,1-4.29,1.23,19.79,19.79,0,0,1,1.52,3.63,34.62,34.62,0,0,0,5.35-1.6A15.38,15.38,0,0,0,489,434.2m-23.3,3.26a34.59,34.59,0,0,0,5.32,1.6,20.24,20.24,0,0,1,1.53-3.63,30,30,0,0,1-4.26-1.23,15.11,15.11,0,0,0-2.59,3.26m2.59,18.41a28.56,28.56,0,0,1,4.27-1.23A19.88,19.88,0,0,1,471,451a35.7,35.7,0,0,0-5.32,1.59,14.93,14.93,0,0,0,2.59,3.27m23.29-3.27a35.75,35.75,0,0,0-5.35-1.6,20.3,20.3,0,0,1-1.52,3.64,29.88,29.88,0,0,1,4.29,1.23,15.19,15.19,0,0,0,2.58-3.27" transform="translate(-250 -389.53)"/><path class="cls-2" d="M451.39,405.28v-8.44a2.45,2.45,0,0,1,1.85-2.37h.06a223.81,223.81,0,0,1,93.34,0l0,0a2.43,2.43,0,0,1,1.93,2.38v8.44a130.68,130.68,0,0,1-.94,15.73,231.84,231.84,0,0,0-95.34,0,130.73,130.73,0,0,1-.94-15.74m48.6-8.63c-7.34-2.7-17.85-3.29-24.23-1.95L473,396.87l-.74.11a.74.74,0,0,0-.54.37l-7.76,17.17a.53.53,0,0,0,.58.79A193.82,193.82,0,0,1,500,412.37h0a193.75,193.75,0,0,1,35.48,2.94.53.53,0,0,0,.58-.79l-7.76-17.17a.74.74,0,0,0-.53-.37l-.75-.11-2.79-2.17c-6.38-1.34-16.89-.75-24.23,1.95Z" transform="translate(-250 -389.53)"/><path class="cls-2" d="M499.41,410a61,61,0,0,0-28.35-2.13l3.86-11-2.56,1.94L467,412.71a245.57,245.57,0,0,1,31.08-2.34,3.06,3.06,0,0,1,1.3-.35" transform="translate(-250 -389.53)"/><path class="cls-2" d="M500.48,410a61,61,0,0,1,28.36-2.13l-3.88-11,2.57,1.94,5.32,13.86a245.43,245.43,0,0,0-31.08-2.34,3,3,0,0,0-1.29-.35" transform="translate(-250 -389.53)"/><path class="cls-2" d="M502.12,451.29v42.15a76.38,76.38,0,0,0,9-5.89V457.27Z" transform="translate(-250 -389.53)"/><path class="cls-2" d="M511.12,420.6c-3-.14-6-.24-9-.27v10l9,6Z" transform="translate(-250 -389.53)"/><path class="cls-2" d="M529.12,448.3V422.2c-3-.38-6-.73-9-1v21.11Z" transform="translate(-250 -389.53)"/><path class="cls-2" d="M520.12,463.27v16.46a89.34,89.34,0,0,0,9-10.45v0Z" transform="translate(-250 -389.53)"/><path class="cls-2" d="M529.12,469.28h0Z" transform="translate(-250 -389.53)"/><path class="cls-2" d="M538.14,454.3a103.91,103.91,0,0,0,9-29.09c-3-.63-6-1.19-9-1.69v30.77Z" transform="translate(-250 -389.53)"/><polygon class="cls-2" points="261.12 46.8 261.12 67.75 270.12 73.74 270.12 52.78 261.12 46.8"/><path class="cls-2" d="M538.12,454.29l-9-6v21h0a94,94,0,0,0,9-14.92Z" transform="translate(-250 -389.53)"/><path class="cls-2" d="M538.12,454.35a.17.17,0,0,1,0-.05h0Z" transform="translate(-250 -389.53)"/><g class="cls-4"><path class="cls-2" d="M264.3,525.41c0-8.77-.79-9.72-5.45-10.12l-2-.15c-.47-.32-.31-1.74.16-2,4.59.16,7.27.24,10.59.24,3.16,0,5.85-.08,9-.24.47.24.63,1.66.15,2l-1.18.15c-4.66.64-4.82,1.75-4.82,10.12v29.32c0,6.24-.32,11.7-1.81,15.33-2.62,6.33-8.22,11.38-15.57,11.38-1,0-3.4-.08-3.4-1.66,0-1.34,1.18-3.63,2.84-3.63a9.72,9.72,0,0,1,2.93.47,12,12,0,0,0,3.32.55,3.37,3.37,0,0,0,3.16-2c1.81-3.71,2.05-15.57,2.05-19.83Z" transform="translate(-250 -389.53)"/></g><path class="cls-2" d="M276.62,544c0-13.33,10-23.53,23.73-23.53,15.4,0,23.14,11.13,23.14,22.87a22.77,22.77,0,0,1-23.14,23.27c-14.8,0-23.73-10.61-23.73-22.61m40.2,1.4c0-11-4.87-22.86-17.6-22.86-6.93,0-15.93,4.73-15.93,19.33,0,9.86,4.8,22.67,17.93,22.67,8,0,15.6-6,15.6-19.14" transform="translate(-250 -389.53)"/><path class="cls-2" d="M338.63,544c-3.2,0-3.33.13-3.33,2.13v9.4c0,7,.33,7.93,4.06,8.33l1.94.2c.4.26.27,1.47-.14,1.66-3.6-.13-5.86-.19-8.47-.19-2.86,0-5.12.13-7.72.19-.41-.19-.53-1.26-.13-1.66l1.13-.2c3.73-.66,3.86-1.33,3.86-8.33v-24c0-7-.46-8.14-3.93-8.41l-1.74-.13c-.4-.26-.26-1.47.14-1.66,3.27.06,5.53.19,8.39.19,2.61,0,4.87-.06,7.74-.19.4.19.54,1.4.13,1.66l-1.26.13c-3.87.41-4,1.4-4,8.41v7.66c0,2.07.13,2.14,3.33,2.14H357.7c3.2,0,3.33-.07,3.33-2.14v-7.66c0-7-.13-8-4.06-8.41L355.7,523c-.4-.26-.27-1.47.13-1.66,3.06.13,5.33.19,8.07.19s4.87-.06,7.87-.19c.39.19.53,1.4.13,1.66l-1.4.13c-3.87.41-4,1.4-4,8.41v24c0,7,.14,7.86,4,8.33l1.59.2c.41.26.27,1.47-.12,1.66-3.2-.13-5.48-.19-8.07-.19s-5.13.06-8.07.19a1.28,1.28,0,0,1-.13-1.66l1.27-.2c4.06-.66,4.06-1.33,4.06-8.33v-9.4c0-2-.13-2.13-3.33-2.13Z" transform="translate(-250 -389.53)"/><path class="cls-2" d="M417.64,554.22c0,2,0,9.94.19,11.67a1.19,1.19,0,0,1-1.26.73c-.8-1.12-2.74-3.46-8.54-10.06L392.57,539c-1.8-2.07-6.34-7.53-7.73-9h-.14a16.79,16.79,0,0,0-.33,4.33v14.54c0,3.12.06,11.79,1.2,13.79.4.74,1.73,1.14,3.4,1.27l2.06.2a1.2,1.2,0,0,1-.13,1.66c-3-.13-5.33-.2-7.8-.2-2.79,0-4.59.07-6.94.2a1.22,1.22,0,0,1-.12-1.66l1.8-.2c1.53-.2,2.59-.6,2.93-1.33.93-2.41.87-10.53.87-13.73V529.56c0-1.87-.07-3.27-1.47-4.8a7.31,7.31,0,0,0-4.13-1.61l-1.13-.12a1.17,1.17,0,0,1,.13-1.67c2.8.19,6.33.19,7.53.19a22.17,22.17,0,0,0,3.07-.19c1.33,3.4,9.2,12.2,11.39,14.66l6.47,7.27c4.6,5.13,7.87,8.87,11,12.06h.14a6.85,6.85,0,0,0,.26-2.79V538.29c0-3.13-.07-11.8-1.33-13.8-.4-.6-1.47-1-4.13-1.34l-1.13-.12c-.47-.4-.41-1.48.12-1.67,3.07.13,5.34.19,7.87.19,2.87,0,4.6-.06,6.87-.19a1.18,1.18,0,0,1,.13,1.67l-.93.12c-2.13.34-3.47.88-3.74,1.4-1.12,2.41-1,10.67-1,13.74Z" transform="translate(-250 -389.53)"/><path class="cls-2" d="M435.26,566.62a20.93,20.93,0,0,1-10.41-2.46c-.79-1.47-1.66-6.2-1.8-9.33.34-.47,1.34-.61,1.61-.21,1,3.4,3.73,9.94,11.46,9.94,5.6,0,8.34-3.67,8.34-7.67,0-2.94-.6-6.2-5.47-9.33l-6.33-4.14c-3.34-2.2-7.2-6-7.2-11.46,0-6.34,4.93-11.47,13.59-11.47a25.48,25.48,0,0,1,6.2.87,8.84,8.84,0,0,0,2.33.4,28.73,28.73,0,0,1,1.21,8.13,1.34,1.34,0,0,1-1.67.2c-.86-3.2-2.66-7.53-9.06-7.53s-7.94,4.33-7.94,7.4c0,3.86,3.21,6.66,5.67,8.2l5.33,3.33c4.2,2.6,8.34,6.46,8.34,12.8,0,7.33-5.54,12.33-14.2,12.33" transform="translate(-250 -389.53)"/><path class="cls-2" d="M489,540c-3.8,0-4,.16-4,2.53V553.7c0,8.3.4,9.41,4.82,9.88l2.3.24c.47.32.31,1.73-.16,2-4.27-.16-7-.24-10-.24-3.39,0-6.08.16-9.16.24a1.51,1.51,0,0,1-.16-2l1.34-.24c4.43-.79,4.59-1.58,4.59-9.88V525.25c0-8.3-.56-9.63-4.67-10l-2.05-.16c-.47-.32-.32-1.74.16-2,3.87.08,6.56.24,9.95.24,3.08,0,5.77-.08,9.17-.24.47.24.63,1.66.15,2l-1.5.16c-4.58.48-4.74,1.65-4.74,10v9.09c0,2.45.16,2.53,4,2.53h22.59c3.8,0,4-.08,4-2.53v-9.09c0-8.3-.15-9.47-4.82-10l-1.5-.16c-.47-.32-.31-1.74.17-2,3.62.16,6.31.24,9.56.24,3.07,0,5.76-.08,9.32-.24.47.24.63,1.66.15,2l-1.65.16c-4.59.48-4.75,1.65-4.75,10V553.7c0,8.3.16,9.33,4.75,9.88l1.89.24c.48.32.32,1.73-.16,2-3.79-.16-6.48-.24-9.55-.24-3.25,0-6.09.08-9.56.24a1.53,1.53,0,0,1-.17-2l1.5-.24c4.82-.79,4.82-1.58,4.82-9.88V542.56c0-2.37-.15-2.53-4-2.53Z" transform="translate(-250 -389.53)"/><path class="cls-2" d="M528.19,544c0-13.33,10-23.53,23.74-23.53,15.4,0,23.13,11.13,23.13,22.87a22.77,22.77,0,0,1-23.13,23.27c-14.8,0-23.74-10.61-23.74-22.61m40.21,1.4c0-11-4.87-22.86-17.61-22.86-6.93,0-15.93,4.73-15.93,19.33,0,9.86,4.8,22.67,17.93,22.67,8,0,15.61-6,15.61-19.14" transform="translate(-250 -389.53)"/><path class="cls-2" d="M587.13,555.56c0,7,.13,7.86,4.39,8.33l1.81.2a1.3,1.3,0,0,1-.14,1.67c-3.79-.14-6-.2-8.67-.2s-5.19.06-8.13.2a1.3,1.3,0,0,1-.13-1.67l1.4-.2c3.87-.53,4-1.33,4-8.33V531c0-5.67-.13-6.81-3.13-7.14l-2.4-.26a1.12,1.12,0,0,1,.13-1.67,104.29,104.29,0,0,1,13.2-.54c5.53,0,9.67.74,12.8,2.68a11.51,11.51,0,0,1,5.33,10,11.3,11.3,0,0,1-6.66,10.6,22.55,22.55,0,0,1-9.21,2c-.46-.2-.46-1.2-.06-1.33,7.2-1.33,9.8-5.4,9.8-11.2,0-6.47-3.8-10.67-10.73-10.67-3.53,0-3.6.27-3.6,2.41Z" transform="translate(-250 -389.53)"/><path class="cls-2" d="M614.87,531.55c0-7-.14-8.06-4-8.39L609.2,523a1.33,1.33,0,0,1,.13-1.68c3.26.14,5.4.2,8.4.2,2.6,0,4.87-.06,7.74-.2.39.2.53,1.4.13,1.68l-1.27.13c-3.87.4-4,1.4-4,8.39v7.68c0,1.26.13,2.53.87,2.53a3.7,3.7,0,0,0,1.86-.74c.94-.8,2.67-2.53,3.41-3.2l7.19-7.13a71.91,71.91,0,0,0,5.2-5.54,1.91,1.91,0,0,0,.47-1.06c0-.26-.27-.47-1.13-.67l-1.8-.39a1.13,1.13,0,0,1,.13-1.68c2.33.14,5,.2,7.34.2s4.59-.06,6.59-.2a1.26,1.26,0,0,1,.14,1.68,16.49,16.49,0,0,0-6.2,1.86,67,67,0,0,0-9.34,7.74l-6,5.66c-.93.94-1.53,1.53-1.53,2.07s.4,1,1.27,2.06c6.33,7.27,11.46,13.27,16.66,18.73a8.32,8.32,0,0,0,5.34,2.74l1.8.2a1.17,1.17,0,0,1-.14,1.67c-1.73-.14-4.33-.21-7.46-.21-2.73,0-5.07.07-8.14.21-.46-.14-.66-1.27-.26-1.67l1.53-.27c.93-.13,1.6-.33,1.6-.66s-.47-.94-.93-1.54c-1.27-1.6-3-3.4-5.54-6.27l-5.33-6c-3.8-4.26-4.87-5.59-6.47-5.59-1,0-1.13.86-1.13,3.2v8.6c0,7,.13,7.93,3.87,8.33l1.8.2a1.32,1.32,0,0,1-.14,1.67c-3.26-.14-5.53-.21-8.13-.21s-5,.07-7.73.21a1.29,1.29,0,0,1-.14-1.67l1.34-.2c3.53-.53,3.67-1.34,3.67-8.33Z" transform="translate(-250 -389.53)"/><path class="cls-2" d="M660.62,531.69c0-7.07-.13-8.2-4.06-8.53l-1.67-.13c-.4-.27-.27-1.48.13-1.68,3.34.14,5.6.2,8.4.2s4.94-.06,8.27-.2c.4.2.53,1.41.13,1.68l-1.66.13c-3.94.33-4.07,1.46-4.07,8.53v23.73c0,7.07.13,8,4.07,8.47l1.66.2c.4.27.27,1.46-.13,1.67-3.33-.14-5.6-.21-8.27-.21s-5.06.07-8.4.21a1.3,1.3,0,0,1-.13-1.67l1.67-.2c3.93-.47,4.06-1.4,4.06-8.47Z" transform="translate(-250 -389.53)"/><path class="cls-2" d="M718.29,554.22c0,2,0,9.94.2,11.67a1.19,1.19,0,0,1-1.26.73c-.8-1.12-2.74-3.46-8.54-10.06L693.23,539c-1.8-2.07-6.34-7.53-7.74-9h-.13a16.68,16.68,0,0,0-.34,4.33v14.54c0,3.12.07,11.79,1.21,13.79.4.74,1.73,1.14,3.4,1.27l2.06.2a1.21,1.21,0,0,1-.13,1.66c-3-.13-5.33-.2-7.8-.2-2.8,0-4.6.07-6.94.2a1.23,1.23,0,0,1-.13-1.66l1.8-.2c1.54-.2,2.6-.6,2.93-1.33.94-2.41.87-10.53.87-13.73V529.56c0-1.87-.06-3.27-1.46-4.8a7.37,7.37,0,0,0-4.14-1.61l-1.13-.12a1.17,1.17,0,0,1,.13-1.67c2.8.19,6.34.19,7.54.19a22,22,0,0,0,3.06-.19c1.34,3.4,9.2,12.2,11.4,14.66l6.47,7.27c4.6,5.13,7.86,8.87,11,12.06h.13a6.61,6.61,0,0,0,.27-2.79V538.29c0-3.13-.07-11.8-1.33-13.8-.4-.6-1.47-1-4.13-1.34L709,523c-.47-.4-.4-1.48.13-1.67,3.07.13,5.34.19,7.87.19,2.87,0,4.6-.06,6.87-.19A1.18,1.18,0,0,1,724,523l-.93.12c-2.14.34-3.47.88-3.74,1.4-1.13,2.41-1,10.67-1,13.74Z" transform="translate(-250 -389.53)"/><path class="cls-2" d="M735.8,566.62a20.88,20.88,0,0,1-10.4-2.46c-.8-1.47-1.67-6.2-1.8-9.33.33-.47,1.34-.61,1.59-.21,1,3.4,3.74,9.94,11.47,9.94,5.6,0,8.34-3.67,8.34-7.67,0-2.94-.6-6.2-5.47-9.33l-6.33-4.14c-3.34-2.2-7.2-6-7.2-11.46,0-6.34,4.93-11.47,13.6-11.47a25.62,25.62,0,0,1,6.2.87,8.78,8.78,0,0,0,2.33.4,28.77,28.77,0,0,1,1.2,8.13,1.34,1.34,0,0,1-1.67.2c-.86-3.2-2.66-7.53-9.06-7.53s-7.94,4.33-7.94,7.4c0,3.86,3.21,6.66,5.67,8.2l5.34,3.33c4.2,2.6,8.33,6.46,8.33,12.8,0,7.33-5.54,12.33-14.2,12.33" transform="translate(-250 -389.53)"/></svg>