<svg xmlns="http://www.w3.org/2000/svg" xmlns:xlink="http://www.w3.org/1999/xlink" version="1.1" id="Layer_1" x="0px" y="0px" style="enable-background:new 0 0 1000 465.86;" xml:space="preserve" viewBox="155.29 153.16 689.42 159.54">
<g>
	<path d="M155.29,155.29v155.29h64.24v-77.64v-77.64H155.29z"/>
	<path d="M295.48,232.93l18.7-27.93c4.71-7.04,7.04-13.28,7.04-21.21c0-16.31-13.06-30.63-31.7-30.63   c-12.88,0-22.16,6.12-30.21,18.51l-39.78,61.26l39.78,61.26c8.04,12.39,17.33,18.51,30.21,18.51c18.64,0,31.7-14.32,31.7-30.63   c0-7.93-2.33-14.17-7.04-21.21L295.48,232.93z"/>
	<path d="M486.87,193.78c-22.4,0-38.57,18.04-38.57,38.37c0,20.95,15.35,38.16,38.47,38.16c17.42,0,30.48-9.85,36.39-23.23H504.6   c-3.42,5.08-9.02,8.19-17.52,8.19c-11.99,0-19.68-6.55-21.86-16.9h59.19c0.31-1.97,0.52-3.94,0.52-6.53   C524.93,212.54,510.82,193.78,486.87,193.78z M486.77,208.6c12.06,0,19.25,6.63,21.22,16.59h-42.67   C467.69,215.02,475.59,208.6,486.77,208.6L486.77,208.6z"/>
	<path d="M449.02,195.64v-0.93h-20.63l-33.7,36.4l34.01,38.26h21.98v-0.93l-34.27-37.85L449.02,195.64z"/>
	<path d="M377.68,194.71v74.66h17.01v-38.26v-36.4H377.68z"/>
	<path d="M844.71,231.83c0-19.29-14.1-38.05-38.06-38.05c-22.4,0-38.57,18.04-38.57,38.37c0,20.95,15.35,38.16,38.47,38.16   c17.42,0,30.48-9.85,36.4-23.23h-18.56c-3.42,5.08-9.02,8.19-17.52,8.19c-11.99,0-19.68-6.55-21.86-16.9h59.19   C844.51,236.39,844.71,234.42,844.71,231.83z M806.55,208.6c12.06,0,19.26,6.63,21.22,16.59h-42.67   C787.48,215.02,795.38,208.6,806.55,208.6z"/>
	<path d="M740.4,237.12c0,10.16-6.43,17.32-17.22,17.32c-10.68,0-17-7.15-17-17.32v-42.41h-17.01v43.45   c0,18.15,12.96,32.14,33.6,32.14c20.95,0,34.63-14.83,34.63-32.14v-43.45h-17V237.12z"/>
	<path d="M570.03,193.78c-20.53,0-34.84,15.14-34.84,32.46v43.14h17.01v-42.1c0-10.47,6.43-17.63,17.42-17.63   s17.32,7.15,17.32,17.63v42.1h17.01v-43.14C603.94,208.19,591.6,193.78,570.03,193.78z"/>
	<path d="M644.16,237.8l-21.04-43.09h-18.15l38.47,76.42h0.83l38.37-76.42h-17.52L644.16,237.8z"/>
</g>
</svg>