<svg version="1.2" xmlns="http://www.w3.org/2000/svg" viewBox="0 0 1545 447" width="1545" height="447">
	<title>logo (2)-svg</title>
	<style>
		.s0 { fill: #000000 } 
	</style>
	<path id="Layer" fill-rule="evenodd" class="s0" d="m1407.6 0.7c4.7 1.1 9.2 2.4 13.9 3.2 37.4 6.6 70.7 22 99 48 2.2 2 4.2 4.3 6.7 6.9-18.3 21.2-38.2 40.3-56.8 61.5-1.5-1.4-2.6-2.4-3.6-3.5-19.6-21.4-43.7-34.1-72.2-37.9-9.9-1.3-20-1.2-29.9 1.5-14.7 4-26.1 12.2-30.5 27.8-4.1 14.8 1.3 29.6 13.5 38.8 11 8.3 23.4 13.7 36.2 18.3 22.9 8.3 46.2 15.8 68.8 24.9 23 9.3 44.6 21.5 61.4 40.8 15.6 17.7 25.7 37.9 29 61.7 4.7 33.9-3.8 64.4-21.9 92.6-11 17.2-26.3 30-44 39.6-22.3 12.2-46.1 19.1-71.3 20.5-11.4 0.7-22.8 1.6-34.1 1.2-32.8-1-64.5-7.4-94.1-22.1-22.2-11.1-41.4-26.2-57.6-45.3-0.5-0.6-0.8-1.4-1.4-2.5 19-20.1 37.9-40.3 57.4-61.1 2.5 2.7 4.7 5 6.7 7.4 12.5 14.2 27 25.5 44.1 33.2 11.7 5.3 23.9 8.4 36.7 10.1 12.3 1.6 24.3 0.5 36.2-2.3 11.6-2.8 21.8-8.7 28.6-19 13.4-20.1 7.6-42-10.7-55.1-9-6.5-19.3-11.4-29.5-15.5-16.6-6.7-33.7-12.2-50.5-18.2-17.1-6.2-34-13-49.5-22.9-27.3-17.3-46.9-40.7-54-73.3-6.5-29.5-2.1-57.5 11.9-84.1 17.1-32.8 43.4-54.5 77.6-66.5 10-3.5 20.2-6.1 30.8-7.3 0.9-0.1 1.7-0.9 2.6-1.4zm-788.8 0c4.4 3.3 7.4 7.7 9.5 12.9q19 45.2 38.1 90.3c11.6 27.3 23.3 54.6 35 81.9 13.3 31.3 26.5 62.7 39.9 94 9.9 23.3 19.9 46.5 29.9 69.7q18 41.6 35.9 83.2c0.7 1.8 1.2 3.6 2 5.9h-111.3c-4.4-11-9-22.2-13.5-33.3-1.4-3.6-2.8-7.2-4.1-10.8-1.3-3.9-3.6-5.7-7.9-5.5-6.7 0.4-13.5 0.1-20.3 0.1h-108.3c-1.7 0-3.3 0.2-4.9 0-3.4-0.3-5.4 1-6.7 4.5-4.6 12-9.5 24-14.4 35.9-1.2 3.1-2.5 6-3.9 9.2h-93.6c0.5-2.2 0.6-4.1 1.3-5.7 18-41.9 36.1-83.7 54-125.6 22.1-51.6 44.1-103.1 66-154.7 13.4-31.3 26.6-62.6 39.9-94 6.2-14.7 12.4-29.3 18.5-44.1 2.4-5.7 5.4-10.7 10.8-13.9 0 0 8.1 0 8.1 0zm-54.6 312.8c2.2 0.4 3.2 0.7 4.2 0.7q38.6-0.1 77.2-0.4c0.2 0 0.5-0.2 0.7-0.4 0.1-0.2 0.2-0.5 0.6-1.5l-40.2-100.5h-1.6zm-564.2-307.7c7.8 1.2 13.4 4.8 18.3 9.8 20.5 21 41 41.9 61.6 62.8q52.7 53.7 105.4 107.3c1.5 1.5 3.1 2.9 5 4.7 2-1.9 3.9-3.4 5.6-5.1 55.3-56.3 110.6-112.6 165.8-168.9 5.2-5.2 10.7-9.2 17.8-10.4 0.5 0.3 0.7 0.5 0.9 0.7 0.2 0.2 0.4 0.4 0.4 0.6 0.2 1.1 0.3 2.2 0.3 3.3v427c-5.9 1.7-72.9 2.3-87.7 0.8v-205.8c-7.4 5.5-12.2 11.6-17.7 17-5.9 5.8-11.6 11.7-17.3 17.6l-16.7 17-16.7 17c-5.8 5.8-11.7 11.6-17.4 17.5-5.5 5.7-10.9 11.6-16.9 17.9l-101.7-103.4c-0.7 0.5-0.9 0.6-1.1 0.8-0.1 0.2-0.3 0.4-0.3 0.7q-0.1 0.8-0.1 1.6-0.1 100.4-0.2 200.8c0 0.2-0.2 0.4-0.3 0.7-5.6 1.5-74.8 1.9-87 0.5zm847.6 432.3v-430c1.9-0.2 4-0.5 6.1-0.5 45.6-0.1 91.2-0.4 136.8 0.1 22.7 0.2 45.4 1.7 67.4 8.2 27.3 8 50.5 22.6 68 45.6 13.8 18.2 20.7 38.9 22.7 61.8 1.5 17.5-0.2 34.5-5.2 51.3-7.6 25.2-22.8 44.8-43.7 60-2.4 1.7-4.8 3.4-7.7 5.5 4.1 3.2 7.5 5.9 10.9 8.6 13.1 10.3 22.7 23.6 31 37.9 10.9 18.6 18.2 38.7 25.1 59q13.9 40.9 27.8 81.8c1.2 3.6 2.2 7.2 3.5 11.5h-103.7c-1.7 0-3.3 0-4.9 0-2.6 0.1-4-1.1-4.6-3.6-3.3-13.9-6.4-27.8-10-41.6-7.2-27.9-14.4-55.9-27.9-81.6-8.5-16.3-20.9-28-39.3-31.8-5.5-1.2-11.2-2-16.8-2.2-10.3-0.4-20.7-0.1-31-0.1-1 0-2.1 0.5-2.7 0.7-0.5 0.5-0.7 0.7-0.9 0.9-0.1 0.3-0.2 0.5-0.3 0.8-0.1 0.2-0.2 0.5-0.2 0.8q-0.1 0.8-0.1 1.6 0 77.2-0.1 154.3c0 0.2-0.2 0.5-0.3 0.7-6 1.4-91.1 1.7-99.9 0.3zm101.1-353.8c-1.4 10.9-1 109.1 0.4 115.8 17.9-0.4 36 1.4 54-2.1 14.5-2.8 26.8-9.7 35.2-22.8 5.1-8.1 7.4-16.9 8.4-26.4 1.5-13.3-0.6-25.8-7.1-37.3-9.8-17.3-25.9-24.5-44.5-26.1-12.9-1.2-25.9-1.1-38.9-1.5-2.4-0.1-4.8 0.3-7.5 0.4z"/>
</svg>