<svg width="135" height="29" viewBox="0 0 135 29" fill="none" xmlns="http://www.w3.org/2000/svg">
<g clip-path="url(#clip0_155_11002)">
<path d="M56.1433 5.80012V23.2001H53.1442V9.54595H53.1042L47.7458 23.2001H45.7464L40.268 9.54595H40.2281V23.2001H37.4689V5.80012H41.7876L46.7461 18.689H46.8261L52.0645 5.80012H56.1433ZM58.6226 7.12929C58.6226 6.64595 58.7826 6.24317 59.1424 5.92095C59.5023 5.59873 59.9022 5.43762 60.3821 5.43762C60.9019 5.43762 61.3418 5.59873 61.6617 5.92095C61.9816 6.24317 62.1816 6.64595 62.1816 7.12929C62.1816 7.61262 62.0216 8.0154 61.6617 8.33762C61.3018 8.65984 60.9019 8.82095 60.3821 8.82095C59.8622 8.82095 59.4624 8.65984 59.1424 8.33762C58.8225 7.97512 58.6226 7.57234 58.6226 7.12929ZM61.8616 10.714V23.2001H58.9425V10.714H61.8616ZM70.699 21.0654C71.1389 21.0654 71.6188 20.9848 72.1386 20.7432C72.6584 20.5418 73.1383 20.2598 73.5782 19.9376V22.6765C73.0983 22.9585 72.5785 23.1598 71.9786 23.2807C71.3788 23.4015 70.739 23.4821 70.0192 23.4821C68.1798 23.4821 66.7002 22.9182 65.5805 21.7501C64.4209 20.5821 63.8611 19.0918 63.8611 17.3196C63.8611 15.3057 64.4609 13.6543 65.6205 12.3654C66.7802 11.0765 68.4197 10.4321 70.5791 10.4321C71.1389 10.4321 71.6987 10.5126 72.2186 10.6335C72.7784 10.7543 73.2183 10.9557 73.5382 11.1168V13.9362C73.0983 13.614 72.6185 13.3321 72.1786 13.171C71.6987 13.0098 71.2189 12.889 70.739 12.889C69.5794 12.889 68.6596 13.2515 67.9398 14.0168C67.2201 14.7821 66.9002 15.789 66.9002 17.0779C66.9002 18.3265 67.26 19.3335 67.9398 20.0182C68.6196 20.7029 69.5394 21.0654 70.699 21.0654ZM81.8557 10.5126C82.0956 10.5126 82.2956 10.5126 82.4955 10.5529C82.6955 10.5932 82.8554 10.6335 82.9754 10.6737V13.6543C82.8154 13.5335 82.6155 13.4126 82.2956 13.3321C81.9757 13.2515 81.6558 13.171 81.2159 13.171C80.4961 13.171 79.8963 13.4932 79.4164 14.0973C78.9366 14.7015 78.6567 15.6279 78.6567 16.9168V23.2001H75.7375V10.714H78.6567V12.6876H78.6967C78.9766 12.0029 79.3765 11.4793 79.8963 11.0765C80.4561 10.714 81.0959 10.5126 81.8557 10.5126ZM83.1353 17.1585C83.1353 15.1043 83.7352 13.4529 84.8548 12.2446C86.0145 11.0362 87.614 10.4321 89.6534 10.4321C91.5728 10.4321 93.0924 10.996 94.1721 12.164C95.2518 13.3321 95.8116 14.9029 95.8116 16.8765C95.8116 18.8904 95.2118 20.5015 94.0921 21.7098C92.9324 22.9182 91.3729 23.5223 89.3735 23.5223C87.4541 23.5223 85.9345 22.9585 84.8148 21.8307C83.6952 20.6626 83.1353 19.0918 83.1353 17.1585ZM86.1744 17.0376C86.1744 18.3265 86.4544 19.3335 87.0542 20.0182C87.654 20.7029 88.4938 21.0654 89.5734 21.0654C90.6131 21.0654 91.4529 20.7432 92.0127 20.0182C92.5725 19.3335 92.8525 18.3265 92.8525 16.9571C92.8525 15.6279 92.5725 14.621 92.0127 13.896C91.4529 13.2112 90.6131 12.8487 89.6134 12.8487C88.5337 12.8487 87.734 13.2112 87.1342 13.9362C86.4544 14.7015 86.1744 15.7085 86.1744 17.0376ZM100.17 14.0168C100.17 14.4196 100.29 14.7821 100.57 15.0237C100.85 15.2654 101.41 15.5473 102.33 15.9098C103.489 16.3932 104.329 16.9168 104.769 17.4807C105.249 18.0848 105.489 18.7696 105.489 19.6154C105.489 20.7835 105.049 21.7098 104.129 22.4348C103.249 23.1598 102.01 23.4821 100.49 23.4821C99.9704 23.4821 99.4105 23.4015 98.7707 23.2807C98.1309 23.1598 97.6111 22.9987 97.1712 22.7973V19.8973C97.691 20.2598 98.2909 20.5821 98.8907 20.7835C99.4905 20.9848 100.05 21.1057 100.57 21.1057C101.21 21.1057 101.73 21.0251 102.01 20.8237C102.33 20.6223 102.49 20.3404 102.49 19.8973C102.49 19.4946 102.33 19.1723 102.01 18.8501C101.69 18.5682 101.05 18.246 100.17 17.8835C99.0906 17.4404 98.3308 16.9168 97.891 16.3529C97.4511 15.789 97.2112 15.064 97.2112 14.1779C97.2112 13.0501 97.651 12.1237 98.5308 11.3987C99.4105 10.6737 100.57 10.3112 101.97 10.3112C102.41 10.3112 102.889 10.3515 103.409 10.4723C103.929 10.5932 104.409 10.714 104.769 10.8348V13.6946C104.369 13.4529 103.929 13.2112 103.409 13.0098C102.889 12.8085 102.37 12.7279 101.89 12.7279C101.33 12.7279 100.89 12.8487 100.61 13.0501C100.33 13.3321 100.17 13.614 100.17 14.0168ZM106.728 17.1585C106.728 15.1043 107.328 13.4529 108.448 12.2446C109.608 11.0362 111.207 10.4321 113.246 10.4321C115.166 10.4321 116.685 10.996 117.765 12.164C118.845 13.3321 119.405 14.9029 119.405 16.8765C119.405 18.8904 118.805 20.5015 117.685 21.7098C116.525 22.9182 114.966 23.5223 112.966 23.5223C111.047 23.5223 109.528 22.9585 108.408 21.8307C107.328 20.6626 106.728 19.0918 106.728 17.1585ZM109.767 17.0376C109.767 18.3265 110.047 19.3335 110.647 20.0182C111.247 20.7029 112.087 21.0654 113.166 21.0654C114.206 21.0654 115.046 20.7432 115.606 20.0182C116.166 19.3335 116.445 18.3265 116.445 16.9571C116.445 15.6279 116.166 14.621 115.606 13.896C115.046 13.2112 114.206 12.8487 113.206 12.8487C112.127 12.8487 111.327 13.2112 110.727 13.9362C110.087 14.7015 109.767 15.7085 109.767 17.0376ZM129.122 13.1307H124.763V23.2001H121.804V13.1307H119.724V10.714H121.804V8.98206C121.804 7.69317 122.244 6.60567 123.084 5.75984C123.923 4.91401 125.003 4.51123 126.323 4.51123C126.682 4.51123 127.002 4.55151 127.282 4.55151C127.562 4.55151 127.802 4.63206 128.002 4.71262V7.25012C127.922 7.20984 127.722 7.12929 127.482 7.04873C127.242 6.96817 126.962 6.9279 126.642 6.9279C126.043 6.9279 125.563 7.12929 125.243 7.49179C124.923 7.85429 124.763 8.45845 124.763 9.18345V10.6737H129.122V7.85429L132.041 6.96817V10.6737H135V13.0904H132.041V18.9307C132.041 19.696 132.201 20.2196 132.441 20.5418C132.721 20.864 133.161 21.0251 133.76 21.0251C133.92 21.0251 134.12 20.9848 134.36 20.9043C134.6 20.8237 134.8 20.7432 134.96 20.6223V23.039C134.76 23.1598 134.48 23.2404 134.04 23.321C133.6 23.4015 133.201 23.4418 132.761 23.4418C131.521 23.4418 130.601 23.1196 130.001 22.4751C129.402 21.8307 129.082 20.8237 129.082 19.4946L129.122 13.1307Z" fill="black"/>
<path d="M13.6759 0H0V13.775H13.6759V0Z" fill="black"/>
<path d="M28.7915 0H15.1155V13.775H28.7915V0Z" fill="black"/>
<path d="M13.6759 15.2251H0V29.0001H13.6759V15.2251Z" fill="black"/>
<path d="M28.7915 15.2251H15.1155V29.0001H28.7915V15.2251Z" fill="black"/>
</g>
<defs>
<clipPath id="clip0_155_11002">
<rect width="135" height="29" fill="white"/>
</clipPath>
</defs>
</svg>
