<svg width="36" height="28" viewBox="0 0 36 28" fill="none" xmlns="http://www.w3.org/2000/svg">
<g clip-path="url(#clip0_214_468)">
<path d="M13.7735 26.2488C13.3274 26.6388 13.0433 26.8591 12.3999 26.8591H12.3727C11.4871 26.8591 10.9387 26.1548 10.9387 25.5028C10.9387 24.755 11.5847 24.1465 12.3779 24.1465C13.0169 24.1526 13.3553 24.5034 13.5177 24.6732L13.5433 24.6993L14.2895 23.9358C14.2063 23.8505 13.5696 23.0731 12.3854 23.0731C11.0219 23.0731 9.88975 24.1334 9.88379 25.4976C9.88379 26.8216 10.971 27.9351 12.3727 27.9412C13.4276 27.9412 13.9614 27.4998 14.4569 27.0654L13.7735 26.2488Z" fill="black"/>
<path d="M9.4738 26.3612C9.4738 27.6191 8.49032 27.8168 7.8749 27.8168H5.25V23.1924H7.87235C8.67648 23.1924 9.3191 23.6599 9.3191 24.5366C9.3191 24.9701 9.02074 25.2095 8.79378 25.3279C9.16778 25.5194 9.4738 25.8023 9.4738 26.3612ZM6.20968 24.0604V24.9353C6.20968 24.9353 7.58758 24.9353 7.75758 24.9353C8.01344 24.9353 8.29395 24.8264 8.29395 24.5009C8.29395 24.1753 8.07549 24.0604 7.72189 24.0604C7.52043 24.0604 6.20968 24.0604 6.20968 24.0604ZM8.45377 26.3612C8.45377 25.9172 8.09251 25.8023 7.74145 25.8023C7.42608 25.8023 6.20968 25.8023 6.20968 25.8023V26.907C6.20968 26.907 7.49237 26.907 7.77799 26.907C8.0636 26.907 8.45377 26.8052 8.45377 26.3612Z" fill="black"/>
<path d="M0.175781 23.1924H1.23492L3.41526 26.1836V23.1924H4.4081V27.8168H3.34896L1.16776 24.8195V27.8168H0.175781V23.1924Z" fill="black"/>
<path d="M25.0723 26.8451V27.8184H21.2344V23.1941H25.017V24.1212H22.1957V24.936H24.6115V25.8623H22.1957V26.8416L25.0723 26.8451Z" fill="black"/>
<path d="M16.1631 23.1924H17.2223L19.4025 26.1836V23.1924H20.3954V27.8168H19.3362L17.1551 24.8195V27.8168H16.1631V23.1924Z" fill="black"/>
<path d="M30.7646 23.1941L29.935 26.2079L29.0808 23.1941H28.0531L27.1997 26.2079L26.369 23.1941H25.4307L26.6691 27.8184H27.679L28.5673 24.9056L29.4548 27.8184H30.4655L31.704 23.1941H30.7646Z" fill="black"/>
<path d="M35.1231 25.2104C34.364 24.8805 33.0134 25.1312 33.0227 24.4991C33.0261 24.2545 33.3747 24.0439 33.9331 24.0395C34.5613 24.0343 35.3568 24.3764 35.3568 24.3764L35.8626 23.5538C35.8626 23.5538 34.8341 23.0715 33.9502 23.0715C32.6019 23.0715 31.966 23.68 31.966 24.4391C31.966 25.2182 32.3919 25.5273 32.6231 25.6422C33.3729 26.0156 34.2126 25.9138 34.6659 26.1453C35.1613 26.3987 34.965 27.0045 33.9502 26.9192C33.2037 26.8566 32.7626 26.7042 32.2253 26.3795L31.6729 27.1734C32.7176 27.8342 33.7247 27.9386 33.951 27.9404C34.7398 27.9447 36.0191 27.7306 35.9995 26.4021C35.9909 25.8589 35.7342 25.4759 35.1231 25.2104Z" fill="black"/>
<path d="M25.7034 5.36636L20.495 17.4583L19.0085 6.94958C18.8182 5.5235 21.2084 4.64121 21.2084 4.64121C20.9885 4.14571 20.2334 4.15775 20.2334 4.15775H18.6161C18.3605 1.57143 20.6674 -0.307947 23.1587 0.266156C25.6083 0.822056 26.5002 3.52934 25.7034 5.36636Z" fill="#6F55DC"/>
<path d="M16.0297 21.3745L5.87438 14.4976C3.28797 12.7452 0.731306 14.5339 0.190263 16.377C-0.606491 19.1023 1.18316 21.3745 3.98954 21.3745H16.0297Z" fill="#FCCC12"/>
<path d="M17.361 4.32681C17.7356 1.65586 15.3811 -0.320173 12.8363 0.265967C10.3866 0.821939 9.49475 3.52915 10.2915 5.36624L15.5 17.4581L17.361 4.32079V4.32681Z" fill="#EE1540"/>
<path d="M15.0836 19.4463L10.0832 7.86202C8.91186 5.17896 5.81409 4.84662 4.1017 6.41774C2.89476 7.52968 1.96123 10.5511 4.65467 12.3821L15.0836 19.4463Z" fill="#FF7113"/>
<path d="M32.006 21.3732C34.8184 21.3732 36.6021 19.1011 35.8054 16.3758C35.2643 14.5266 32.7076 12.7379 30.1212 14.4964L19.9658 21.3732H32.006Z" fill="#05AD40"/>
<path d="M31.34 12.3821C34.0334 10.5511 33.0999 7.52968 31.8929 6.41774C30.1805 4.84662 27.0828 5.17896 25.9115 7.86202L20.9111 19.4463L31.34 12.3821Z" fill="#059DE0"/>
</g>
<defs>
<clipPath id="clip0_214_468">
<rect width="36" height="28" fill="white"/>
</clipPath>
</defs>
</svg>
