<svg width="115" height="31" viewBox="0 0 115 31" fill="none" xmlns="http://www.w3.org/2000/svg">
<g clip-path="url(#clip0_155_10997)">
<path d="M15.8128 29.0018C14.0829 29.3048 12.3225 29.3957 10.5015 29.6376L4.94713 13.4112V30.3341C3.21719 30.5156 1.63897 30.7578 0 31V0H4.61348L10.9263 17.5891V0H15.8128V29.0018ZM25.3734 11.3525C27.2553 11.3525 30.1386 11.2617 31.8686 11.2617V16.1053C29.7136 16.1053 27.1946 16.1053 25.3734 16.1962V23.4014C28.2265 23.2198 31.0795 22.9774 33.9627 22.8866V27.5484L20.5172 28.6082V0H33.9627V4.84376H25.3734V11.3525ZM52.0216 4.84387H46.9833V27.1251C45.3444 27.1251 43.7054 27.1251 42.1274 27.1855V4.84387H37.0892V0H52.0218L52.0216 4.84387ZM59.9128 11.0196H66.5597V15.8633H59.9128V26.8527H55.1473V0H68.7146V4.84376H59.9128V11.0196ZM76.6058 22.6142C79.3679 22.6746 82.16 22.8869 84.8614 23.038V27.8213C80.5212 27.5486 76.181 27.2765 71.7498 27.1855V0H76.6058V22.6142ZM88.9587 28.1543C90.5066 28.2453 92.1455 28.3361 93.7238 28.5175V0H88.9587V28.1543ZM115 0L108.839 14.7432L115 31C113.179 30.7578 111.358 30.4248 109.537 30.122L106.046 21.1613L102.496 29.3957C100.735 29.0927 99.0353 29.0018 97.2753 28.7596L103.528 14.5614L97.8821 0H103.102L106.289 8.14357L109.689 0L115 0Z" fill="black"/>
</g>
<defs>
<clipPath id="clip0_155_10997">
<rect width="115" height="31" fill="white"/>
</clipPath>
</defs>
</svg>
