<svg width="20" height="27" viewBox="0 0 20 27" fill="none" xmlns="http://www.w3.org/2000/svg">
<path d="M20 3.62903C20 0.725806 17.2662 0 15.1079 0V0.435484C16.4029 0.435484 17.4101 0.870968 17.4101 1.8871C17.4101 2.46774 16.9784 3.33871 15.6835 3.33871C14.6763 3.33871 12.518 2.75806 10.9352 2.17742C9.06474 1.59677 7.33812 1.01613 5.89927 1.01613C3.02157 1.01613 1.00719 3.19355 1.00719 5.66129C1.00719 7.83871 2.58992 8.56452 3.16546 8.85484L3.30934 8.56452C2.87768 8.27419 2.44604 7.98387 2.44604 7.1129C2.44604 6.53226 3.02157 5.51613 4.46042 5.51613C5.75538 5.51613 7.482 6.09677 9.78416 6.82258C11.7985 7.40322 13.9568 7.83871 15.1079 7.98387V12.4839L12.9496 14.371V14.5161L15.1079 16.4032V22.6452C13.9568 23.371 12.6619 23.5161 11.5108 23.5161C9.35252 23.5161 7.482 22.9355 5.89927 21.1935L11.7986 18.2903V8.12903L4.60431 11.3226C5.32374 9.43548 6.90646 8.12903 8.34531 7.1129L8.20144 6.82258C3.88489 7.98387 0 11.9032 0 16.8387C0 22.6452 4.7482 27 10.0719 27C15.8273 27 19.5683 22.3548 19.5683 17.5645H19.2806C18.4173 19.4516 17.1223 21.1935 15.5396 22.0645V16.1129L17.8417 14.2258V14.0806L15.6835 12.1935V7.83871C17.8417 7.83871 20 6.3871 20 3.62903ZM7.48201 19.5968L5.7554 20.4677C4.7482 19.1613 4.17266 17.4194 4.17266 14.9516C4.17266 13.9355 4.31654 12.7742 4.60431 11.9032L7.62589 10.5968L7.48201 19.5968Z" fill="black"/>
</svg>
