<svg width="37" height="12" viewBox="0 0 37 12" fill="none" xmlns="http://www.w3.org/2000/svg">
<g clip-path="url(#clip0_214_448)">
<path fill-rule="evenodd" clip-rule="evenodd" d="M-0.423828 12.4103H37.419V-0.415985H-0.423828V12.4103Z" fill="white"/>
<path fill-rule="evenodd" clip-rule="evenodd" d="M0 12H12.3331V0H0V12Z" fill="#FF330D"/>
<path fill-rule="evenodd" clip-rule="evenodd" d="M12.333 12H24.6663V0H12.333V12Z" fill="black"/>
<path fill-rule="evenodd" clip-rule="evenodd" d="M24.666 12H36.9993V0H24.666V12Z" fill="#3366CC"/>
<path fill-rule="evenodd" clip-rule="evenodd" d="M7.3648 9.06125V5.51995C7.3648 4.9978 7.26139 4.61653 7.05455 4.37592C6.84794 4.13553 6.51041 4.01544 6.04172 4.01544C5.82513 4.01544 5.59396 4.07471 5.34757 4.19303C5.10142 4.31136 4.90959 4.45819 4.77208 4.63334V9.06125H3.29785V2.90946H4.35998L4.63138 3.48358C5.03299 3.0322 5.62464 2.80597 6.40811 2.80597C7.1591 2.80597 7.75189 3.02491 8.18671 3.46256C8.62127 3.90045 8.83903 4.51082 8.83903 5.29414V9.06125H7.3648Z" fill="white"/>
<path fill-rule="evenodd" clip-rule="evenodd" d="M18.0551 4.0327C18.7333 4.0327 19.2198 4.18064 19.5139 4.47676C19.8082 4.77268 19.9551 5.28309 19.9551 6.00846C19.9551 6.68795 19.8071 7.18526 19.5109 7.49981C19.2145 7.81527 18.7274 7.97243 18.049 7.97243C17.6921 7.97243 17.3803 7.86735 17.1136 7.6572V4.43387C17.388 4.16672 17.7021 4.0327 18.0551 4.0327ZM18.3826 9.18195C19.347 9.18195 20.1078 8.91042 20.6646 8.36737C21.2216 7.82387 21.5002 7.04916 21.5002 6.04318C21.5002 3.88541 20.4926 2.80597 18.4776 2.80597C17.9383 2.80597 17.4837 2.97846 17.1136 3.32302V2.90946H15.6396V11.4628H17.1136V8.91224C17.4955 9.09227 17.9183 9.18195 18.3826 9.18195Z" fill="white"/>
<path fill-rule="evenodd" clip-rule="evenodd" d="M32.4654 4.25759C32.2026 4.09617 31.9154 4.01544 31.6023 4.01544C31.2616 4.01544 30.9597 4.16626 30.6956 4.46748C30.4312 4.76869 30.2994 5.13691 30.2994 5.57169V9.06125H28.8252V2.90946H30.2994V3.49705C30.71 3.03662 31.256 2.80597 31.9368 2.80597C32.4377 2.80597 32.8215 2.88072 33.0875 3.02978L32.4654 4.25759Z" fill="white"/>
</g>
<defs>
<clipPath id="clip0_214_448">
<rect width="37" height="12" fill="white"/>
</clipPath>
</defs>
</svg>
