<svg version="1.1" id="Layer_1" xmlns="http://www.w3.org/2000/svg" xmlns:xlink="http://www.w3.org/1999/xlink" x="0px" y="0px" viewBox="0 0 700 273.7" style="enable-background:new 0 0 700 273.7;" xml:space="preserve">
 <style type="text/css">
  .st0{fill:#231F20;}
 </style>
 <g>
  <path class="st0" d="M99.1,8.8C45.5,8.8,0,47.1,0,106c0,53,40.5,95,98.5,95c53.5,0,99.1-38.3,99.1-97.2
		C197.6,50.9,157.1,8.8,99.1,8.8z M99.1,189.6c-34.9,0-59.9-35.7-59.9-84.9c0-47.1,23.7-84.4,59.4-84.4c34.9,0,59.9,35.7,59.9,84.9
		C158.4,152.3,134.7,189.6,99.1,189.6z M654.5,81.7v8l10.7,2.1c3.7,0.8,4.8,3.7,2.4,9.6L643,160.6c-1.1,2.4-2.4,2.4-3.2,0
		l-22.9-59.1c-2.4-6.1-1.1-8.8,2.7-9.6l10.6-2.1v-8h-94.8v8l10.7,2.1c3.7,0.8,5.1,3.7,2.7,9.6l-23.7,62.3c-1.1,2.4-2.4,2.4-3.2,0
		l-24-62.3c-2.1-6.1-1.1-8.8,2.7-9.6l10.6-2.1v-8H451V90l5.9,1.3c4,0.8,6.4,2.9,8,6.7l40.7,100.1H524L564.7,98
		c2.1-5.3,4.5-7.5,8.8-7.5h1.6c3.5,0,6.1,1.3,8.3,6.4L626,200.8L614.6,228c-7.5,18.1-13,21.3-20,21.3c-2.9,0-6.1-0.5-9.3-0.5
		c-8.3,0-13.3,5.9-13.3,12.2c0,7.2,5.9,12.3,15.2,12.3c13.3,0,26.4-10.7,37.3-36.2l58-136.1c2.7-6.1,6.1-8.8,11.7-9.9L700,90v-8.3
		H654.5z M281.2,187.7l-44.5,5.6c-14.6,1.9-19.2-2.9-19.2-10.4c0-8.8,9.6-15.7,42.9-15.7h0.5c24.2,0,52.7-14.6,52.7-46.3
		c0-10.1-3.7-19.4-10.7-26.9c-2.4-5.2-3.5-10.8-3.2-16.5c0-23.4,16-36.7,32.5-36.7c6.9,0,9.1,1.1,9.1,5.9c0,1.3-0.3,2.4-0.3,4
		c0,8.3,6.9,16,16.8,16c10.1,0,16.5-8,16.5-16.8c0-13.3-12-23.2-34.1-23.2c-30.4,0-53.8,19.7-53.8,49.8c0,2.4,0.3,4.3,0.3,6.1
		c-7.9-3.2-16.3-4.9-24.8-4.8c-24,0-52.7,14.6-52.7,46.3c0,14.6,8.3,28.2,22.6,36.2c-21.3,2.9-33.5,14.4-33.5,32.2
		c0,18.1,14.4,31.2,41.3,28l38.9-4.8c19.4-2.4,25.8,4.5,25.8,14.6c0,17.6-16.5,31.7-42.9,31.7c-21,0-28.8-7.5-28.8-18.1l0.3-5.3
		c0-6.4-4-10.9-10.4-11.2c-7.5,0-12,5.3-12,13c0,17.6,16.8,33.3,51.1,33.3c38.6,0,63.1-25,63.1-53.8
		C324.8,197,306.5,184.5,281.2,187.7L281.2,187.7z M261.2,87.3c12.5,0,22.6,14.1,22.6,35.7c0,18.6-8.5,34.6-21.8,34.6
		c-12.8,0-22.9-14.1-22.9-35.7C239.1,103.6,247.6,87.3,261.2,87.3L261.2,87.3z">
  </path>
  <path class="st0" d="M440.7,184.3V0l-46.9,12v5.6l13.3,4.3c2.1,0.8,2.9,2.4,2.9,4.5v157.1c0,2.9-2.4,5.1-5.9,5.1l-11.9,0.2
		l-12.6-0.2c-3.5,0-5.9-2.1-5.9-5.1V77.2l-46.9,12v5.6l13.3,4.3c2.1,0.8,2.9,2.4,2.9,4.5v80.7c0,2.4-1.3,3.7-3.2,4l-10.9,1.3v8.5
		h127.8v-8.5l-13-1.3C442,188,440.7,186.7,440.7,184.3L440.7,184.3z">
  </path>
 </g>
</svg>