<svg width="172" height="46" viewBox="0 0 172 46" fill="none" xmlns="http://www.w3.org/2000/svg">
<g clip-path="url(#clip0_199_28)">
<path d="M53.5591 22.1146C53.5591 29.6356 58.4567 34.8796 65.2434 34.8796C72.0301 34.8796 76.9278 29.6356 76.9278 22.1146C76.9278 14.5936 72.0301 9.34961 65.2434 9.34961C58.4567 9.34961 53.5591 14.5936 53.5591 22.1146ZM72.4499 22.1146C72.4499 27.4966 69.4764 30.9811 65.2434 30.9811C61.0105 30.9811 58.0369 27.4966 58.0369 22.1146C58.0369 16.7326 61.0105 13.2481 65.2434 13.2481C69.4764 13.2481 72.4499 16.7326 72.4499 22.1146Z" fill="black"/>
<path d="M89.5377 34.8795C94.6802 34.8795 97.6187 30.6015 97.6187 25.461C97.6187 20.3205 94.6802 16.0425 89.5377 16.0425C87.1588 16.0425 85.4097 16.974 84.2552 18.3195V16.3875H80.0573V40.71H84.2552V32.6025C85.4097 33.948 87.1588 34.8795 89.5377 34.8795ZM84.1503 24.9435C84.1503 21.528 86.1093 19.665 88.6981 19.665C91.7416 19.665 93.3858 22.011 93.3858 25.461C93.3858 28.911 91.7416 31.257 88.6981 31.257C86.1093 31.257 84.1503 29.3595 84.1503 26.013V24.9435Z" fill="black"/>
<path d="M108.98 34.8795C112.653 34.8795 115.556 32.982 116.851 29.808L113.247 28.4625C112.688 30.3255 111.044 31.3605 108.98 31.3605C106.286 31.3605 104.397 29.463 104.082 26.358H116.956V24.978C116.956 20.01 114.122 16.0425 108.805 16.0425C103.487 16.0425 100.059 20.148 100.059 25.461C100.059 31.05 103.732 34.8795 108.98 34.8795ZM108.77 19.527C111.428 19.527 112.688 21.252 112.723 23.253H104.292C104.921 20.8035 106.601 19.527 108.77 19.527Z" fill="black"/>
<path d="M120.106 34.5H124.304V23.874C124.304 21.2865 126.228 19.9065 128.117 19.9065C130.426 19.9065 131.335 21.528 131.335 23.7705V34.5H135.533V22.563C135.533 18.6645 133.224 16.0425 129.376 16.0425C126.997 16.0425 125.353 17.112 124.304 18.3195V16.3875H120.106V34.5Z" fill="black"/>
<path d="M147.828 9.729L138.313 34.5H142.756L144.89 28.842H155.734L157.903 34.5H162.416L152.901 9.729H147.828ZM150.277 14.628L154.265 24.978H146.359L150.277 14.628Z" fill="black"/>
<path d="M169.623 9.80078H165.145V34.5718H169.623V9.80078Z" fill="black"/>
<path d="M43.3003 18.8269C44.3585 15.6946 43.9941 12.2633 42.3018 9.41416C39.7568 5.04416 34.6405 2.79591 29.6437 3.85391C27.4209 1.38428 24.2272 -0.0201558 20.879 -3.07822e-05C15.7715 -0.0115308 11.2397 3.23147 9.66842 8.02409C6.3873 8.68678 3.55513 10.7122 1.89781 13.5829C-0.666156 17.9414 -0.0816475 23.4355 3.34378 27.173C2.28554 30.3053 2.64995 33.7367 4.34225 36.5858C6.88727 40.9558 12.0035 43.204 17.0003 42.146C19.2217 44.6157 22.4168 46.0201 25.765 45.9985C30.8754 46.0115 35.4087 42.7656 36.98 37.9687C40.2611 37.306 43.0933 35.2805 44.7506 32.4098C47.3116 28.0513 46.7257 22.5615 43.3017 18.824L43.3003 18.8269ZM25.7679 42.9927C23.7229 42.9956 21.7419 42.2898 20.1721 40.9975C20.2435 40.9601 20.3674 40.8925 20.4476 40.8437L29.7356 35.5537C30.2108 35.2877 30.5023 34.7889 30.4994 34.2498V21.3368L34.4248 23.5721C34.467 23.5922 34.4947 23.6325 34.5006 23.6785V34.372C34.4947 39.1273 30.5897 42.9827 25.7679 42.9927ZM6.98784 35.0822C5.96313 33.337 5.59435 31.2915 5.94564 29.3063C6.01415 29.3465 6.13513 29.4198 6.22113 29.4687L15.5091 34.7587C15.9799 35.0304 16.563 35.0304 17.0353 34.7587L28.3742 28.3015V32.7721C28.3771 32.8181 28.3552 32.8627 28.3188 32.8914L18.9302 38.2375C14.7483 40.6122 9.40751 39.2006 6.9893 35.0822H6.98784ZM4.5434 15.088C5.56374 13.34 7.17442 12.0031 9.09266 11.3088C9.09266 11.3878 9.08828 11.5273 9.08828 11.625V22.2065C9.08537 22.7441 9.37689 23.2429 9.85062 23.5088L21.1895 29.9647L17.2641 32.2C17.2248 32.2258 17.1752 32.2302 17.1315 32.2115L7.74144 26.8611C3.56825 24.4777 2.13686 19.2122 4.54195 15.0894L4.5434 15.088ZM36.7949 22.4897L25.456 16.0324L29.3814 13.7985C29.4207 13.7727 29.4703 13.7683 29.514 13.787L38.904 19.1331C43.0845 21.515 44.5174 26.7892 42.1021 30.912C41.0803 32.6571 39.4711 33.994 37.5543 34.6897V23.792C37.5587 23.2544 37.2686 22.757 36.7963 22.4897H36.7949ZM40.7013 16.6908C40.6328 16.6491 40.5118 16.5772 40.4258 16.5283L31.1378 11.2383C30.667 10.9667 30.0839 10.9667 29.6117 11.2383L18.2728 17.6956V13.225C18.2699 13.179 18.2917 13.1344 18.3282 13.1057L27.7168 7.76391C31.8987 5.38484 37.2453 6.80078 39.6562 10.9264C40.6751 12.6687 41.0438 14.7085 40.6984 16.6908H40.7013ZM16.1388 24.6588L12.212 22.4235C12.1697 22.4034 12.142 22.3632 12.1362 22.3172V11.6236C12.1391 6.8626 16.0557 3.00434 20.8834 3.00722C22.9255 3.00722 24.9021 3.71447 26.4719 5.00247C26.4005 5.03984 26.2781 5.10741 26.1965 5.15628L16.9085 10.4463C16.4333 10.7122 16.1417 11.2096 16.1447 11.7487L16.1388 24.656V24.6588ZM18.2713 20.125L23.322 17.2485L28.3727 20.1235V25.875L23.322 28.75L18.2713 25.875V20.125Z" fill="black"/>
</g>
<defs>
<clipPath id="clip0_199_28">
<rect width="172" height="46" fill="white"/>
</clipPath>
</defs>
</svg>
