<svg xmlns="http://www.w3.org/2000/svg" width="500" height="500.07" viewBox="0 0 500 500.07"><path d="M512.91,250.31q96.38,5.71,164.75,73.87C709.48,356,730.86,394,742.2,437.49A247.85,247.85,0,0,1,750,497.78c.29,30.3-4.39,59.72-15.09,88q-37.78,99.89-135.38,143.64A235,235,0,0,1,535,747.66a253.72,253.72,0,0,1-64.57.61,244.15,244.15,0,0,1-110.06-41Q296.91,664.24,268,593.06A241.37,241.37,0,0,1,251.59,528q-.81-7.35-1.24-14.73c-.43-1.79.2-3.66-.35-5.44V492.41c.49-1.69.08-3.42.21-5.13,0-13.6,2-26.95,4.85-40.2A241.14,241.14,0,0,1,272,396a251.06,251.06,0,0,1,33.3-53.65,243.19,243.19,0,0,1,18.24-20.24A253.76,253.76,0,0,1,423,261.52a246.31,246.31,0,0,1,45.47-10.1,165.3,165.3,0,0,1,18.87-1.24c1.71-.11,3.45.23,5.15-.22H507C509,250.53,511,249.88,512.91,250.31Z" transform="translate(-250 -249.96)"/><path d="M512.91,250.31A15.75,15.75,0,0,1,507,250h5.83A2,2,0,0,0,512.91,250.31Z" transform="translate(-250 -249.96)"/><path d="M487,250.32a1.47,1.47,0,0,0,0-.36h5.41A14.3,14.3,0,0,1,487,250.32Z" transform="translate(-250 -249.96)"/><path d="M250,487a.47.47,0,0,1,.35,0,13.54,13.54,0,0,1-.35,5.45Z" transform="translate(-250 -249.96)"/><path d="M250,507.83a14.26,14.26,0,0,1,.35,5.44l-.18,0-.17,0Z" transform="translate(-250 -249.96)"/><path d="M499.93,740.61c-134.59-.4-242.76-110.33-240.36-245.23C261.88,365.5,369.08,257,505.06,259.57c129.16,2.45,235.78,107.84,235.5,241C740.28,634.1,632.22,740.41,499.93,740.61Z" transform="translate(-250 -249.96)" fill="#fefefe"/><path d="M295.21,588.9c5.06,1.39,9.76,2.77,14.5,4a276.88,276.88,0,0,0,56.35,7.86c26.1,1.16,52-1,77.83-4.5,23.35-3.2,46.52-7.53,69.73-11.63,21.78-3.84,43.59-7.51,65.62-9.64a322.91,322.91,0,0,1,52.4-1.3c24.2,1.59,47.83,6,70.59,14.58,2.62,1,2.66,1,1.51,3.48q-47.15,99.64-154.17,126.06c-26,6.34-52.31,7.2-78.77,3.71A223.33,223.33,0,0,1,295.73,590.19C295.59,589.88,295.48,589.56,295.21,588.9Z" transform="translate(-250 -249.96)"/><path d="M705,411.18a236.55,236.55,0,0,0-23.61-6.26,298.6,298.6,0,0,0-58.27-6,439.68,439.68,0,0,0-59.58,3.82c-23.26,2.93-46.31,7.13-69.37,11.23-17.95,3.2-35.91,6.38-54,8.77-21.42,2.83-42.92,4.66-64.56,3.85-26.78-1-52.88-5.62-78.06-15-1.78-.67-2.24-1.21-1.34-3.13q44.65-94.8,145.29-124A207.09,207.09,0,0,1,508,276.76q81.53,3.48,142.37,58a218.92,218.92,0,0,1,53.91,74.69Z" transform="translate(-250 -249.96)"/><path d="M619.24,548.19c-10.15-.23-20.54-1.21-30.36-5.37-7-3-13-7.17-16.65-14.06-2.14-4-2.1-4,2.13-5.62,6.72-2.55,13.45-5.09,20.15-7.7a1.77,1.77,0,0,1,2.59.85c2.38,3.72,6,5.91,10.1,7.25a39.07,39.07,0,0,0,20.74.93,10.11,10.11,0,0,0,4.32-1.93c2.44-2,2.41-4.81-.13-6.64-2.35-1.7-5.13-2.39-7.89-3.06-8.53-2.08-17.27-3.33-25.59-6.3A39.2,39.2,0,0,1,585.13,499c-11.48-10.41-10.55-29.58,1.86-39.12,5.7-4.38,12.29-6.59,19.28-7.65,12.21-1.85,24.36-1.59,36.27,1.9,8.28,2.43,15.1,6.9,18.86,15.08,2.17,4.72,2.18,4.71-2.59,6.51l-20.37,7.73c-.67.26-1.33.76-1.81-.38-2.37-5.54-7-7.8-12.63-8.44a27.15,27.15,0,0,0-10.72.76,9.49,9.49,0,0,0-3.36,1.61c-2.27,1.82-2.25,4.37.09,6.11a17.31,17.31,0,0,0,6.29,2.6c7.78,2,15.75,3.13,23.46,5.43a52.3,52.3,0,0,1,14,6.12,25.12,25.12,0,0,1,2,41c-6,4.89-13.15,7.28-20.65,8.66A85.63,85.63,0,0,1,619.24,548.19Z" transform="translate(-250 -249.96)"/><path d="M390.22,499.29c0-14.51,0-29,0-43.52,0-1.73.26-2.34,2.2-2.33q38,.12,76,0c1.53,0,2.12.26,2.09,2-.12,6.52-.1,13.05,0,19.57,0,1.5-.44,1.81-1.85,1.8-14.86-.05-29.71,0-44.57-.07-1.69,0-2.31.38-2.19,2.15a50.66,50.66,0,0,1,0,6.86c-.11,1.63.49,1.93,2,1.93,11.46-.07,22.91,0,34.36-.08,1.88,0,2.44.43,2.4,2.36-.13,6.18-.09,12.36,0,18.54,0,1.45-.38,1.84-1.84,1.83-11.66-.06-23.32,0-35-.08-1.57,0-2,.38-1.92,1.94a70.64,70.64,0,0,1,0,7.7c-.09,1.61.45,1.94,2,1.93,14.79-.05,29.57,0,44.35-.07,1.77,0,2.34.32,2.3,2.22-.15,6.38-.1,12.77,0,19.15,0,1.44-.17,2-1.85,2q-38.22-.11-76.43,0c-1.71,0-2-.55-2-2.11C390.25,528.44,390.22,513.87,390.22,499.29Z" transform="translate(-250 -249.96)"/><path d="M381.6,482.82c-.42-13.54-7.32-22.85-20.14-26.9A45.58,45.58,0,0,0,348,453.66c-17.5-.11-35-.1-52.48-.21-1.73,0-2.17.43-2.16,2.16.07,14.58,0,29.16,0,43.74s0,29.15,0,43.73c0,1.68.47,2,2.07,2q13.86-.12,27.7,0c1.75,0,2-.59,2-2.1-.09-4.51,0-9-.06-13.54a2.07,2.07,0,0,1,1.67-2.35q8-2.91,15.92-6c7.59-3,15.4-5.41,22.55-9.46C376.38,505.3,382,495.82,381.6,482.82Zm-35.2,10.07a19,19,0,0,1-7.79,5.39c-4,1.66-8.11,3.18-12.15,4.82-1.33.54-1.45,0-1.44-1.16.05-3.95,0-7.91,0-11.87s0-7.91,0-11.87c0-1.05.25-1.48,1.38-1.46,4.51.1,9,0,13.53.21,3.75.19,6.93,1.74,8.41,5.44S348.92,489.77,346.4,492.89Z" transform="translate(-250 -249.96)"/><path d="M571.57,480c-1-9.87-5.62-17.41-14.67-21.92a42.75,42.75,0,0,0-18-4.33c-17.9-.5-35.81-.08-53.72-.25-1.72,0-1.49.87-1.49,1.92q0,22,0,43.93t0,43.94c0,1.1-.12,1.9,1.53,1.89,9.51-.1,19-.08,28.53,0,1.5,0,1.65-.6,1.64-1.83-.06-4.58,0-9.16-.05-13.74a2.09,2.09,0,0,1,1.58-2.42c7.21-2.63,14.38-5.37,21.55-8.1,7.43-2.84,15-5.45,21.43-10.32A28.17,28.17,0,0,0,570.75,493,36.67,36.67,0,0,0,571.57,480Zm-34.11,11.82a13,13,0,0,1-3.62,3.68c-5.59,3.89-12.16,5.46-18.52,8.15,0-8.82,0-17.14,0-25.45,0-.87.07-1.44,1.2-1.41,4.64.14,9.29-.24,13.92.22C538.29,477.73,541.77,485.11,537.46,491.77Z" transform="translate(-250 -249.96)"/><path d="M706,452.1v2.1q0,44.25,0,88.5c0,1.84-.36,2.46-2.34,2.43-9.1-.11-18.19-.08-27.28,0-1.53,0-2.15-.24-2.14-2q.09-38.75,0-77.47c0-1,0-1.75,1.25-2.22,9.92-3.68,19.79-7.46,29.69-11.21A4.29,4.29,0,0,1,706,452.1Z" transform="translate(-250 -249.96)"/></svg>