<?xml version="1.0" encoding="UTF-8" standalone="no"?>
<!-- Created with Inkscape (http://www.inkscape.org/) -->

<svg xmlns:dc="http://purl.org/dc/elements/1.1/" xmlns:cc="http://creativecommons.org/ns#" xmlns:rdf="http://www.w3.org/1999/02/22-rdf-syntax-ns#" xmlns:svg="http://www.w3.org/2000/svg" xmlns="http://www.w3.org/2000/svg" xmlns:sodipodi="http://sodipodi.sourceforge.net/DTD/sodipodi-0.dtd" xmlns:inkscape="http://www.inkscape.org/namespaces/inkscape" id="svg3569" version="1.1" inkscape:version="0.48.1 " width="1593.0098" height="95.575737" xml:space="preserve" sodipodi:docname="richemont_ar2010.pdf"><metadata id="metadata3575"><rdf:RDF><cc:Work rdf:about=""><dc:format>image/svg+xml</dc:format><dc:type rdf:resource="http://purl.org/dc/dcmitype/StillImage" /><dc:title></dc:title></cc:Work></rdf:RDF></metadata><defs id="defs3573"><clipPath clipPathUnits="userSpaceOnUse" id="clipPath3583"><path d="M 0,850.394 1357.795,850.394 1357.795,0 0,0 0,850.394 z" id="path3585" inkscape:connector-curvature="0" /></clipPath><clipPath clipPathUnits="userSpaceOnUse" id="clipPath3589"><path d="M 0.059998,850.44 1357.86,850.44 1357.86,0 0.059998,0 0.059998,850.44 z" id="path3591" inkscape:connector-curvature="0" /></clipPath><clipPath clipPathUnits="userSpaceOnUse" id="clipPath3645"><path d="M 0,850.394 1357.795,850.394 1357.795,0 0,0 0,850.394 z" id="path3647" inkscape:connector-curvature="0" /></clipPath><clipPath clipPathUnits="userSpaceOnUse" id="clipPath3651"><path d="M 0.059998,850.44 1357.86,850.44 1357.86,0 0.059998,0 0.059998,850.44 z" id="path3653" inkscape:connector-curvature="0" /></clipPath></defs><sodipodi:namedview pagecolor="#ffffff" bordercolor="#666666" borderopacity="1" objecttolerance="10" gridtolerance="10" guidetolerance="10" inkscape:pageopacity="0" inkscape:pageshadow="2" inkscape:window-width="1366" inkscape:window-height="716" id="namedview3571" showgrid="false" fit-margin-top="0" fit-margin-left="0" fit-margin-right="0" fit-margin-bottom="0" inkscape:zoom="0.6388656" inkscape:cx="965.77433" inkscape:cy="-147.96645" inkscape:window-x="-8" inkscape:window-y="-8" inkscape:window-maximized="1" inkscape:current-layer="g3577" /><g id="g3577" inkscape:groupmode="layer" inkscape:label="richemont_ar2010" transform="matrix(1.25,0,0,-1.25,160.35739,776.505)"><g id="g3605" transform="matrix(5.2535789,0,0,5.2535789,-87.350026,584.77043)" style="fill:black"><path d="M 0,0 1.76,0 C 5.35,0 7.289,0.78 7.289,3.201 7.289,5.027 5.243,6.197 2.047,6.197 0.969,6.197 0.503,6.135 0,6.115 L 0,0 z M -4.596,4.76 C -4.596,6.258 -6.033,6.32 -7.146,6.32 L -7.792,6.32 -7.792,6.935 C -6.643,6.935 -4.417,6.853 -2.227,6.853 -0.072,6.853 1.652,6.935 3.555,6.935 8.08,6.935 12.101,6.238 12.101,3.324 12.101,1.477 9.947,0.349 7.11,-0.287 L 13.251,-5.541 C 14.256,-6.402 14.974,-6.648 16.734,-6.772 L 16.734,-7.387 C 15.549,-7.387 14.4,-7.305 13.215,-7.305 12.101,-7.305 10.952,-7.387 9.839,-7.387 7.074,-5.315 4.704,-3.098 2.37,-0.739 L 0,-0.739 0,-5.13 C 0,-6.71 1.293,-6.772 2.945,-6.772 L 3.591,-6.772 3.591,-7.387 C 1.544,-7.387 -0.539,-7.305 -2.586,-7.305 -4.309,-7.305 -5.997,-7.387 -7.792,-7.387 L -7.792,-6.772 -7.146,-6.772 C -5.817,-6.772 -4.596,-6.423 -4.596,-5.663 L -4.596,4.76" style="fill:black;fill-opacity:1;fill-rule:nonzero;stroke:none" id="path3607" inkscape:connector-curvature="0" /></g><g id="g3609" transform="matrix(5.2535789,0,0,5.2535789,39.518651,548.38414)" style="fill:black"><path d="M 0,0 0.377,0 C 1.347,0 2.37,0.077 2.37,0.877 L 2.37,8.942 C 2.37,9.742 1.347,9.819 0.377,9.819 L 0,9.819 0,10.281 C 1.05,10.281 2.666,10.219 3.986,10.219 5.333,10.219 6.948,10.281 8.215,10.281 L 8.215,9.819 7.838,9.819 C 6.868,9.819 5.844,9.742 5.844,8.942 L 5.844,0.877 C 5.844,0.077 6.868,0 7.838,0 L 8.215,0 8.214,-0.461 C 6.922,-0.461 5.306,-0.4 3.959,-0.4 2.64,-0.4 1.05,-0.461 0,-0.461 L 0,0" style="fill:black;fill-opacity:1;fill-rule:nonzero;stroke:none" id="path3611" inkscape:connector-curvature="0" /></g><g id="g3613" transform="matrix(5.2535789,0,0,5.2535789,225.44281,585.74235)" style="fill:black"><path d="M 0,0 C -0.755,1.493 -1.993,2.724 -6.033,2.724 -10.45,2.724 -12.766,0.739 -12.766,-1.955 -12.766,-4.524 -10.477,-7.125 -5.387,-7.125 -2.505,-7.125 -0.593,-6.095 0.108,-4.555 L 0.861,-4.617 C 0.511,-5.448 0.323,-6.279 0.188,-7.11 -1.374,-7.495 -3.502,-7.803 -5.979,-7.803 -12.039,-7.803 -16.537,-5.91 -16.537,-2.047 -16.537,1.401 -11.662,3.401 -6.114,3.401 -2.963,3.401 -1.94,2.847 0.592,2.632 0.565,1.785 0.619,0.924 0.808,0.062 L 0,0" style="fill:black;fill-opacity:1;fill-rule:nonzero;stroke:none" id="path3615" inkscape:connector-curvature="0" /></g><g id="g3617" transform="matrix(5.2535789,0,0,5.2535789,310.61383,552.99153)" style="fill:black"><path d="M 0,0 C 0,-0.831 1.131,-0.877 2.101,-0.877 L 2.612,-0.877 2.612,-1.339 C 1.427,-1.339 -0.296,-1.277 -1.75,-1.277 -3.124,-1.277 -4.74,-1.339 -5.818,-1.339 L -5.818,-0.877 -5.44,-0.877 C -4.471,-0.877 -3.447,-0.8 -3.447,0 L -3.447,8.065 C -3.447,8.865 -4.471,8.942 -5.44,8.942 L -5.818,8.942 -5.818,9.404 C -4.74,9.404 -3.124,9.342 -1.75,9.342 -0.296,9.342 1.427,9.404 2.612,9.404 L 2.612,8.942 2.101,8.942 C 1.131,8.942 0,8.896 0,8.065 L 0,4.694 9.777,4.694 9.777,8.065 C 9.777,8.896 8.645,8.942 7.676,8.942 L 7.164,8.942 7.164,9.404 C 8.349,9.404 10.073,9.342 11.527,9.342 12.901,9.342 14.517,9.404 15.594,9.404 L 15.594,8.942 15.217,8.942 C 14.248,8.942 13.224,8.865 13.224,8.065 L 13.224,0 C 13.224,-0.8 14.248,-0.877 15.217,-0.877 L 15.594,-0.877 15.594,-1.339 C 14.517,-1.339 12.901,-1.277 11.527,-1.277 10.073,-1.277 8.349,-1.339 7.164,-1.339 L 7.164,-0.877 7.676,-0.877 C 8.645,-0.877 9.777,-0.831 9.777,0 L 9.777,3.832 0,3.832 0,0" style="fill:black;fill-opacity:1;fill-rule:nonzero;stroke:none" id="path3619" inkscape:connector-curvature="0" /></g><g id="g3621" transform="matrix(5.2535789,0,0,5.2535789,443.19314,548.38414)" style="fill:black"><path d="M 0,0 0.377,0 C 1.347,0 2.37,0.077 2.37,0.877 L 2.37,8.942 C 2.37,9.742 1.347,9.819 0.377,9.819 L 0,9.819 0,10.281 C 1.643,10.281 4.444,10.219 6.706,10.219 8.968,10.219 11.769,10.281 13.601,10.281 13.547,9.619 13.574,8.603 13.655,7.926 L 12.847,7.803 C 12.712,8.804 12.389,9.604 9.561,9.604 L 5.817,9.604 5.817,5.571 9.023,5.571 C 10.638,5.571 10.988,6.095 11.15,6.926 L 11.958,6.926 C 11.904,6.326 11.878,5.726 11.878,5.126 11.878,4.54 11.904,3.956 11.958,3.371 L 11.15,3.279 C 10.988,4.202 10.908,4.802 9.049,4.802 L 5.817,4.802 5.817,1.216 C 5.817,0.216 7.379,0.216 9.103,0.216 12.335,0.216 13.762,0.338 14.57,2.093 L 15.325,1.986 C 14.974,1.17 14.651,0.354 14.409,-0.461 12.685,-0.461 9.588,-0.4 7.164,-0.4 4.74,-0.4 1.535,-0.461 0,-0.461 L 0,0" style="fill:black;fill-opacity:1;fill-rule:nonzero;stroke:none" id="path3623" inkscape:connector-curvature="0" /></g><g id="g3625" transform="matrix(5.2535789,0,0,5.2535789,638.5895,560.11013)" style="fill:black"><path d="M 0,0 6.383,8.049 C 7.191,8.049 8.16,7.987 9.13,7.987 10.073,7.987 11.042,8.049 11.985,8.049 L 11.985,7.587 11.742,7.587 C 10.934,7.587 9.292,7.556 9.238,6.879 9.211,6.479 9.318,6.017 9.373,5.679 L 10.396,-1.37 C 10.504,-2.14 11.177,-2.201 12.792,-2.232 L 12.792,-2.694 C 11.526,-2.663 10.208,-2.632 8.914,-2.632 7.433,-2.632 5.952,-2.663 4.471,-2.694 L 4.471,-2.232 C 5.872,-2.185 6.787,-2.185 6.787,-1.508 6.787,-1.324 6.787,-1.154 6.76,-0.755 L 6.006,5.74 5.952,5.74 -0.916,-2.925 -1.562,-2.925 -8.08,5.571 -8.134,5.571 -9.049,-1.186 C -9.049,-1.678 -8.834,-1.924 -8.484,-2.063 -8.08,-2.201 -7.514,-2.216 -6.76,-2.232 L -6.437,-2.232 -6.437,-2.694 C -7.649,-2.663 -8.888,-2.632 -10.1,-2.632 -11.15,-2.632 -12.227,-2.663 -13.278,-2.694 L -13.278,-2.232 -12.901,-2.232 C -10.773,-2.185 -10.692,-1.662 -10.45,-0.554 L -9.641,3.724 C -9.426,4.817 -9.319,5.817 -9.319,6.433 -9.319,7.295 -10.477,7.587 -11.662,7.587 L -12.012,7.587 -12.012,8.049 C -10.907,8.049 -9.83,7.987 -8.726,7.987 -7.918,7.987 -7.11,8.049 -6.302,8.049 L 0,0" style="fill:black;fill-opacity:1;fill-rule:nonzero;stroke:none" id="path3627" inkscape:connector-curvature="0" /></g><g id="g3629" transform="matrix(5.2535789,0,0,5.2535789,802.15443,548.30534)" style="fill:black"><path d="M 0,0 C 5.225,0 6.141,2.631 6.141,4.879 6.141,7.125 4.013,9.85 -0.458,9.85 -5.171,9.85 -6.572,7.449 -6.572,5.387 -6.572,2.631 -4.363,0 0,0 z M -0.404,10.527 C 5.332,10.527 9.911,8.495 9.911,5.217 9.911,1.677 5.467,-0.677 -0.27,-0.677 -5.979,-0.677 -10.342,1.539 -10.342,4.848 -10.342,8.049 -6.006,10.527 -0.404,10.527" style="fill:black;fill-opacity:1;fill-rule:nonzero;stroke:none" id="path3631" inkscape:connector-curvature="0" /></g><g id="g3633" transform="matrix(5.2535789,0,0,5.2535789,987.79489,561.8911)" style="fill:black"><path d="M 0,0 0.054,0.031 0.054,5.802 C 0.054,7.064 -1.481,7.249 -2.29,7.249 L -2.882,7.249 -2.882,7.71 C -1.616,7.71 -0.377,7.649 0.889,7.649 1.993,7.649 3.097,7.71 4.201,7.71 L 4.201,7.249 3.797,7.249 C 2.666,7.249 1.4,7.126 1.4,5.294 L 1.4,-1.708 C 1.4,-2.247 1.427,-2.785 1.562,-3.263 L 0.539,-3.263 -13.332,5.571 -13.332,-0.769 C -13.332,-2.109 -12.874,-2.571 -10.8,-2.571 L -10.342,-2.571 -10.342,-3.032 C -11.5,-3.032 -12.659,-2.97 -13.816,-2.97 -15.028,-2.97 -16.267,-3.032 -17.479,-3.032 L -17.479,-2.571 -17.102,-2.571 C -15.244,-2.571 -14.678,-1.847 -14.678,-0.616 L -14.678,5.864 C -14.678,6.725 -15.917,7.249 -17.129,7.249 L -17.479,7.249 -17.479,7.71 C -16.456,7.71 -15.406,7.649 -14.382,7.649 -13.574,7.649 -12.793,7.71 -11.985,7.71 L 0,0" style="fill:black;fill-opacity:1;fill-rule:nonzero;stroke:none" id="path3635" inkscape:connector-curvature="0" /></g><g id="g3637" transform="matrix(5.2535789,0,0,5.2535789,1065.0487,598.35094)" style="fill:black"><path d="M 0,0 C -2.02,0 -2.101,-0.277 -2.505,-1.401 L -3.313,-1.401 C -3.205,-0.969 -3.071,-0.539 -2.989,-0.092 -2.882,0.339 -2.828,0.77 -2.828,1.216 L -2.181,1.216 C -1.966,0.754 -1.293,0.77 -0.565,0.77 L 13.332,0.77 C 14.059,0.77 14.732,0.785 14.786,1.247 L 15.432,1.185 C 15.325,0.77 15.217,0.354 15.136,-0.062 15.082,-0.477 15.082,-0.893 15.082,-1.308 L 14.274,-1.477 C 14.22,-0.908 14.086,0 12.281,0 L 7.864,0 7.864,-8.188 C 7.864,-9.372 8.807,-9.511 10.1,-9.511 L 10.611,-9.511 10.611,-9.973 C 9.561,-9.973 7.676,-9.911 6.222,-9.911 4.606,-9.911 2.72,-9.973 1.67,-9.973 L 1.67,-9.511 2.181,-9.511 C 3.663,-9.511 4.417,-9.435 4.417,-8.218 L 4.417,0 0,0" style="fill:black;fill-opacity:1;fill-rule:nonzero;stroke:none" id="path3639" inkscape:connector-curvature="0" /></g></g></svg>