<svg width="127" height="25" viewBox="0 0 127 25" fill="none" xmlns="http://www.w3.org/2000/svg">
<g clip-path="url(#clip0_155_11008)">
<path d="M117.776 17.1876L127.001 25V18.75L119.625 12.5035L127.001 6.25V0L114.111 10.9287V7.81244L104.886 0V6.25L112.262 12.4965L104.886 18.75V25L117.776 14.0715V17.1876Z" fill="black"/>
<path d="M12.8268 10.5L8.68817 9.71875C6.38189 9.28125 5.37102 8.75 5.37102 7.5C5.37102 5.74997 7.36131 4.84371 9.85708 4.84371C12.4792 4.84371 14.817 5.84371 15.3225 7.96875H19.7455C19.24 3.90626 15.5437 1.25 9.85708 1.25C4.61281 1.25 0.47425 3.53132 0.47425 7.65631C0.47425 11.2501 3.57028 13.0626 7.70882 13.8438L11.8474 14.6251C14.1537 15.0626 15.3225 15.7813 15.3225 17.1876C15.3225 19.0938 13.1742 20.1563 10.5205 20.1563C7.26653 20.1563 5.0867 18.5938 4.58122 16.2501H0.000366211C0.663793 20.9376 4.39167 23.7501 10.5205 23.7501C15.9859 23.7501 20.2193 21.5626 20.2193 17.0312C20.2193 13.0312 16.9653 11.2812 12.8268 10.5Z" fill="black"/>
<path d="M30.7395 3.90626V1.5625H26.1587V3.28126C26.1587 5.31249 25.2109 6.25 23.1575 6.25H21.8622V9.6875H25.4953V18.1251C25.4953 21.8751 27.3592 23.4376 31.7821 23.4376H35.5415V20H32.1928C30.6132 20 30.0761 19.5312 30.0761 18.125V9.6875H35.5415V6.25H28.7492L30.7395 3.90626Z" fill="black"/>
<path d="M70.3562 20.3125C67.039 20.3125 64.9223 18 64.9223 14.875C64.9223 11.75 67.039 9.43751 70.3562 9.43751C72.9151 9.43751 74.7475 10.8438 75.2213 12.5625H79.739C78.9176 8.50001 75.3477 6 70.3562 6C64.3853 6 60.2466 9.56251 60.2466 14.875C60.2466 20.1875 64.3853 23.75 70.3562 23.75C75.3477 23.75 79.2651 21.25 79.897 17.0313H75.3793C74.9054 18.5938 73.1994 20.3125 70.3562 20.3125Z" fill="black"/>
<path d="M47.6097 6C41.4493 6 37.5002 9.56251 37.5002 14.875C37.5002 20.1875 41.4492 23.75 47.6097 23.75C53.7701 23.75 57.7192 20.1875 57.7192 14.875C57.7192 9.56251 53.7702 6 47.6097 6ZM47.6097 20.3125C44.2925 20.3125 42.1759 18 42.1759 14.875C42.1759 11.75 44.2925 9.43751 47.6097 9.43751C50.9269 9.43751 53.0436 11.75 53.0436 14.875C53.0436 18 50.9269 20.3125 47.6097 20.3125Z" fill="black"/>
<path d="M91.7123 14.3126L101.222 6.25006H95.0611L87.2895 13.0001V1.5625H82.7086V23.4376H87.2895V18.0626L90.0361 15.7339L96.7039 23.4376H102.517L94.6188 14.3126H91.7123Z" fill="black"/>
</g>
<defs>
<clipPath id="clip0_155_11008">
<rect width="127" height="25" fill="white"/>
</clipPath>
</defs>
</svg>
