<svg version="1.2" baseProfile="tiny-ps" xmlns="http://www.w3.org/2000/svg" viewBox="0 0 1555 368" width="1555" height="368"><title>truist-logo-purple-svg</title><style>tspan { white-space:pre }.shp0 { fill: #000000 } </style><g id="truist-logo"><g id="global/truist-logo--purple"><path id="tru_lg_hrz_rgb_pos" fill-rule="evenodd" class="shp0" d="M1188.6 333.84L1188.6 34.38C1188.6 13.44 1201.15 0.87 1222.07 0.87L1521.19 0.87C1542.11 0.87 1554.66 13.44 1554.66 34.38L1554.66 333.84C1554.66 354.78 1542.11 367.35 1521.19 367.35L1222.07 367.35C1201.15 367.35 1188.6 354.78 1188.6 333.84ZM1523.88 336.53L1523.88 201.91L1430.94 201.91L1430.94 268.62L1395.39 268.62L1395.39 99.6L1430.94 99.6L1430.94 166.31L1523.88 166.31L1523.88 31.69L1219.38 31.69L1219.38 166.31L1312.31 166.31L1312.31 99.6L1347.87 99.6L1347.87 268.62L1312.31 268.62L1312.31 201.91L1219.38 201.91L1219.38 336.53L1523.88 336.53ZM993.49 288.83L993.49 112.92L927.15 112.92L927.15 79.41L1096.29 79.41L1096.29 112.92L1029.95 112.92L1029.95 288.83L993.49 288.83ZM819.6 198.78C791.51 189.21 761.03 177.24 761.03 138.05C761.03 99.76 789.42 74.93 833.05 74.93C852.77 74.93 869.2 79.41 883.85 86L883.85 124.29C867.41 114.12 850.98 108.14 833.05 108.14C811.53 108.14 798.08 118.31 798.08 134.46C798.08 153.61 815.71 159.29 843.51 168.87C871.6 178.44 902.07 190.4 902.07 229.59C902.07 268.49 873.09 293.32 828.56 293.32C804.36 293.32 784.63 287.04 768.2 278.66L768.2 239.77C787.33 251.73 806.45 260.11 828.56 260.11C850.98 260.11 865.02 249.34 865.02 233.18C865.02 214.04 847.39 208.36 819.6 198.78ZM663.62 79.41L700.08 79.41L700.08 288.83L663.62 288.83L663.62 79.41ZM426.68 207.75L426.68 79.41L463.14 79.41L463.14 207.16C463.14 239.77 481.07 259.81 510.65 259.81C540.24 259.81 558.17 239.77 558.17 207.16L558.17 79.41L594.62 79.41L594.62 207.75C594.62 258.61 560.85 293.32 510.65 293.32C460.45 293.32 426.68 258.61 426.68 207.75ZM303.89 246.65C293.73 225.71 288.35 214.34 264.74 214.34L252.19 214.34L252.19 288.83L215.73 288.83L215.73 79.41L297.61 79.41C340.34 79.41 370.23 106.94 370.23 146.13C370.23 178.44 351.1 200.28 321.52 207.75C334.96 221.52 339.44 239.47 348.41 248.44C353.49 253.53 358.87 256.52 367.24 256.52C370.52 256.52 373.21 256.22 375.61 255.62L375.61 288.83C371.12 289.73 366.94 290.33 362.45 290.33C326.3 290.33 315.24 270.28 303.89 246.65ZM297.31 181.73C317.93 181.73 332.87 167.37 332.87 147.03C332.87 126.98 317.93 112.62 297.31 112.62L252.19 112.62L252.19 181.73L297.31 181.73ZM66.34 112.92L0 112.92L0 79.41L169.13 79.41L169.13 112.92L102.8 112.92L102.8 288.83L66.34 288.83L66.34 112.92Z" /></g></g></svg>