<svg id="Layer_1" data-name="Layer 1" xmlns="http://www.w3.org/2000/svg" viewBox="0 0 255.1 127.6">
  <defs>
    <style>
      .cls-1 {
        fill: #1d1d1b;
      }
    </style>
  </defs>
  <title>Obszar roboczy 1</title>
  <g>
    <path class="cls-1" d="M125.79,48.76a4.85,4.85,0,1,0-2,0l-.14,2.44L114.38,53l9,1.84L122,80.3h-1.52a33.68,33.68,0,0,1-8.8-1.36l.63-1.53-9-.41,6.93,5.42.65-1.56,13.86,5.57,13.92-5.59.66,1.58L146.2,77l-9,.41.63,1.51A33.67,33.67,0,0,1,129,80.3h-1.54l-1.3-25.5L134.94,53l-9-1.77Zm-3.44-4.46a2.35,2.35,0,1,1,2.35,2.35A2.35,2.35,0,0,1,122.35,44.29Z"/>
    <g>
      <path class="cls-1" d="M211.81,55.54H201.48c.8.9.73,1.73.73,3h0V69.39h0c0,1.24.06,2.07-.73,3h10.32a8.41,8.41,0,0,0,0-16.82Zm-.08,12.54H206.5V59.81h5.24a4.14,4.14,0,0,1,0,8.27Z"/>
      <path class="cls-1" d="M250.27,57.64a2.93,2.93,0,0,1,.73-2.1h-5.74c.8.9.73,1.73.73,3h0v7.39l-9.59-10.35h-5.16c.8.9.73,1.73.73,3h0V70.1a3,3,0,0,1-.73,2.25H237c-.8-.9-.73-1.73-.73-3h0V61.66l9.9,10.7H251a2.93,2.93,0,0,1-.73-2.1Z"/>
      <path class="cls-1" d="M227.61,57.93a3.16,3.16,0,0,1,.73-2.39h-5.74a3.16,3.16,0,0,1,.73,2.39V70a3.16,3.16,0,0,1-.73,2.39h5.74a3.16,3.16,0,0,1-.73-2.39Z"/>
      <path class="cls-1" d="M179.19,72.35l-8.08-16.82h-5.94a2.22,2.22,0,0,1,.05,2.4h0L158.3,72.35h5.53a1,1,0,0,1-.18-1.28l.57-1.19h9l.47,1h0l.06.13,0,.06a1,1,0,0,1-.18,1.29h5.53Zm-12.92-6.74,2.47-5.15,2.47,5.15Z"/>
      <path class="cls-1" d="M195.19,67.62a6.61,6.61,0,0,0,3.35-5.67,6.43,6.43,0,0,0-6.1-6.41H180.9a3.15,3.15,0,0,1,.73,2.37v12.2a3,3,0,0,1-.73,2.24h5.73a2.85,2.85,0,0,1-.72-2v-2h4.16l3.69,4h5.81Zm-2.75-3.53H185.9V59.81h6.54a2.17,2.17,0,0,1,0,4.28Z"/>
      <path class="cls-1" d="M155.79,57.64a2.93,2.93,0,0,1,.73-2.1h-5.74c.8.9.73,1.73.73,3h0v7.39l-9.59-10.35h-5.16c.8.9.73,1.73.73,3h0V70.1a3,3,0,0,1-.73,2.25h5.74c-.8-.9-.73-1.73-.73-3h0V61.66l9.9,10.7h4.84a2.93,2.93,0,0,1-.73-2.1Z"/>
    </g>
    <path class="cls-1" d="M23.31,55.54H17.58a3.11,3.11,0,0,1,.73,2.33v7.35A2.48,2.48,0,0,1,17.59,67a5.42,5.42,0,0,1-3.88,1.23A5.42,5.42,0,0,1,9.83,67a2.51,2.51,0,0,1-.72-1.87V57.61a2.91,2.91,0,0,1,.73-2.07H4.1a2.94,2.94,0,0,1,.73,2.11v7.48A6.75,6.75,0,0,0,6.77,70c1.12,1.15,3.24,2.51,6.93,2.51s5.81-1.37,6.93-2.51a6.73,6.73,0,0,0,1.94-4.86v-7.6A2.88,2.88,0,0,1,23.31,55.54Z"/>
    <path class="cls-1" d="M48.88,65.78l7.36-10.24H49.89a1,1,0,0,1,0,1.46h0l-3.19,4.43L43.4,56.78a.91.91,0,0,1,.19-1.25H37.24L44.6,65.78v4.48a2.93,2.93,0,0,1-.73,2.1H49.6a2.89,2.89,0,0,1-.73-2Z"/>
    <path class="cls-1" d="M37.84,68.07H30.61V57.64a2.93,2.93,0,0,1,.73-2.1H25.6a2.91,2.91,0,0,1,.73,2.08V70.24a2.93,2.93,0,0,1-.73,2.11h14.3v-5A2.91,2.91,0,0,1,37.84,68.07Z"/>
    <path class="cls-1" d="M109.87,59.56a2.88,2.88,0,0,1,2,.73v-1.4h0V55.54H96.24c.8.9.73,1.73.73,3h0V69.39h0c0,1.24.06,2.07-.73,3H111.9V69h0V67.6a2.9,2.9,0,0,1-2.05.73h-8.6V65.91h8.29V62h-8.29V59.56Z"/>
    <path class="cls-1" d="M66.59,62.09C64.3,61.83,61,61.87,61,60.53c0-.71.6-1.29,3.74-1.29a15,15,0,0,1,5,.78,2.73,2.73,0,0,1,1.39,1.08l.58-1.28h0l1-2.21.41-.89a2.94,2.94,0,0,1-1.76-.17A20.6,20.6,0,0,0,64,55.33c-6.67,0-7.29,4.26-7.29,5.27,0,3.71,3.48,4.63,7.34,5s5.5.16,5.34,1.51c-.09.78-1.57,1.4-4.53,1.4a14,14,0,0,1-5.16-1.18h0a2.73,2.73,0,0,1-1.31-1.19l-.25.45h0l-1.55,2.8h0l-.64,1.12a2.82,2.82,0,0,1,1.52.21,20.57,20.57,0,0,0,7.94,1.82c5.71,0,8.26-2.83,8.26-5.51C73.67,63.22,70.16,62.51,66.59,62.09Z"/>
    <path class="cls-1" d="M86.65,62.09c-2.28-.27-5.56-.22-5.56-1.56,0-.71.6-1.29,3.74-1.29a15,15,0,0,1,5,.78,2.73,2.73,0,0,1,1.39,1.08l.58-1.28h0l1-2.21.41-.89a2.94,2.94,0,0,1-1.76-.17,20.6,20.6,0,0,0-7.42-1.23c-6.67,0-7.29,4.26-7.29,5.27,0,3.71,3.48,4.63,7.34,5s5.5.16,5.34,1.51c-.09.78-1.57,1.4-4.53,1.4a14,14,0,0,1-5.16-1.18h0a2.73,2.73,0,0,1-1.31-1.19l-.25.45h0l-1.55,2.8h0L76,70.54a2.82,2.82,0,0,1,1.52.21,20.57,20.57,0,0,0,7.94,1.82c5.71,0,8.26-2.83,8.26-5.51C93.73,63.22,90.23,62.51,86.65,62.09Z"/>
  </g>
</svg>
