<svg version="1.2" baseProfile="tiny-ps" xmlns="http://www.w3.org/2000/svg" viewBox="0 0 1507 1667" width="1507" height="1667">
	<title>Unilever-svg</title>
	<style>
		tspan { white-space:pre }
		.shp0 { fill: #000000 } 
	</style>
	<g id="layer1">
		<g id="g7579">
			<g id="g7581">
				<path id="path7583" fill-rule="evenodd" class="shp0" d="M605.21 1625.5C618.17 1625.5 640.45 1621.3 657.98 1593.23C647.96 1570.95 640.82 1525.94 639.79 1509.56C634.63 1425.73 666.93 1346.88 702.3 1344.72C728.2 1343.16 748.94 1367.68 751.32 1407.41C757.68 1511.85 722.91 1555.46 705.51 1593.04C708.45 1607.63 733.16 1632.45 756.51 1632.45C765.13 1632.45 775.56 1628.13 778.17 1624.64C776.42 1618.63 774.67 1610.83 774.67 1599.56C774.67 1539.04 813.6 1488.02 847.32 1488.02C874.12 1488.02 889.68 1523.47 889.68 1546.86C889.68 1574.48 866.33 1597.01 831.76 1618.63C837.83 1624.64 849.02 1629.02 858.57 1629.02C907.88 1629.02 933.7 1569.34 952.82 1514.85C956.27 1504.44 962.34 1489.75 974.42 1489.75C995.2 1489.75 1003.86 1626.37 1038.36 1626.37C1053.09 1626.37 1065.19 1596.08 1065.19 1572.8C1065.19 1555.5 1059.14 1553.77 1059.14 1528.67C1059.14 1501.05 1073.85 1477.72 1093.76 1477.72C1105.86 1477.72 1110.22 1489.75 1110.22 1504.44C1110.22 1559.78 1070.41 1662.67 1011.68 1662.67C967.51 1662.67 970.96 1586.6 955.41 1586.6C938.05 1586.6 913.83 1663.56 828.31 1663.56C814.4 1663.56 799.75 1656.65 787.68 1642.78C766.94 1656.65 749.59 1662.67 729.7 1662.67C697.75 1662.67 683.9 1629.82 670.94 1629.82C655.35 1629.82 638.11 1663.56 586.18 1663.56C544.68 1663.56 537.75 1608.26 523.1 1608.26C510.1 1608.26 490.23 1663.56 468.63 1663.56C432.25 1663.56 424.54 1567.59 392.5 1567.59C367.43 1567.59 288.2 1665.06 266.7 1662.84C258.04 1661.93 254.42 1655.45 255.32 1646.81C256.54 1634.86 266.82 1602.85 271.02 1587.69C278.01 1561.4 284.43 1532.58 288.01 1523.39C291.57 1514.13 301.18 1507.5 308.87 1508.22C312.76 1508.6 313.93 1515.84 315.13 1521.8C319.49 1543.18 325.6 1564.98 332.47 1564.98C344.61 1564.98 384.73 1488.02 408.06 1488.02C436.63 1488.02 440.07 1609.09 478.93 1609.09C491.93 1609.09 501.48 1593.55 510.1 1574.48C510.99 1542.43 519.61 1496.73 545.55 1496.73C563.74 1496.73 572.4 1537.31 559.37 1572.8C559.37 1615.13 587.02 1625.5 605.21 1625.5ZM1319.39 1497.57C1334.99 1497.57 1328.05 1595.26 1349.7 1595.26C1362.68 1595.26 1379.94 1473.36 1461.2 1473.36C1488.85 1473.36 1506.98 1488.87 1506.98 1508.76C1506.98 1522.67 1496.65 1534.76 1481.98 1534.76C1450.85 1534.76 1458.61 1511.39 1445.67 1511.39C1411.04 1511.39 1385.95 1577.94 1360.11 1635.91C1349.7 1659.22 1343.61 1663.56 1334.99 1663.56C1313.3 1663.56 1308.18 1603.88 1299.5 1577.94C1281.35 1616.82 1246.79 1663.56 1189.68 1663.56C1156.84 1663.56 1124.09 1646.26 1124.09 1593.55C1124.09 1534.76 1162.05 1492.36 1200.95 1492.36C1230.37 1492.36 1250.24 1522.67 1250.24 1544.25C1250.24 1602.21 1174.1 1603.88 1174.1 1616C1174.1 1627.25 1194.02 1631.59 1205.23 1631.59C1253.7 1631.59 1286.19 1566.22 1296.9 1521.78C1298.76 1514.07 1305.55 1497.57 1319.39 1497.57ZM723.32 1430.73C721.82 1406.58 715.98 1395.68 703 1396.54C685.78 1397.59 677.81 1451.78 681.33 1508.7C683.57 1545.85 689.11 1551.57 694.25 1551.22C703.78 1550.66 726.63 1484.28 723.32 1430.73ZM551.66 1421.5C535.16 1421.5 526.74 1409.75 525.7 1395.52C524.05 1373.87 539.5 1356.66 555.92 1356.66C570.63 1356.66 581.49 1366.12 582.7 1379.96C584.45 1399.88 570.63 1421.5 551.66 1421.5ZM851.66 1556.32C851.66 1541.65 843.84 1529.56 834.4 1529.56C826.54 1529.56 808.43 1538.16 808.43 1565.84C808.43 1587.53 816.15 1597.81 819.67 1602.21C844.7 1594.42 851.66 1573.62 851.66 1556.32ZM1164.64 1593.55C1188.85 1589.23 1204.39 1574.48 1208.75 1561.52C1213.07 1548.52 1207.86 1527.01 1189.68 1527.01C1156.84 1527.01 1159.43 1580.55 1164.64 1593.55ZM194.1 1465.62C191.61 1457.76 184.43 1440.09 182.45 1427.05C178.13 1398.17 193.23 1379.14 207.1 1374.78C222.67 1370.44 228.74 1378.24 234.75 1396.42C242.55 1424.07 243.41 1460.36 240.8 1512.24C237.38 1583.15 201.91 1668.74 113.74 1666.97C37.62 1665.31 3.94 1616 0.44 1540.79C-1.21 1505.34 1.3 1469.92 16.01 1419.77C23.79 1392.94 30.74 1383.4 54.92 1378.24C73.93 1374.78 72.22 1394.63 67.9 1418.06C58.41 1469.92 54.03 1494.96 57.53 1553.77C60.92 1616 89.52 1640.23 120.65 1640.23C167.33 1641.12 188.07 1602.21 196.75 1545.97C203.62 1501.05 198.46 1479.43 194.1 1465.62Z" />
			</g>
			<g id="g7585">
			</g>
			<g id="g7589">
			</g>
			<g id="g7593">
			</g>
			<g id="g7597">
			</g>
			<g id="g7601">
			</g>
			<g id="g7605">
			</g>
			<g id="g7609">
			</g>
			<g id="g7613">
			</g>
			<g id="g7617">
			</g>
			<g id="g7621">
			</g>
			<g id="g7625">
			</g>
			<g id="g7629">
			</g>
			<g id="g7633">
			</g>
			<g id="g7637">
			</g>
			<g id="g7641">
			</g>
			<g id="g7645">
			</g>
			<g id="g7649">
			</g>
			<g id="g7653">
			</g>
			<g id="g7657">
			</g>
			<g id="g7661">
			</g>
			<g id="g7665">
			</g>
			<g id="g7669">
			</g>
			<g id="g7673">
			</g>
			<g id="g7677">
				<path id="path7587" fill-rule="evenodd" class="shp0" d="M1308.4 291.26C1321.72 295.87 1320.34 315.62 1320.34 340.84C1320.34 384.86 1315.75 440.73 1303.8 441.76C1285.9 443.14 1219.88 384.41 1213.89 340.84C1231.81 342.67 1287.28 333.95 1308.4 291.26ZM1187.27 303.22C1187.27 297.7 1191.86 287.17 1207.02 287.17C1248.8 287.17 1287.28 259.17 1287.28 233.93C1287.28 226.61 1285.9 223.4 1282.69 219.26C1301.49 221.55 1308.86 234.38 1308.86 250C1308.86 283.49 1265.22 321.57 1217.55 321.57C1199.68 321.57 1187.27 316.07 1187.27 303.22ZM1207.47 269.73C1201.05 269.73 1191.86 269.73 1186.8 259.65C1182.66 251.38 1184.04 238.07 1176.24 232.1C1184.04 234.38 1192.31 234.38 1198.75 234.38C1219.43 234.38 1239.18 220.17 1254.32 220.17C1264.32 220.17 1267.53 226.61 1267.53 233.01C1267.53 253.23 1226.77 269.73 1207.47 269.73ZM181.18 629.39C196.76 629.39 193.55 533.96 218.79 533.96C224.76 533.96 226.59 539.93 226.59 547.27C226.59 568.83 216.03 600.49 216.03 617.91C216.03 626.64 218.32 629.39 222.45 629.39C233.48 629.39 252.74 524.32 271.56 524.32C277.53 524.32 280.26 530.28 280.26 536.27C280.26 558.28 252.28 621.58 252.28 639.47C252.28 642.21 253.21 644.51 255.49 644.51C266.97 644.51 289.91 594.98 297.24 570.21C301.37 557.35 306.88 550.46 311.92 550.46C316.51 550.46 320.65 555.52 320.65 566.07C320.65 590.84 297.69 649.1 277.53 688.12C261.93 718.38 237.61 761.95 237.61 786.27C237.61 798.65 239.88 811.49 257.8 827.1C228.42 825.27 216.49 822.52 205.5 799.58C156.41 897.29 295.88 887.66 248.15 974.35C239.42 958.78 170.61 942.71 170.61 851.87C170.61 773.43 239.42 727.56 239.42 694.97C239.42 688.58 237.16 683.06 231.17 678C216.03 665.15 215.56 654.63 203.67 654.63C194.92 654.63 184.37 674.79 195.38 692.69C199.06 698.66 202.27 702.32 202.27 707.83C202.27 720.67 182.07 755.06 167.87 755.06C153.65 755.06 142.65 719.78 142.65 662.86C142.65 612.4 154.11 561.49 168.32 561.49C172.46 561.49 173.84 564.24 173.84 567.91C173.84 573.87 172.01 585.8 172.01 605.96C172.01 627.54 177.05 629.39 181.18 629.39ZM273.38 737.17C273.38 734.89 274.76 726.64 277.52 726.64C281.2 726.64 283.94 736.24 294.51 736.24C314.69 736.24 316.07 716.56 316.07 677.1C316.07 631.68 334.86 579.82 395.42 540.84C385.77 557.36 383.49 578.92 383.49 592.23C383.49 670.21 477.55 743.16 477.55 791.31C477.55 811.02 463.32 833.07 437.19 833.07C414.23 833.07 401.86 814.7 401.86 799.58C401.86 787.63 410.13 778.46 412.87 778.46C414.23 778.46 414.7 779.36 414.7 782.57C414.7 789.01 419.74 797.28 430.32 797.28C439.94 797.28 446.36 790.39 446.36 781.67C446.36 743.61 368.82 677.1 368.82 585.79C364.69 595.89 359.65 608.72 359.65 628.02C359.65 672.04 391.76 717.94 391.76 759.2C391.76 776.17 378.47 791.31 361.93 791.31C342.67 791.31 335.78 776.17 335.78 766.55C335.78 760.11 338.54 754.14 340.37 754.14C342.67 754.14 341.75 763.79 352.32 763.79C363.31 763.79 367.44 755.97 367.44 741.78C367.44 703.7 345.43 676.63 345.43 637.17C345.43 631.23 345.43 624.79 346.81 618.82C334.86 633.06 333.48 653.24 333.48 671.12L333.48 717.94C333.48 749.55 317.45 763.79 298.15 763.79C285.79 763.79 273.38 754.14 273.38 737.17ZM993.26 247.25C999.08 243.34 1024.92 249.54 1058.38 233.02C1062.49 230.73 1066.63 229.81 1070.29 229.81C1086.38 229.81 1082.22 248.16 1096.95 248.16C1108.41 248.16 1123.12 238.51 1131.84 238.51C1145.52 238.51 1165.25 281.65 1165.25 301.83C1165.25 325.24 1130.01 339.45 1088.21 339.45C1027.25 339.45 990.48 286.25 990.48 251.84C990.48 249.08 991.88 248.16 993.26 247.25ZM1093.27 305.51C1113.47 305.51 1128.63 296.33 1128.63 290.82C1128.63 289.01 1125.88 287.61 1119.89 287.61C1113.92 287.61 1101.99 287.16 1079.48 283.5C1060.19 280.27 1045.5 272.95 1039.98 272.95C1038.15 272.95 1037.23 273.85 1037.23 275.23C1037.23 287.16 1059.28 305.51 1093.27 305.51ZM400.95 1069.81C437.65 1069.81 455.53 1050.96 455.53 1018.42C455.53 982.15 431.21 945.93 390.38 945.93C369.74 945.93 355.51 957.86 355.51 974.34C355.51 1001.9 378.01 1019.35 401.4 1019.35C416.98 1019.35 427.1 1012.91 427.1 1002.35C427.1 1000.52 426.63 998.22 425.72 996.84C423.87 997.77 420.21 998.67 415.62 998.67C396.82 998.67 381.67 987.65 381.67 976.64C381.67 967.92 387.62 962.45 395.89 962.45C423.42 962.45 442.22 990.87 442.22 1011.53C442.22 1032.61 427.1 1050.96 401.4 1050.96C346.8 1050.96 323.86 1005.56 323.86 975.26C323.86 942.72 350.94 920.67 381.22 920.67C436.73 920.67 479.38 969.3 479.38 1038.58C479.38 1069.81 462.86 1116.13 395.89 1116.13C316.52 1116.13 268.34 1046.85 268.34 1001.9C268.34 964.24 292.67 940.41 307.8 936.73C291.75 1003.73 327.53 1069.81 400.95 1069.81ZM831.52 1205.52C853.51 1205.52 852.38 1203.69 859.27 1203.69C866.14 1203.69 866.61 1207.83 866.61 1210.58C866.61 1220.68 844.11 1233.09 804.22 1233.09C780.8 1233.09 766.59 1220.68 762.45 1206.92C739.53 1221.59 704.66 1234.9 670.24 1234.9C576.2 1234.9 552.34 1194.04 522.98 1180.78C500.47 1170.68 466.07 1190.42 417.91 1136.73C424.33 1138.11 433.05 1138.58 439.95 1138.58C482.12 1138.58 504.61 1117.95 504.61 1084.89C504.61 1080.76 504.16 1076.23 503.68 1072.12C516.54 1077.16 545.92 1099.15 552.79 1138.11C553.72 1142.72 572.52 1146.83 584.43 1146.83C600.97 1146.83 622.08 1139.94 625.27 1112.91C680.34 1108.32 717.52 1075.76 725.32 1034.43C745.03 1040.87 767.49 1058.77 773.01 1067.96C780.8 1065.21 789.98 1063.83 800.53 1063.83C815.2 1063.83 831.74 1066.59 851.45 1072.57C852.38 1066.59 853.3 1059.24 862.48 1059.24C876.24 1059.24 872.56 1074.38 877.15 1083.06C879.45 1087.65 890.95 1090.41 890.95 1099.58C890.95 1108.32 883.57 1111.53 879 1111.53C877.15 1111.53 874.86 1111.08 873.47 1110.63C864.31 1113.84 863.86 1179.87 825.3 1179.87C796.87 1179.87 770.72 1156.48 759.24 1127.15C756.01 1118.42 749.16 1112.91 742.72 1112.91C735.4 1112.91 731.26 1114.29 722.56 1123.94C697.79 1150.97 656.48 1174.36 605.56 1174.36C589.95 1174.36 577.58 1172.98 574.35 1172.98C572.52 1172.98 572.52 1173.43 572.52 1173.88C572.52 1177.11 588.11 1189.52 622.08 1189.52C702.81 1189.52 722.56 1144.08 735.4 1144.08C737.23 1144.08 742.72 1144.08 745.93 1151.42C764.74 1195.42 805.82 1205.52 831.52 1205.52ZM795.95 1113.84C795.95 1123.94 804.22 1132.19 814.3 1132.19C824.4 1132.19 832.65 1123.94 832.65 1113.84C832.65 1103.74 824.4 1095.47 814.3 1095.47C804.22 1095.47 795.95 1103.74 795.95 1113.84ZM1109.8 913.32C1100.17 913.32 1046.86 984.44 1012.55 984.44C1004.28 984.44 997.41 968.82 997.41 956.96C997.41 950.52 1001.5 945.93 1016.23 942.72C1095.11 924.8 1077.66 865.62 1145.06 865.62C1182.21 865.62 1223.55 890.86 1223.55 947.76C1223.55 1008.32 1137.34 1083.53 1124.49 1083.53C1113.91 1083.53 1102.45 1068.41 1102.45 1058.31C1102.45 1055.12 1103.83 1050.97 1113.01 1047.3C1156.99 1029.84 1182.21 989.5 1182.21 968.82C1182.21 964.24 1179.93 959.71 1173.94 959.71C1166.17 959.71 1132.76 1035.83 1095.56 1035.83C1069.84 1035.83 1043.67 1012.46 1043.67 1001.43C1043.67 983.08 1118.05 949.14 1118.05 923.42C1118.05 913.78 1113.48 913.32 1109.8 913.32ZM1159.28 884.89C1152.86 884.89 1145.99 889.95 1145.99 902.36C1145.99 916.08 1156.54 924.8 1162.51 927.56C1165.71 929.39 1170.78 931.24 1175.78 931.24C1189.11 931.24 1199.66 927.56 1199.66 916.53C1199.66 902.36 1179.01 884.89 1159.28 884.89ZM320.66 335.32C330.74 335.32 338.99 343.59 338.99 353.67C338.99 363.77 330.74 372.04 320.66 372.04C310.56 372.04 302.29 363.77 302.29 353.67C302.29 343.59 310.56 335.32 320.66 335.32ZM296.77 294.03C306.88 294.03 315.15 302.3 315.15 312.38C315.15 322.46 306.88 330.73 296.77 330.73C286.69 330.73 278.44 322.46 278.44 312.38C278.44 302.3 286.69 294.03 296.77 294.03ZM258.71 459.2C258.71 472.94 263.3 486.7 276.14 499.09C272.48 501.84 266.51 503.67 258.26 503.67C242.17 503.67 229.36 493.12 229.36 476.6C229.36 453.69 251.35 440.83 261.92 438.07C260.09 443.59 258.71 449.55 258.71 459.2ZM195.84 464.2C201.36 464.2 207.32 463.75 212.36 462.84C200.45 477.98 187.12 484.87 175.68 484.87C160.54 484.87 149.08 472.94 149.08 451.38C149.08 449.1 149.08 446.82 149.53 444.51C160.54 459.65 178.89 464.2 195.84 464.2ZM176.59 512.85C188.97 512.85 202.73 510.11 220.61 505.98C197.24 526.16 177.51 536.71 162.82 536.71C144.02 536.71 133.46 520.19 133.46 485.32C147.25 506.43 160.07 512.85 176.59 512.85ZM184.36 250.92C184.36 233.92 197.24 219.71 215.12 219.71C246.31 219.71 256.41 253.22 256.41 275.23C256.41 285.33 254.58 294.49 252.3 301.83C220.61 301.83 184.36 287.16 184.36 250.92ZM188.05 340.38C208.19 327.54 226.13 325.69 241.27 325.69C244.93 325.69 248.59 325.84 251.35 326.14C259.64 327.07 266.2 327.21 268.34 329.35C272.07 333.08 269.82 340.17 275.67 348.16C281.53 356.18 288.55 355.05 288.55 363.77C288.55 370.66 275.67 411.47 242.65 428.01C227.05 435.79 214.65 439 204.11 439C186.21 439 173.83 431.22 162.82 431.22C160.99 431.22 158.71 432.13 155.02 432.13C150.91 432.13 146.32 427.54 146.32 423.43C146.32 421.57 146.84 419.78 147.7 418.37C154.1 407.81 148.24 365.76 188.05 340.38ZM246.31 343.14C244 341.76 242.65 341.31 239.42 341.31C232.57 341.31 227.5 342.21 227.5 350.91C227.5 364.69 240.34 389.01 256.41 389.01C263.75 389.01 267.44 380.74 267.44 374.32C267.44 371.11 258.67 365.79 255.5 361.47C250.44 354.59 250.44 345.42 246.31 343.14ZM230.26 409.64C230.26 408.72 229.36 408.26 227.98 407.34C214.19 400.94 199.52 388.08 196.77 365.62C196.32 362.39 195.39 361.01 193.56 361.01C188.5 361.01 181.63 372.49 181.63 381.67C181.63 398.64 198.15 417.44 213.27 417.44C221.54 417.44 230.26 412.85 230.26 409.64ZM350.92 459.2C350.92 478.91 340.37 498.16 317.9 498.16C294.51 498.16 279.35 477.53 279.35 452.76C279.35 432.13 289.9 411.93 300 400.02C322.94 406.89 350.92 428.47 350.92 459.2ZM201.83 311.93C201.83 311.93 188.5 322.01 172 322.01C152.29 322.01 136.67 307.34 136.67 286.71C136.67 272.47 144.02 257.81 160.99 250.46C160.54 253.22 160.54 255.5 160.54 258.26C160.54 284.41 175.21 304.13 201.83 311.93ZM1029.87 444.97C1040.45 444.97 1049.17 453.68 1049.17 464.21C1049.17 474.78 1040.45 483.5 1029.87 483.5C1019.44 483.5 1010.7 474.78 1010.7 464.21C1010.7 453.68 1019.44 444.97 1029.87 444.97ZM1033.58 500.48C1045.51 500.48 1055.16 510.1 1055.16 522.01C1055.16 533.97 1045.51 543.59 1033.58 543.59C1021.73 543.59 1012.08 533.97 1012.08 522.01C1012.08 510.1 1021.73 500.48 1033.58 500.48ZM977.66 529.36C995.08 529.36 1009.34 543.59 1009.34 561.02C1009.34 578.44 995.08 592.68 977.66 592.68C960.19 592.68 945.98 578.44 945.98 561.02C945.98 543.59 960.19 529.36 977.66 529.36ZM981.32 477.99C991.42 477.99 999.67 486.26 999.67 496.34C999.67 506.44 991.42 514.69 981.32 514.69C971.2 514.69 962.95 506.44 962.95 496.34C962.95 486.26 971.2 477.99 981.32 477.99ZM921.14 514.69C931.27 514.69 939.54 522.94 939.54 533.04C939.54 543.14 931.27 551.37 921.14 551.37C911.15 551.37 902.88 543.14 902.88 533.04C902.88 522.94 911.15 514.69 921.14 514.69ZM979.47 396.34C995.56 396.34 1008.87 409.63 1008.87 425.72C1008.87 441.77 995.56 455.05 979.47 455.05C963.4 455.05 950.09 441.77 950.09 425.72C950.09 409.63 963.4 396.34 979.47 396.34ZM1001.98 351.83C1011.63 351.83 1019.44 359.64 1019.44 369.27C1019.44 378.9 1011.63 386.7 1001.98 386.7C992.33 386.7 984.53 378.9 984.53 369.27C984.53 359.64 992.33 351.83 1001.98 351.83ZM918.86 395.89C928.51 395.89 936.31 403.69 936.31 413.32C936.31 422.96 928.51 430.76 918.86 430.76C909.31 430.76 901.52 422.96 901.52 413.32C901.52 403.69 909.31 395.89 918.86 395.89ZM927.11 444.97C942.73 444.97 955.15 457.36 955.15 472.93C955.15 488.54 942.73 500.93 927.11 500.93C911.62 500.93 899.21 488.54 899.21 472.93C899.21 457.36 911.62 444.97 927.11 444.97ZM867.53 476.16C881.75 476.16 893.7 488.09 893.7 502.31C893.7 516.54 881.75 528.43 867.53 528.43C853.29 528.43 841.38 516.54 841.38 502.31C841.38 488.09 853.29 476.16 867.53 476.16ZM875.31 419.28C885.43 419.28 893.7 427.55 893.7 437.63C893.7 447.71 885.43 455.98 875.31 455.98C865.25 455.98 856.98 447.71 856.98 437.63C856.98 427.55 865.25 419.28 875.31 419.28ZM1018.04 578.91C1018.04 569.74 1026.31 561.94 1035.39 561.94C1045.51 561.94 1053.31 569.74 1053.31 578.91C1053.31 589.47 1045.51 596.81 1035.39 596.81C1026.31 596.81 1018.04 589.47 1018.04 578.91ZM1082.69 1100.97C1082.69 1144.52 1018.51 1198.17 932.63 1198.17C906.11 1198.17 891.88 1179.89 891.88 1161.54C891.88 1135.41 906.11 1111.55 917.02 1098.69C922.06 1092.7 927.12 1088.12 931.71 1088.12C935.39 1088.12 946.42 1095.91 971.21 1095.91C1017.6 1095.91 1045.5 1075.32 1057.43 1066.13C1068.02 1066.13 1082.69 1076.23 1082.69 1100.97ZM984.07 1076.23C959.27 1076.23 939.07 1067.5 939.07 1058.78L939.07 1037.66C939.07 1031.22 956.97 1016.12 990.48 1016.12C1018.05 1016.12 1038.15 1023.89 1038.15 1037.2L1038.15 1047.76C1038.15 1052.82 1037.29 1057.92 1033.56 1061.07C1021.74 1071.19 1003.82 1076.23 984.07 1076.23ZM975.36 1120.72L969.38 1120.72C969.85 1124.84 970.28 1127.59 970.28 1131.28C970.28 1142.24 967.52 1153.72 963.86 1164.7C986.82 1164.29 1002.44 1157.85 1013.92 1150.06C1030.36 1139.5 1034.94 1126.22 1034.94 1116.14C1034.94 1107.84 1032.19 1106.49 1029.88 1106.49C1027.25 1106.49 1011.61 1120.72 975.36 1120.72ZM1073.51 680.31C1073.51 691.77 1077.19 705.08 1088.67 705.08C1098.3 705.08 1106.57 690.41 1106.57 674.35C1106.57 656 1103.36 641.76 1103.36 634.42C1103.36 631.23 1104.74 629.85 1106.57 629.85C1113.46 630.3 1119.9 649.1 1127.25 649.1C1135.52 649.1 1147.82 633.96 1152.86 633.96C1154.24 633.96 1154.69 635.79 1154.69 636.25C1154.69 643.14 1144.14 658.3 1144.14 664.24C1144.14 669.28 1170.76 670.21 1170.76 674.8C1170.76 681.69 1142.86 681.69 1129.55 687.66C1116.69 693.15 1108.88 700.04 1108.88 709.21C1108.88 718.39 1118.05 720.2 1130.93 720.2C1161.58 720.2 1183.14 703.7 1190.02 703.7C1191.39 703.7 1192.3 704.63 1192.3 706C1192.3 710.59 1176.71 725.71 1176.71 732.6C1176.71 740.4 1205.18 749.55 1204.73 754.14C1204.27 755.52 1202.42 755.97 1199.21 755.97C1194.15 755.97 1186.35 754.61 1180.37 754.61C1176.71 754.61 1173.5 755.07 1172.1 756.9C1168.93 760.58 1173.02 784.87 1166.64 784.87C1160.66 784.87 1145.04 730.77 1109.8 730.77C1104.74 730.77 1101.08 734.89 1101.08 741.78C1101.08 760.11 1118.98 781.21 1135.97 791.31C1143.66 796.35 1156.54 801.41 1156.54 804.17C1156.54 809.64 1127.25 804.62 1127.25 813.78C1127.25 822.05 1130.93 834.45 1130.93 841.77C1130.93 844.08 1130.46 846.81 1127.7 846.81C1122.21 846.81 1108.88 821.59 1102.44 821.59C1096.94 821.59 1085.01 836.71 1079.93 836.71C1078.57 836.71 1077.67 835.34 1077.67 834C1077.67 823.43 1094.64 799.58 1094.64 776.17C1094.64 765.17 1093.26 741.3 1079.93 741.3C1068.92 741.3 1056.52 758.73 1051 776.17C1047.79 786.25 1050.1 825.26 1042.75 825.26C1035.86 825.26 1037.69 799.11 1028.5 799.11C1021.73 799.11 1007.04 811.49 1001.98 811.49C1001.07 811.49 1000.15 811.02 1000.15 810.12C1000.15 804.62 1013.46 786.73 1013.46 783.04C1013.46 776.17 983.15 775.27 983.15 769.75C983.15 766.55 995.08 764.24 1006.11 762.41C1029.44 758.28 1063.88 741.3 1063.88 717.48C1063.88 690.86 1038.14 679.39 1021.27 668.36C1012.53 662.87 1002.9 658.3 1002.9 654.62C1002.9 650.94 1013.93 650.94 1018.52 650.94C1025.39 650.94 1032.2 650.48 1032.2 644.99C1032.2 640.83 1031.25 632.61 1031.25 626.19C1031.25 621.58 1031.73 617.9 1033.58 617.9C1040.45 617.9 1050.1 640.38 1054.69 640.38C1062.03 640.38 1072.13 622.03 1079.04 622.03C1081.31 622.03 1082.23 623.43 1082.23 627.55C1082.23 644.52 1073.51 663.77 1073.51 680.31ZM854.67 545.9C859.73 584.88 912.07 565.15 912.07 612.41C912.07 619.3 910.24 629.4 910.24 638.08C910.24 648.2 911.15 656.92 918.86 656.92C926.66 656.92 928.51 651.41 928.51 644.06C928.51 636.7 926.66 627.55 926.66 622.51C926.66 606.44 938.14 602.78 945.03 602.78C962.5 602.78 975.81 620.68 1001.98 620.68C996.01 650.03 935.38 642.21 935.38 674.35C935.38 690.41 951.47 694.05 962.02 694.05C971.67 694.05 974.9 692.67 974.9 684.45C974.9 679.84 973.96 674.8 973.96 671.59C973.96 669.74 975.35 667.91 977.66 667.91C987.76 667.91 1037.24 705.53 1037.24 717.01C1037.24 727.54 984.98 738.1 969.84 738.1C965.25 738.1 964.33 734.89 964.33 733.06C964.33 729.85 972.12 720.2 972.12 714.71C972.12 710.59 965.25 707.84 946.86 707.84C938.14 707.84 931.72 708.74 931.72 715.65C931.72 728.02 951.92 743.16 951.92 754.61C951.92 763.79 946.41 769.3 931.72 769.3C919.31 769.3 900.59 759.65 900.59 743.61C900.59 730.77 913.82 717.94 913.82 710.14C913.82 707.84 912.07 704.15 906.56 704.15C889.56 704.15 884.98 749.1 824.84 754.14C834.49 745.44 842.74 735.81 842.74 716.11C842.74 706.46 840.46 698.64 840.46 688.11C840.46 674.35 846.87 667.45 856.05 667.45C873.02 667.45 881.27 691.3 892.32 691.3C898.31 691.3 904.73 685.82 904.73 677.55C904.73 642.69 837.7 647.73 837.7 598.64C837.7 585.33 842.27 568.84 854.67 545.9ZM917.96 783.05C966.16 792.23 992.33 828.48 992.33 862.42C992.33 885.83 977.64 907.35 951.92 907.35C928.51 907.35 911.62 891.32 911.62 865.61C911.62 846.35 926.66 826.17 926.66 806.44C926.66 798.65 924.38 790.85 917.96 783.05ZM867.98 807.35C889.11 810.11 894.17 817.45 894.17 823.44C894.17 833.52 884.98 836.7 876.23 836.7C869.82 836.7 862.47 835.35 854.67 835.35C844.57 835.35 834.49 837.63 826.22 847.28C832.19 848.2 840.91 852.32 840.91 861.51C840.91 888.11 767.03 866.08 767.03 934.46C767.03 970.68 804.66 1010.16 861.55 1010.16C890.94 1010.16 909.77 1000.51 909.77 989.49C909.77 980.78 894.17 986.73 894.17 979.39C894.17 976.18 899.67 970.19 899.67 965.15C899.67 962.91 897.84 958.77 894.17 958.77C885.88 958.77 870.29 972.04 838.61 972.04C813.84 972.04 789.52 957.85 789.52 938.57C789.52 934.46 791.35 932.13 794.11 932.13C796.86 932.13 800.53 933.99 803.73 933.99C806.51 933.99 806.96 932.13 806.96 927.09C806.96 922.05 806.96 907.82 815.67 907.82C824.39 907.82 840.91 939.95 904.28 939.95C925.3 939.95 966.16 935.82 981.32 922.05C980.85 972.52 941.37 1039.02 858.81 1039.02C773.02 1039.02 727.12 970.19 727.12 906.89C727.12 836.7 784.46 772.97 862.94 772.97C883.11 772.97 900.12 779.82 900.12 788.55C900.12 800.5 870.29 793.15 867.98 807.35ZM901.52 895.48C901.52 907.35 892.78 917.47 879.9 917.47C867.98 917.47 859.74 907.82 859.74 896.83C859.74 889.04 862.94 881.69 862.94 874.8C862.94 870.21 861.55 865.61 856.98 861.06C883.56 861.06 901.52 878.03 901.52 895.48ZM1065.26 878.94C1065.26 896.83 1052.4 911.95 1033.58 911.95C1016.22 911.95 1004.74 899.59 1004.74 884.45C1004.74 871.12 1013.46 859.21 1013.46 846.35C1013.46 841.76 1012.08 836.7 1008.87 831.71C1043.23 833.99 1065.26 854.62 1065.26 878.94ZM941.82 844.07C941.82 850.49 946.41 855.55 952.85 855.55C960.19 855.55 964.8 849.11 964.8 841.76C964.8 832.16 956.06 818.83 947.79 818.83C944.11 818.83 945.5 824.34 944.56 830.31C944.11 834.87 941.82 840.39 941.82 844.07ZM571.15 283.49C601.43 283.49 615.17 309.64 615.17 339C615.17 351.83 611.53 370.65 605.56 370.65C599.6 370.65 600.5 360.1 599.6 350.45C598.67 338.09 596.39 335.33 592.25 335.33C584.44 335.33 579.42 353.66 579.42 370.65C579.42 381.19 581.25 393.14 589.5 393.14C594.08 393.14 598.22 390.83 600.96 388.08C599.13 409.18 583.51 427.55 561.5 427.55C521.13 427.55 505.99 380.28 501.4 352.76C477.08 378.45 454.62 397.27 414.23 397.27C376.63 397.27 359.63 369.75 359.63 343.6C359.63 335.79 362.39 315.61 372.04 315.61C383.5 315.61 373.42 353.21 395.88 353.21C401.4 353.21 411.48 348.62 416.99 333.5C420.2 324.31 422.05 314.7 422.05 306.43C422.05 294.03 419.29 286.25 410.14 286.25C402.32 286.25 392.67 292.2 389.46 295.4C400.49 262.37 427.09 245.4 456.43 245.4C492.7 245.4 511.96 277.53 511.96 313.3C511.96 318.34 511.48 323.85 510.58 328.89C526.17 303.2 547.75 283.49 571.15 283.49ZM535.8 337.62C535.8 329.82 533.97 327.99 532.14 327.99C527.55 327.99 522.51 333.5 515.17 345.89C516.09 362.41 518.85 369.75 523.44 369.75C528.46 369.75 535.8 353.66 535.8 337.62ZM472.95 356.42C477.99 356.42 484.43 350.91 496.36 337.62C497.29 331.65 497.29 326.14 497.29 319.27C497.29 310.09 493.61 299.99 488.11 299.99C474.33 299.99 467.46 336.71 467.46 346.36C467.46 351.83 470.19 356.42 472.95 356.42ZM547.75 397.27C559.21 397.27 572.05 353.21 572.05 325.69C572.05 319.72 571.15 313.3 568.39 313.3C558.74 313.3 542.69 358.72 542.69 383.49C542.69 393.14 545 397.27 547.75 397.27ZM435.36 372.03C450.96 372.03 468.81 287.63 468.81 273.39C468.81 269.71 467.46 266.95 464.25 266.95C450.03 266.95 430.3 347.24 430.3 365.14C430.3 368.37 431.23 372.03 435.36 372.03ZM522.52 446.81C520.23 446.36 517.93 445.88 515.62 445.88C500.94 445.88 492.71 460.57 480.75 485.34C507.37 467.42 532.15 452.75 560.12 452.75C583.97 452.75 602.81 467.42 602.81 489.93C602.81 499.53 598.21 510.11 592.24 519.26C588.58 498.63 571.6 489.47 542.25 489.47C525.27 489.47 505.07 492.66 489.02 498.63C540.87 505.97 548.67 524.77 548.67 541.77C548.67 570.67 519.76 584.88 500.48 594.53C502.31 586.26 503.69 577.52 503.69 568.36C503.69 550.92 497.29 531.19 471.12 511.94C467.01 530.74 452.32 542.22 452.32 556.89C452.32 562.4 455.98 564.23 458.74 564.23C458.74 572.5 455.06 595.89 455.06 601.88C455.06 614.24 457.81 616.54 463.78 617.9C467.46 628.47 467.59 646.16 470.1 655.67C471.54 661.06 475.69 662.42 478.92 662.42C482.58 671.59 487.19 685.35 495.92 691.77C497.73 693.15 500.01 696.36 500.01 699.12C500.01 707.36 487.65 716.56 479.85 716.56C477.54 716.56 473.57 715.12 470.05 706.66C467.17 699.71 444.98 685.83 443.6 677.56C444.98 676.18 445.9 673.42 445.9 670.21C445.9 657.38 425.72 642.69 425.72 622.51C428 621.58 430.31 617.9 430.31 613.79C430.31 602.33 418.37 579.82 418.37 564.7C423.42 564.7 426.17 564.23 426.62 556.89C427.55 541.77 430.76 519.26 444.98 506.42C441.77 505.97 437.65 505.52 432.14 505.52C404.61 505.52 361.94 521.56 345.9 557.36C344.97 551.85 344.5 546.81 344.5 542.22C344.5 512.39 362.4 492.66 375.71 486.72C382.58 483.51 390.85 482.58 400.02 482.58C414.69 482.58 432.14 485.79 450.04 489C434.44 468.35 410.58 453.23 390.85 453.23C381.69 453.23 374.33 456.44 372.04 464.21C371.12 460.12 370.67 453.23 370.67 448.62C370.67 426.18 378.01 413.32 397.27 413.32C425.72 413.32 450.04 447.26 464.71 478.9C464.71 430.76 465.61 406.88 485.34 406.88C496.37 406.88 517 426.63 522.52 446.81ZM1258.36 737.63C1281.32 737.63 1299.67 767.46 1299.67 802.33C1299.67 839.46 1282.22 879.84 1251.12 907.34C1250.64 845.44 1174.85 865.17 1174.85 820.2C1174.85 800.95 1188.64 788.09 1205.18 788.09C1219.41 788.09 1230.6 791.96 1238.81 799.71C1231.08 791.97 1227.21 781.32 1227.21 771.14C1227.21 753.68 1238.24 737.63 1258.36 737.63ZM1238.81 799.71C1239.07 799.97 1239.34 800.24 1239.62 800.5C1239.35 800.23 1239.08 799.97 1238.81 799.71ZM917.95 268.34C914.27 262.37 900.59 259.19 894.17 259.19C873.95 259.19 860.18 273.4 857.43 286.26C855.6 281.65 854.2 276.16 854.2 270.64C854.2 250.46 867.98 225.7 901.52 225.7C930.81 225.7 942.27 241.29 946.43 241.29C950.99 241.29 955.6 236.68 959.28 236.68C964.33 236.68 964.33 244.5 964.33 250.01C964.33 268.34 956.08 300 935.4 311.48C931.72 303.66 924.37 294.96 912.52 289.47C909.31 288.09 907.93 285.33 907.93 282.57C907.93 277.53 912.52 271.1 917.95 268.34ZM848.7 301.83C860.64 313.31 871.17 318.35 884.03 318.35C889.11 318.35 895.08 316.99 898.31 316.99C902.42 316.99 905.18 318.8 905.18 322.01C905.18 327.07 900.59 335.32 895.08 339.93C900.59 342.21 906.56 343.14 913 343.14C939.06 343.14 968.91 326.6 968.91 285.33C974.43 292.65 977.66 307.82 977.66 314.69C977.66 364.69 940.91 383.95 907.03 383.95C884.97 383.95 873.95 376.61 871.17 376.61C862.49 376.61 862.94 394.05 856.97 393.6C846.4 391.77 836.79 368.36 836.79 343.59C836.79 328.9 840.45 313.31 848.7 301.83ZM598.21 158.25C573.44 158.25 521.14 133.48 503.22 133.48C498.18 133.48 496.82 134.86 496.82 139.45C496.82 156.89 530.75 211.92 530.75 236.21C530.75 242.65 528.46 247.71 522.06 247.71C501.39 247.71 455.53 192.66 439.48 192.66C424.79 192.66 431.21 238.99 417.45 238.99C406.46 238.99 396.81 212.37 384.86 212.37C372.95 212.37 365.15 304.12 346.35 304.12C324.33 304.12 333.02 219.26 318.35 219.26C306.89 219.26 291.29 248.17 274.3 248.17C265.15 248.17 262.39 240.82 262.39 230.27C262.39 216.96 266.52 198.63 266.52 186.68C266.52 180.26 266.05 172.94 260.08 172.94C243.09 172.94 181.19 218.34 157.32 218.34C152.3 218.34 148.62 216.05 148.62 210.99C148.62 188.51 227.04 121.1 227.04 105.5C227.04 91.27 137.14 104.13 137.14 90.34C137.14 74.75 200.92 47.7 200.92 37.6C200.92 27.07 139.44 23.38 139.44 11.45C139.44 3.63 154.09 0.45 181.19 0.45C203.65 0.45 261.94 6.39 261.94 19.72C261.94 34.84 212.81 50 212.81 64.67C212.81 82.11 281.65 71.99 281.65 87.15C281.65 102.75 231.65 137.62 231.65 148.62C231.65 150.45 233.94 151.38 235.77 151.38C247.68 151.38 278.89 128.44 293.12 128.44C298.62 128.44 300.45 132.1 300.45 138.54C300.45 151.38 292.67 172.94 292.67 186.23C292.67 189.43 293.58 193.12 297.24 193.12C307.34 193.12 323.41 149.53 337.62 149.53C350.48 149.53 339 215.13 352.31 215.13C363.77 215.13 366.08 155.49 378.01 155.49C389.45 155.49 394.98 188.98 406.92 188.98C411.94 188.98 412.41 182.56 412.41 172.01L412.41 156.42C412.41 146.32 412.86 139.45 417.9 139.45C431.69 139.45 470.65 185.3 478.92 185.3C480.75 185.3 481.21 183.47 481.21 182.09C481.21 169.73 455.06 127.99 455.06 105.96C455.06 98.61 457.81 93.57 465.16 93.57C481.21 93.57 515.17 112.4 530.75 112.4C535.81 112.4 539.02 110.56 539.02 105.5C539.02 86.7 483.06 48.62 483.06 33.01C483.06 17.87 545.46 2.28 588.1 2.28C593.62 2.28 604.65 2.28 604.65 8.22C604.65 19.68 551.69 29.49 538.93 42.93C537.27 44.7 536.2 46.65 536.28 48.62C537.08 70.18 611.54 120.17 611.54 147.7C611.54 153.66 606.48 158.25 598.21 158.25ZM598.21 47.25C610.16 47.25 616.1 47.7 616.1 61.44C616.1 72.47 613.8 83.02 606.02 83.02C592.71 83.02 563.81 65.12 563.81 56.87C563.81 51.38 583.08 47.25 598.21 47.25ZM433.52 30.73C433.52 44.94 474.33 56.87 474.33 67.88C474.33 71.09 471.58 71.99 468.82 71.99C461.04 71.99 446.81 65.57 436.27 65.57C428.93 65.57 423.42 69.26 423.42 77.05C423.42 89.89 437.2 109.64 437.2 119.25C437.2 122.47 434.9 124.76 432.14 124.76C421.13 124.76 409.22 89.44 393.13 89.44C373.42 89.44 379.39 140.37 365.6 140.37C352.31 140.37 368.36 88.53 344.04 88.53C329.35 88.53 313.76 111.94 304.58 111.94C302.28 111.94 300 111.02 300 108.26C300 99.09 324.79 78.43 324.79 66.95C324.79 60.99 318.82 59.63 312.38 59.63C300.9 59.63 284.85 64.2 274.75 64.2C270.17 64.2 266.52 62.82 266.52 59.63C266.52 50 312.85 45.39 312.85 29.35C312.85 14.21 291.29 16.49 291.29 10.98C291.29 6.86 308.25 3.63 326.6 3.63C356.88 3.63 350.94 29.35 374.8 29.35C397.72 29.35 393.6 4.56 423.42 4.56C442.22 4.56 455.98 7.32 455.98 10.07C455.98 16.49 433.52 16.49 433.52 30.73ZM192.62 121.1C192.62 130.27 157.77 160.98 145.41 160.98C140.82 160.98 139.44 155.49 139.44 150.45C139.44 141.3 143.56 128.44 148.62 124.31C154.56 118.79 168.33 116.08 178.88 116.08C185.28 116.08 192.62 117.41 192.62 121.1ZM532.15 165.59C545 165.59 603.27 211.47 611.54 222.92C613.35 225.7 614.25 229.36 614.25 233C614.25 246.79 607.4 262.83 598.21 262.83C587.2 262.83 529.84 184.39 529.84 168.35C529.84 166.97 530.75 165.59 532.15 165.59ZM1191.85 130.73C1191.85 98.15 1113.92 89.9 1113.92 82.56C1113.92 76.61 1157.45 66.49 1179.92 66.04C1145.52 22.02 1096.48 26.6 1096.48 18.81C1096.48 14.2 1133.2 5.02 1167.1 5.02C1195.54 5.02 1222.16 11.44 1222.16 33C1222.16 44.95 1212.53 57.34 1212.53 75.69C1212.53 85.79 1217.55 94.49 1230.9 94.49C1245.14 94.49 1248.35 79.35 1248.35 63.28C1248.35 49.99 1246.04 39.89 1246.04 33.47C1246.04 14.2 1259.27 1.36 1278.1 1.36C1293.71 1.36 1297.37 8.23 1320.33 8.23C1307.93 15.58 1303.36 28.91 1303.36 35.3C1303.36 54.58 1315.77 67.89 1315.77 107.34C1315.77 179.8 1247.87 205.49 1164.8 205.49C1141.94 205.49 1117.6 203.66 1093.72 200C1090.06 199.55 1089.13 198.62 1089.13 196.34C1089.13 190.35 1121.74 187.14 1121.74 157.81C1121.74 146.33 1118.06 135.32 1118.06 131.19C1118.06 128.9 1119.89 127.53 1121.74 127.53C1128.63 127.53 1142.42 154.12 1168.03 154.12C1174.86 154.12 1191.85 151.82 1191.85 130.73ZM1266.62 29.36C1266.62 35.76 1271.66 40.8 1278.1 40.8C1284.52 40.8 1289.58 35.76 1289.58 29.36C1289.58 22.92 1284.52 17.88 1278.1 17.88C1271.66 17.88 1266.62 22.92 1266.62 29.36ZM1269.35 84.41C1269.35 125.22 1239.62 156.43 1185.87 165.13C1191.85 165.58 1197.37 165.58 1202.88 165.58C1265.69 165.58 1288.65 137.15 1288.65 113.31C1288.65 100 1281.31 88.07 1269.35 84.41ZM1237.79 675.71C1245.13 652.77 1254.33 636.71 1269.37 611.94C1254.33 604.16 1214.37 587.63 1214.37 560.55C1214.37 528.92 1253.85 504.15 1262.02 504.15C1265.68 504.15 1266.61 507.36 1266.61 513.32C1266.61 529.82 1258.81 556.44 1258.81 570.65C1258.81 583.49 1267.08 595.9 1274.43 595.9C1282.22 595.9 1303.8 568.37 1303.8 541.3C1303.8 492.65 1261.09 477.98 1247.89 477.98C1235.48 477.98 1212.99 498.16 1160.2 498.16C1061.6 498.16 1039.09 400.49 1039.09 357.8C1039.09 355.97 1039.54 355.5 1039.99 355.5C1042.3 355.5 1051.95 367.45 1083.16 367.45C1099.22 367.45 1113.91 363.32 1137.35 363.32C1192.32 363.32 1216.66 401.41 1250.64 450C1271.2 462.84 1320.35 483.49 1320.35 541.75C1320.35 593.14 1265.68 621.59 1252.47 676.62C1273.5 674.35 1285.91 636.71 1307.47 636.71C1318.49 636.71 1323.55 645.43 1323.55 659.21C1323.55 679.37 1312.08 709.67 1290.02 728.48C1290.49 726.63 1290.49 724.34 1290.49 721.59C1290.49 708.75 1285.45 690.42 1270.74 690.42C1247.89 690.42 1240.52 715.17 1227.68 735.8C1214.37 689.04 1196.45 646.81 1164.36 621.12C1131.85 594.97 1075.81 609.18 1075.81 561.48C1075.81 548.62 1084.08 530.29 1084.08 515.61C1084.08 510.57 1083.16 505.98 1080.4 502.3C1124.49 518.84 1108.87 548.17 1135.97 578.45C1152.86 597.73 1199.66 616.08 1226.78 695.44C1227.21 693.14 1227.68 687.19 1227.68 683.06C1227.68 615.15 1137.8 548.62 1130 521.1C1182.22 527.06 1191.39 539.92 1216.2 608.73C1221.24 622.97 1237.79 658.29 1237.79 675.71ZM1225.85 453.21C1225.85 443.59 1201.49 442.68 1199.21 415.61C1198.74 411.47 1197.38 404.15 1192.32 404.15C1184.05 404.15 1190.47 429.37 1181.29 429.37C1160.2 429.37 1153.33 388.08 1145.51 388.08C1143.66 388.08 1141.48 389.46 1141.48 394.98C1141.48 400.02 1142.41 403.25 1142.41 409.17C1142.41 415.16 1141.03 419.27 1135.52 419.27C1123.11 419.27 1112.1 390.39 1101.53 390.39C1099.22 390.39 1096.94 391.77 1096.94 394.05C1096.94 399.56 1106.12 409.64 1106.12 414.7C1106.12 425.71 1076.29 419.74 1076.29 428.92C1076.29 433.05 1080.4 434.41 1085.91 434.41C1095.56 434.41 1110.72 430.3 1118.52 430.3C1123.11 430.3 1130 431.22 1130 437.17C1130 443.59 1113.48 451.83 1113.48 457.8C1113.48 460.56 1116.24 461.91 1118.52 461.91C1130.93 461.91 1152.86 440.38 1168.47 440.38C1171.21 440.38 1178.08 441.75 1178.08 445.89C1178.08 451.83 1162.51 462.37 1162.51 471.09C1162.51 473.39 1163.89 476.15 1166.64 476.15C1174.85 476.15 1185.88 454.59 1201.49 454.59C1207.48 454.59 1216.2 456.9 1220.79 456.9C1224.47 456.9 1225.85 454.59 1225.85 453.21ZM842.75 208.24C840.91 208.24 840.46 208.24 840.46 205.94C840.46 196.78 863.4 164.67 863.4 155.05C863.4 145.42 832.19 150.91 832.19 143.13C832.19 133.49 863.4 123.39 863.4 110.55C863.4 97.69 833.57 95.86 833.57 85.78C833.57 80.27 861.55 72.47 861.55 64.2C861.55 55.95 833.12 23.84 833.12 13.29C833.12 1.83 875.77 33.47 886.81 33.47C892.33 33.47 892.33 17.42 892.33 12.36C892.33 4.57 894.63 0 896.92 0C902.43 0 913.46 18.33 920.7 17.88C932.63 17.88 955.16 2.74 985.89 2.74C1050.56 2.74 1097.4 41.74 1097.4 108.25C1097.4 177.04 1045.06 216.04 989.58 216.04C950.55 216.04 927.12 191.72 918.41 191.72C912.53 191.72 903.83 212.83 898.31 212.83C896.01 212.83 895.08 212.38 894.18 206.86C892.78 196.33 891.4 178.41 884.04 178.41C877.6 178.41 851.45 208.24 842.75 208.24ZM879 122.93C879 123.84 879.9 124.29 882.21 124.29C885.44 124.29 896.01 124.76 901.52 124.76C903.83 124.76 904.71 126.6 904.71 128.43L905.66 146.78C905.66 149.08 906.56 150.91 907.94 150.91C912.08 150.91 920.25 132.11 925.29 132.11C929.42 132.11 943.66 138.55 947.34 138.55C948.25 138.55 948.72 138.07 948.72 137.15C948.72 133.03 939.07 120.18 939.07 116.99C939.07 112.85 965.24 113.31 965.24 108.72C965.24 105.04 939.52 100 939.52 95.86C939.52 92.18 951 79.82 951 76.61C951 75.68 950.1 75.23 949.17 75.23C944.56 75.23 933.56 82.12 927.61 82.12C922.53 82.12 917.02 57.81 913.83 57.81C909.32 57.81 908.42 83.5 902.43 83.5C895.54 83.5 886.81 81.65 881.75 81.65C880.35 81.65 879.45 82.12 879.45 83.03C879.45 88.54 897.39 98.17 897.39 103.21C897.39 106.41 879 119.25 879 122.93ZM1057.92 107.79C1057.92 55.5 1030.81 24.29 985.44 24.29C957.44 24.29 939.52 35.75 939.52 46.33C939.52 52.74 945.04 53.67 949.64 53.67C958.82 53.67 980.85 44.95 984.99 44.95C988.2 44.95 990.03 45.85 990.03 48.16C990.03 53.2 980.38 64.2 980.38 70.64C980.38 79.34 1030.81 72.93 1030.81 82.12C1030.81 90.8 993.71 99.07 993.71 104.58C993.71 110.55 1023.54 130.28 1023.54 140.38C1023.54 142.21 1022.64 144.06 1019.45 144.06C1009.8 144.06 991.41 139 979.02 139C976.27 139 974.89 140.38 974.89 142.21C974.89 149.08 982.68 162.82 982.68 171.09C982.68 173.85 981.31 174.75 979.48 174.75C972.13 174.75 950.1 159.18 940 159.18C936.31 159.18 933.56 161.92 933.56 166.05C933.56 174.32 954.68 190.37 986.82 190.37C1011.61 190.37 1057.92 173.85 1057.92 107.79ZM671.15 962.92C671.15 955.1 676.21 950.06 683.1 950.06C691.83 950.06 696.41 957.86 697.32 966.09C700.53 962.92 703.27 961.54 707.4 961.54C716.6 961.54 722.09 968.84 722.09 976.64C722.09 981.68 719.35 986.29 715.67 989.02C721.18 991.8 724.39 995.94 724.39 1001.9C724.39 1009.25 718.9 1014.76 711.54 1014.76C704.66 1014.76 700.53 1006.49 693.2 1006.49C689.07 1006.49 684.46 1008.32 682.63 1011.08C685.39 1017.51 686.77 1023.89 686.77 1029.84C686.77 1065.67 641.34 1094.55 594.08 1094.55C546.83 1094.55 529.85 1065.22 529.85 1053.27C529.85 1050.51 531.68 1049.13 534.89 1049.13C542.69 1049.13 544.54 1051.89 565.63 1051.89C616.1 1051.89 598.22 983.53 645.45 983.53C651.89 983.51 666.13 988.12 671.15 997.29C674.83 992.73 676.21 988.12 676.21 983.98C676.21 976.19 671.15 970.2 671.15 962.92ZM391.3 878.03C391.3 865.17 409.22 856.45 425.26 856.45C447.73 856.45 464.25 862.89 479.37 885.83C493.16 906.46 495.44 940.87 502.76 947.31C506.45 950.52 512.41 951.45 516.55 951.45C521.14 951.45 525.27 950.97 528.46 950.97C561.5 950.97 583.97 988.13 583.97 1004.65C583.97 1019.81 570.7 1025.26 554.18 1025.26C534.43 1025.26 511.96 1013.84 500.48 1000.96C491.78 991.79 487.19 973.42 483.51 950.97C479.85 927.54 461.49 907.82 424.79 898.68C395.43 891.32 391.3 885.83 391.3 878.03ZM561.95 994.07C561.95 982.14 541.32 967.91 529.84 967.91C524.82 967.91 518.38 971.59 518.38 978.48C518.38 986.75 539.04 1001.44 552.8 1001.44C559.65 1001.44 561.95 997.3 561.95 994.07ZM655.11 842.68C655.11 822.05 612.42 821.6 612.42 790.39C612.42 782.57 617.48 769.29 627.58 755.05C631.72 778.91 641.34 791.3 662 799.11C702.82 814.23 708.33 837.17 708.33 861.51C708.33 902.81 679.42 954.18 605.11 954.18C545.45 954.18 502.78 900.96 502.78 856.01C502.78 843.61 505.99 829.85 513.79 829.85C520.68 829.85 522.99 835.34 528.46 840.85C549.13 861.51 571.6 867 604.19 867C633.55 867 655.11 855.09 655.11 842.68ZM656.94 875.72C641.2 882.92 634.92 881.69 634.92 897.77C634.92 903.72 633.55 911.49 633.55 915.63C633.55 921.12 634.47 924.35 640.87 924.35C657.41 924.35 683.56 896.37 683.56 872.51C683.56 866.07 679.88 863.36 675.74 863.36C672.06 863.36 667.97 870.68 656.94 875.72ZM510.58 644.07C510.58 614.69 580.32 599.1 580.32 562.85C580.32 556.89 578.04 546.36 573.9 538.54C598.22 551.85 616.1 574.35 616.1 592.68C616.1 624.34 583.08 639.01 583.08 658.76C583.08 681.69 618.4 685.36 618.4 713.81C618.4 737.17 584.89 764.25 584.89 794.53C584.89 817.92 601.43 837.17 626.65 840.38C618.4 842.23 611.06 843.61 603.26 843.61C556.91 843.61 509.2 805.55 509.2 760.11C509.2 737.63 518.85 717.94 533.52 703.7C546.38 714.71 559.22 722.05 567.47 722.05C574.81 722.05 578.04 718.39 578.04 712.88C578.04 695.89 510.58 680.32 510.58 644.07ZM270.21 837.39C272.06 837.12 274.75 836.71 274.75 836.71C273.37 833.52 272.72 830.33 272.47 827.56C270.86 810.4 281.42 796.86 297.36 794.23C315.04 791.29 327.98 803.26 332.11 817C335.79 813.77 341.33 811.51 347.29 810.77C362.74 808.88 377.56 821.14 379.39 837.64C380.77 853.7 369.6 866.99 353.03 870.12C351.35 870.45 349.1 870.67 349.1 870.67C350.48 873.88 351.37 876.66 351.86 881.23C353.69 898.22 342.19 911.53 325.3 913.73C308.66 915.91 296.33 906.47 292.67 891.8C288.99 894.08 283.46 895.73 277.51 896.39C261.01 898.22 246.4 886.35 244.47 870.67C242.29 852.86 256.81 839.38 270.21 837.39ZM310.86 837.29C301.27 838.4 294.42 847.08 295.55 856.66C296.64 866.23 305.32 873.1 314.89 871.99C324.48 870.86 331.33 862.22 330.2 852.63C329.11 843.03 320.45 836.15 310.86 837.29Z" />
			</g>
		</g>
	</g>
</svg>