<?xml version="1.0" encoding="utf-8"?>
<!-- Generator: Adobe Illustrator 27.9.1, SVG Export Plug-In . SVG Version: 6.00 Build 0)  -->
<svg version="1.1" id="Layer_1" xmlns="http://www.w3.org/2000/svg" xmlns:xlink="http://www.w3.org/1999/xlink" x="0px" y="0px"
	 viewBox="0 0 233.6 56" style="enable-background:new 0 0 233.6 56;" xml:space="preserve">
<g>
	<path d="M135.5,29.8c0-5.5-2.4-10.4-10.4-10.4c-4.1,0-7.4,1.2-9.1,2.2l1.3,4.4c1.6-1,4.2-1.9,6.7-1.9c4.1,0,4.7,2.3,4.7,3.8v0.4
		c-8.8,0-14.4,3-14.4,9.3c0,3.8,2.8,7.4,7.8,7.4c3,0,5.6-1.2,7.1-3.2h0.1c0,0,1,4.2,6.6,2.6c-0.3-1.8-0.4-3.6-0.4-5.9V29.8z
		 M128.9,35.6c0,0.4,0,0.9-0.2,1.3c-0.5,1.7-2.3,3.1-4.5,3.1c-1.8,0-3.3-1-3.3-3.2c0-3.3,3.7-4.3,7.9-4.2"/>
	<path d="M0,11.9c0,0,5.8,23.6,6.7,27.5c1.1,4.5,3,6.1,8.6,5l3.6-14.7c0.9-3.6,1.5-6.2,2.1-9.9h0.1c0.4,3.7,1,6.3,1.7,10
		c0,0,1.5,6.7,2.2,10.2c0.7,3.5,2.8,5.7,8.3,4.5l8.6-32.5h-6.9l-3,14.1c-0.8,4.1-1.5,7.3-2,11H30c-0.5-3.7-1.1-6.8-1.9-10.8L25,11.9
		h-7.2l-3.3,14c-0.9,4.3-1.8,7.7-2.3,11.3h-0.1c-0.6-3.4-1.3-7.7-2.1-11.8c0,0-1.9-10-2.6-13.4"/>
	<path d="M61.4,29.8c0-5.5-2.4-10.4-10.4-10.4c-4.1,0-7.4,1.2-9.1,2.2l1.3,4.4c1.6-1,4.2-1.9,6.7-1.9c4.1,0,4.7,2.3,4.7,3.8v0.4
		c-8.8,0-14.4,3-14.4,9.3c0,3.8,2.9,7.4,7.8,7.4c3.1,0,5.6-1.2,7.1-3.2h0.2c0,0,1,4.2,6.6,2.6c-0.3-1.8-0.4-3.6-0.4-5.9V29.8z
		 M54.8,35.6c0,0.4,0,0.9-0.2,1.3c-0.5,1.7-2.3,3.1-4.5,3.1c-1.8,0-3.3-1-3.3-3.2c0-3.3,3.7-4.3,7.9-4.2"/>
	<polygon points="65,11.9 65,44.4 71.6,44.4 71.6,37.5 71.6,11.9 	"/>
	<path d="M155.8,11.9v24c0,3.3,0.6,5.6,2,7c1.2,1.2,3.1,2,5.4,2c2,0,3.9-0.4,4.8-0.7l-0.1-5.2c-0.7,0.2-1.5,0.3-2.5,0.3
		c-2.3,0-3-1.4-3-4.4v-9.2h5.8v-6.2h-5.8v-7.7"/>
	<path d="M138.7,20v24.4h6.8V31.9c0-0.7,0-1.3,0.1-1.8c0.5-2.6,2.5-4.3,5.4-4.3c0.8,0,1.4,0.1,2,0.2v-6.4c-0.5-0.1-0.9-0.1-1.5-0.1
		c-2.6,0-5.5,1.6-6.7,5.2h-0.2V20"/>
	<path d="M75.5,20v24.4h6.7V30c0-0.7,0.1-1.4,0.3-2c0.5-1.5,1.9-3.1,4-3.1c2.7,0,3.9,2.3,3.9,5.5v13.9H97V29.9c0-0.6,0.1-1.4,0.3-2
		c0.5-1.6,2-3,4-3c2.7,0,4,2.2,4,6.1v13.4h6.6V30c0-7.6-3.8-10.6-8.2-10.6c-1.9,0-3.4,0.5-4.8,1.3c-1.2,0.7-2.2,1.7-3.1,3h-0.1
		c-1.1-2.6-3.5-4.4-6.7-4.4c-4.1,0-6,2.1-7.1,3.9h-0.1V20"/>
	<path d="M203.8,18.9c1.3,0,2.4-0.7,2.5-1.6l1.3-14.7c0-1.5-1.7-2.6-3.8-2.6c-2.1,0-3.8,1.2-3.8,2.6l1.3,14.7
		C201.4,18.2,202.5,18.9,203.8,18.9"/>
	<path d="M195.8,23.4c0.6-1.1,0.6-2.4-0.1-3L183.7,12c-1.3-0.7-3.1,0.1-4.2,2c-1.1,1.8-0.9,3.9,0.4,4.6l13.4,6.2
		C194.1,25.2,195.2,24.6,195.8,23.4"/>
	<path d="M211.7,23.4c0.7,1.1,1.8,1.7,2.6,1.4l13.4-6.2c1.2-0.7,1.4-2.8,0.4-4.6c-1.1-1.8-3-2.7-4.2-2l-12.1,8.4
		C211.1,21,211.1,22.3,211.7,23.4"/>
	<path d="M203.8,37.2c1.3,0,2.4,0.7,2.5,1.6l1.3,14.7c0,1.5-1.7,2.6-3.8,2.6c-2.1,0-3.8-1.2-3.8-2.6l1.3-14.7
		C201.4,37.8,202.5,37.2,203.8,37.2"/>
	<path d="M211.7,32.6c0.7-1.1,1.8-1.7,2.6-1.4l13.4,6.2c1.2,0.7,1.4,2.8,0.4,4.6c-1.1,1.8-3,2.7-4.2,2l-12.1-8.5
		C211.1,35,211.1,33.7,211.7,32.6"/>
	<path d="M195.8,32.6c0.6,1.1,0.6,2.4-0.1,3L183.7,44c-1.3,0.7-3.1-0.1-4.2-2c-1.1-1.8-0.9-3.9,0.4-4.6l13.4-6.2
		C194.1,30.8,195.2,31.4,195.8,32.6"/>
	<path d="M231.6,42.7h0.2c0.2,0,0.3,0.1,0.3,0.3c0,0.2,0.1,0.3,0.1,0.4h0.4c0,0-0.1-0.2-0.1-0.4c0-0.2-0.2-0.3-0.3-0.4v0
		c0.2,0,0.3-0.2,0.3-0.4c0-0.2-0.1-0.3-0.1-0.4c-0.1-0.1-0.3-0.1-0.6-0.1c-0.3,0-0.5,0-0.6,0.1v1.6h0.4V42.7z M231.7,42l0.2,0
		c0.2,0,0.4,0.1,0.4,0.3c0,0.2-0.2,0.2-0.4,0.2h-0.2V42z M231.9,40.9c-0.9,0-1.7,0.7-1.7,1.6c0,0.9,0.7,1.7,1.7,1.7
		c1,0,1.7-0.7,1.7-1.7C233.6,41.6,232.9,40.9,231.9,40.9 M231.9,41.2c0.7,0,1.3,0.6,1.3,1.3c0,0.7-0.5,1.3-1.3,1.3
		c-0.7,0-1.3-0.6-1.3-1.3C230.6,41.8,231.2,41.2,231.9,41.2"/>
</g>
</svg>
